<?xml version="1.0" encoding="utf-8" standalone="no"?>
<!DOCTYPE svg PUBLIC "-//W3C//DTD SVG 1.1//EN"
  "http://www.w3.org/Graphics/SVG/1.1/DTD/svg11.dtd">
<svg xmlns:xlink="http://www.w3.org/1999/xlink" width="252pt" height="468pt" viewBox="0 0 252 468" xmlns="http://www.w3.org/2000/svg" version="1.1">
 <metadata>
  <rdf:RDF xmlns:dc="http://purl.org/dc/elements/1.1/" xmlns:cc="http://creativecommons.org/ns#" xmlns:rdf="http://www.w3.org/1999/02/22-rdf-syntax-ns#">
   <cc:Work>
    <dc:type rdf:resource="http://purl.org/dc/dcmitype/StillImage"/>
    <dc:date>2024-05-18T11:45:38.811276</dc:date>
    <dc:format>image/svg+xml</dc:format>
    <dc:creator>
     <cc:Agent>
      <dc:title>Matplotlib v3.5.3, https://matplotlib.org/</dc:title>
     </cc:Agent>
    </dc:creator>
   </cc:Work>
  </rdf:RDF>
 </metadata>
 <defs>
  <style type="text/css">*{stroke-linejoin: round; stroke-linecap: butt}</style>
 </defs>
 <g id="figure_1">
  <g id="patch_1">
   <path d="M 0 468 
L 252 468 
L 252 0 
L 0 0 
z
" style="fill: #ffffff"/>
  </g>
  <g id="axes_1">
   <g id="patch_2">
    <path d="M 41.56 447.32 
L 252 447.32 
L 252 0 
L 41.56 0 
z
" style="fill: #e6f2ff"/>
   </g>
   <g id="matplotlib.axis_1">
    <g id="xtick_1">
     <g id="line2d_1">
      <path d="M 48.893647 447.32 
L 48.893647 0 
" clip-path="url(#p170a44c679)" style="fill: none; stroke: #ffffff; stroke-width: 2; stroke-linecap: square"/>
     </g>
     <g id="line2d_2">
      <defs>
       <path id="me03872dd96" d="M 0 0 
L 0 3.5 
" style="stroke: #000000; stroke-width: 0.8"/>
      </defs>
      <g>
       <use xlink:href="#me03872dd96" x="48.893647" y="447.32" style="stroke: #000000; stroke-width: 0.8"/>
      </g>
     </g>
     <g id="text_1">
      <!-- 0% -->
      <g transform="translate(40.962397 464.37525)scale(0.144 -0.144)">
       <defs>
        <path id="LinLibertine-30" d="M 1484 3681 
Q 1363 3681 1255 3603 
Q 1147 3525 1040 3340 
Q 934 3156 870 2762 
Q 806 2369 806 1813 
Q 806 163 1466 159 
Q 1522 159 1586 178 
Q 1650 197 1737 251 
Q 1825 306 1904 431 
Q 1984 556 2034 744 
Q 2144 1141 2144 2059 
Q 2144 3256 1772 3572 
Q 1650 3681 1484 3681 
z
M 1459 -63 
Q 1078 -63 809 206 
Q 547 466 398 916 
Q 250 1366 250 1881 
Q 250 2791 617 3347 
Q 984 3903 1484 3903 
Q 1953 3903 2266 3488 
Q 2700 2913 2700 1941 
Q 2700 1409 2578 998 
Q 2456 588 2262 367 
Q 2069 147 1862 42 
Q 1656 -63 1459 -63 
z
" transform="scale(0.015625)"/>
        <path id="LinLibertine-25" d="M 2772 531 
Q 2772 122 3053 122 
Q 3297 122 3456 433 
Q 3616 744 3616 1050 
Q 3616 1269 3530 1355 
Q 3444 1441 3347 1441 
Q 3122 1441 2947 1136 
Q 2772 831 2772 531 
z
M 2419 628 
Q 2419 1025 2672 1331 
Q 2925 1638 3278 1638 
Q 3509 1638 3668 1506 
Q 3828 1375 3828 1056 
Q 3828 678 3603 300 
Q 3378 -78 3016 -78 
Q 2741 -78 2580 137 
Q 2419 353 2419 628 
z
M 2328 3334 
Q 2584 3334 2870 3417 
Q 3156 3500 3291 3681 
L 3494 3578 
L 872 -78 
L 653 19 
L 2950 3219 
Q 2644 3097 2266 3097 
Q 1984 3097 1753 3231 
Q 1772 3159 1772 3072 
Q 1772 2700 1545 2320 
Q 1319 1941 953 1941 
Q 678 1941 522 2155 
Q 366 2369 366 2638 
Q 366 3059 619 3356 
Q 872 3653 1216 3653 
Q 1344 3653 1469 3606 
Q 1594 3559 1644 3494 
Q 1988 3334 2328 3334 
z
M 709 2547 
Q 709 2322 796 2230 
Q 884 2138 991 2138 
Q 1234 2138 1398 2445 
Q 1563 2753 1563 3066 
Q 1563 3456 1288 3456 
Q 1063 3456 886 3151 
Q 709 2847 709 2547 
z
" transform="scale(0.015625)"/>
       </defs>
       <use xlink:href="#LinLibertine-30"/>
       <use xlink:href="#LinLibertine-25" x="46.484375"/>
      </g>
     </g>
    </g>
    <g id="xtick_2">
     <g id="line2d_3">
      <path d="M 122.876228 447.32 
L 122.876228 0 
" clip-path="url(#p170a44c679)" style="fill: none; stroke: #ffffff; stroke-width: 2; stroke-linecap: square"/>
     </g>
     <g id="line2d_4">
      <g>
       <use xlink:href="#me03872dd96" x="122.876228" y="447.32" style="stroke: #000000; stroke-width: 0.8"/>
      </g>
     </g>
     <g id="text_2">
      <!-- 30% -->
      <g transform="translate(111.598103 464.37525)scale(0.144 -0.144)">
       <defs>
        <path id="LinLibertine-33" d="M 1375 3681 
Q 1259 3681 1139 3648 
Q 1019 3616 894 3497 
Q 769 3378 769 3194 
Q 769 2863 519 2859 
Q 416 2859 358 2931 
Q 300 3003 300 3078 
Q 300 3175 361 3300 
Q 422 3425 550 3569 
Q 678 3713 931 3808 
Q 1184 3903 1509 3903 
Q 1963 3903 2209 3653 
Q 2409 3450 2409 3147 
Q 2409 2878 2261 2676 
Q 2113 2475 1734 2297 
L 1741 2284 
Q 2100 2228 2372 1984 
Q 2644 1741 2644 1275 
Q 2644 666 2220 301 
Q 1797 -63 1203 -63 
Q 884 -63 582 60 
Q 281 184 281 366 
Q 281 444 367 516 
Q 453 588 550 588 
Q 703 588 825 422 
Q 831 416 854 381 
Q 878 347 887 333 
Q 897 319 919 291 
Q 941 263 959 250 
Q 978 238 1014 214 
Q 1050 191 1087 181 
Q 1125 172 1176 165 
Q 1228 159 1288 159 
Q 1391 159 1508 204 
Q 1625 250 1762 348 
Q 1900 447 1990 665 
Q 2081 884 2081 1184 
Q 2081 2009 1241 2009 
Q 1044 2009 934 1997 
L 903 2203 
Q 1347 2266 1628 2548 
Q 1909 2831 1909 3103 
Q 1909 3300 1831 3433 
Q 1753 3566 1637 3623 
Q 1522 3681 1375 3681 
z
" transform="scale(0.015625)"/>
       </defs>
       <use xlink:href="#LinLibertine-33"/>
       <use xlink:href="#LinLibertine-30" x="46.484375"/>
       <use xlink:href="#LinLibertine-25" x="92.96875"/>
      </g>
     </g>
    </g>
    <g id="xtick_3">
     <g id="line2d_5">
      <path d="M 196.858809 447.32 
L 196.858809 0 
" clip-path="url(#p170a44c679)" style="fill: none; stroke: #ffffff; stroke-width: 2; stroke-linecap: square"/>
     </g>
     <g id="line2d_6">
      <g>
       <use xlink:href="#me03872dd96" x="196.858809" y="447.32" style="stroke: #000000; stroke-width: 0.8"/>
      </g>
     </g>
     <g id="text_3">
      <!-- 60% -->
      <g transform="translate(185.580684 464.37525)scale(0.144 -0.144)">
       <defs>
        <path id="LinLibertine-36" d="M 866 1966 
Q 813 1709 813 1466 
Q 813 709 1020 431 
Q 1228 153 1581 153 
Q 1831 153 1997 415 
Q 2163 678 2163 1178 
Q 2163 1319 2128 1462 
Q 2094 1606 2017 1759 
Q 1941 1913 1780 2013 
Q 1619 2113 1394 2113 
Q 1091 2113 866 1966 
z
M 925 2197 
Q 1228 2334 1528 2338 
Q 2138 2338 2416 2045 
Q 2694 1753 2694 1294 
Q 2694 800 2387 364 
Q 2081 -72 1509 -72 
Q 1297 -72 1106 -8 
Q 916 56 717 214 
Q 519 372 400 698 
Q 281 1025 281 1484 
Q 281 2341 878 3034 
Q 1409 3656 2278 3909 
Q 2356 3859 2356 3744 
Q 1766 3522 1420 3109 
Q 1075 2697 925 2197 
z
" transform="scale(0.015625)"/>
       </defs>
       <use xlink:href="#LinLibertine-36"/>
       <use xlink:href="#LinLibertine-30" x="46.484375"/>
       <use xlink:href="#LinLibertine-25" x="92.96875"/>
      </g>
     </g>
    </g>
   </g>
   <g id="matplotlib.axis_2">
    <g id="ytick_1">
     <g id="line2d_7">
      <path d="M 41.56 438.658567 
L 252 438.658567 
" clip-path="url(#p170a44c679)" style="fill: none; stroke: #ffffff; stroke-width: 2; stroke-linecap: square"/>
     </g>
     <g id="line2d_8">
      <defs>
       <path id="m82ab32d8c2" d="M 0 0 
L -3.5 0 
" style="stroke: #000000; stroke-width: 0.8"/>
      </defs>
      <g>
       <use xlink:href="#m82ab32d8c2" x="41.56" y="438.658567" style="stroke: #000000; stroke-width: 0.8"/>
      </g>
     </g>
     <g id="text_4">
      <!-- 0 -->
      <g transform="translate(27.86625 443.686192)scale(0.144 -0.144)">
       <use xlink:href="#LinLibertine-30"/>
      </g>
     </g>
    </g>
    <g id="ytick_2">
     <g id="line2d_9">
      <path d="M 41.56 240.176622 
L 252 240.176622 
" clip-path="url(#p170a44c679)" style="fill: none; stroke: #ffffff; stroke-width: 2; stroke-linecap: square"/>
     </g>
     <g id="line2d_10">
      <g>
       <use xlink:href="#m82ab32d8c2" x="41.56" y="240.176622" style="stroke: #000000; stroke-width: 0.8"/>
      </g>
     </g>
     <g id="text_5">
      <!-- 1.5e-2 -->
      <g transform="translate(0.01575 245.204247)scale(0.144 -0.144)">
       <defs>
        <path id="LinLibertine-31" d="M 1844 781 
Q 1844 397 1942 305 
Q 2041 213 2400 197 
Q 2431 166 2431 89 
Q 2431 13 2400 -13 
Q 1759 0 1619 0 
Q 1356 0 728 -13 
Q 703 13 703 89 
Q 703 166 728 197 
Q 1100 209 1225 309 
Q 1350 409 1350 781 
L 1350 2869 
Q 1350 3241 1222 3238 
Q 1050 3238 666 3078 
Q 588 3128 569 3250 
Q 1466 3666 1825 3891 
Q 1863 3891 1863 3859 
Q 1844 3713 1844 3003 
L 1844 781 
z
" transform="scale(0.015625)"/>
        <path id="LinLibertine-2e" d="M 464 35 
Q 366 134 366 275 
Q 366 416 464 516 
Q 563 616 703 616 
Q 844 616 944 516 
Q 1044 416 1044 275 
Q 1044 134 944 35 
Q 844 -63 703 -63 
Q 563 -63 464 35 
z
" transform="scale(0.015625)"/>
        <path id="LinLibertine-35" d="M 2041 1209 
Q 2041 1709 1836 1945 
Q 1631 2181 1300 2181 
Q 897 2181 488 2028 
L 703 3872 
Q 1075 3841 1394 3841 
Q 1778 3841 2444 3909 
L 2491 3884 
L 2388 3450 
Q 1991 3413 1716 3413 
Q 1497 3413 966 3469 
L 838 2400 
Q 1100 2503 1466 2503 
Q 1984 2503 2298 2158 
Q 2613 1813 2613 1325 
Q 2613 716 2231 322 
Q 1850 -72 1253 -72 
Q 959 -72 653 76 
Q 347 225 347 409 
Q 347 506 420 576 
Q 494 647 588 647 
Q 759 647 916 441 
Q 922 428 953 387 
Q 984 347 998 326 
Q 1013 306 1044 275 
Q 1075 244 1100 228 
Q 1125 213 1164 189 
Q 1203 166 1245 159 
Q 1288 153 1338 153 
Q 1631 153 1836 458 
Q 2041 763 2041 1209 
z
" transform="scale(0.015625)"/>
        <path id="LinLibertine-65" d="M 794 1806 
L 1953 1825 
Q 2050 1825 2047 1913 
Q 2047 2278 1890 2431 
Q 1734 2584 1516 2584 
Q 1431 2584 1350 2562 
Q 1269 2541 1150 2470 
Q 1031 2400 934 2228 
Q 838 2056 794 1806 
z
M 2472 594 
Q 2581 588 2606 494 
Q 2178 -63 1516 -63 
Q 881 -63 538 347 
Q 238 694 238 1294 
Q 238 1972 644 2384 
Q 1050 2797 1516 2797 
Q 2597 2797 2597 1684 
Q 2597 1575 2478 1575 
L 775 1588 
Q 775 1050 978 709 
Q 1259 250 1678 250 
Q 1947 250 2117 326 
Q 2288 403 2472 594 
z
" transform="scale(0.015625)"/>
        <path id="LinLibertine-2d" d="M 1734 1428 
L 353 1428 
Q 256 1428 256 1550 
Q 256 1641 307 1727 
Q 359 1813 416 1813 
L 1819 1813 
Q 1909 1813 1906 1684 
Q 1906 1622 1848 1525 
Q 1791 1428 1734 1428 
z
" transform="scale(0.015625)"/>
        <path id="LinLibertine-32" d="M 391 2994 
Q 391 3313 717 3608 
Q 1044 3903 1544 3903 
Q 1978 3903 2301 3658 
Q 2625 3413 2625 2931 
Q 2625 2700 2528 2495 
Q 2431 2291 2320 2159 
Q 2209 2028 1984 1813 
L 1338 1191 
Q 863 716 863 416 
L 2003 416 
Q 2175 416 2272 550 
Q 2369 684 2450 1031 
Q 2572 1056 2638 997 
Q 2625 550 2484 -13 
Q 2191 0 1984 0 
L 863 0 
L 331 -13 
Q 331 294 476 578 
Q 622 863 1063 1313 
L 1538 1778 
Q 2063 2309 2059 2906 
Q 2059 3322 1890 3501 
Q 1722 3681 1503 3681 
Q 1184 3681 1028 3559 
Q 872 3438 872 3291 
Q 872 3259 897 3201 
Q 922 3144 922 3138 
Q 947 3047 947 3003 
Q 947 2906 842 2826 
Q 738 2747 647 2747 
Q 544 2747 467 2819 
Q 391 2891 391 2994 
z
" transform="scale(0.015625)"/>
       </defs>
       <use xlink:href="#LinLibertine-31"/>
       <use xlink:href="#LinLibertine-2e" x="46.484375"/>
       <use xlink:href="#LinLibertine-35" x="68.457031"/>
       <use xlink:href="#LinLibertine-65" x="114.941406"/>
       <use xlink:href="#LinLibertine-2d" x="159.619141"/>
       <use xlink:href="#LinLibertine-32" x="193.408203"/>
      </g>
     </g>
    </g>
    <g id="ytick_3">
     <g id="line2d_11">
      <path d="M 41.56 41.694677 
L 252 41.694677 
" clip-path="url(#p170a44c679)" style="fill: none; stroke: #ffffff; stroke-width: 2; stroke-linecap: square"/>
     </g>
     <g id="line2d_12">
      <g>
       <use xlink:href="#m82ab32d8c2" x="41.56" y="41.694677" style="stroke: #000000; stroke-width: 0.8"/>
      </g>
     </g>
     <g id="text_6">
      <!-- 3.0e-2 -->
      <g transform="translate(0.01575 46.722302)scale(0.144 -0.144)">
       <use xlink:href="#LinLibertine-33"/>
       <use xlink:href="#LinLibertine-2e" x="46.484375"/>
       <use xlink:href="#LinLibertine-30" x="68.457031"/>
       <use xlink:href="#LinLibertine-65" x="114.941406"/>
       <use xlink:href="#LinLibertine-2d" x="159.619141"/>
       <use xlink:href="#LinLibertine-32" x="193.408203"/>
      </g>
     </g>
    </g>
   </g>
   <g id="line2d_13">
    <path d="M 194.274351 426.987273 
L 154.844101 426.385965 
L 138.07225 420.312351 
L 122.508781 417.33671 
L 108.43976 410.904572 
L 96.57542 400.73621 
L 86.649424 391.079004 
L 78.797406 379.268138 
L 72.753029 367.804615 
L 67.897306 357.131182 
L 64.18338 346.204883 
L 57.441101 321.484089 
L 54.124215 306.525696 
L 52.141482 294.392627 
L 51.125455 286.862222 
" clip-path="url(#p170a44c679)" style="fill: none; stroke: #9b5c6f; stroke-width: 6; stroke-linecap: square"/>
    <defs>
     <path id="mf41022a9a4" d="M 0 4 
C 1.060812 4 2.078319 3.578535 2.828427 2.828427 
C 3.578535 2.078319 4 1.060812 4 0 
C 4 -1.060812 3.578535 -2.078319 2.828427 -2.828427 
C 2.078319 -3.578535 1.060812 -4 0 -4 
C -1.060812 -4 -2.078319 -3.578535 -2.828427 -2.828427 
C -3.578535 -2.078319 -4 -1.060812 -4 0 
C -4 1.060812 -3.578535 2.078319 -2.828427 2.828427 
C -2.078319 3.578535 -1.060812 4 0 4 
z
" style="stroke: #9b5c6f"/>
    </defs>
    <g clip-path="url(#p170a44c679)">
     <use xlink:href="#mf41022a9a4" x="194.274351" y="426.987273" style="fill: #9b5c6f; stroke: #9b5c6f"/>
     <use xlink:href="#mf41022a9a4" x="154.844101" y="426.385965" style="fill: #9b5c6f; stroke: #9b5c6f"/>
     <use xlink:href="#mf41022a9a4" x="138.07225" y="420.312351" style="fill: #9b5c6f; stroke: #9b5c6f"/>
     <use xlink:href="#mf41022a9a4" x="122.508781" y="417.33671" style="fill: #9b5c6f; stroke: #9b5c6f"/>
     <use xlink:href="#mf41022a9a4" x="108.43976" y="410.904572" style="fill: #9b5c6f; stroke: #9b5c6f"/>
     <use xlink:href="#mf41022a9a4" x="96.57542" y="400.73621" style="fill: #9b5c6f; stroke: #9b5c6f"/>
     <use xlink:href="#mf41022a9a4" x="86.649424" y="391.079004" style="fill: #9b5c6f; stroke: #9b5c6f"/>
     <use xlink:href="#mf41022a9a4" x="78.797406" y="379.268138" style="fill: #9b5c6f; stroke: #9b5c6f"/>
     <use xlink:href="#mf41022a9a4" x="72.753029" y="367.804615" style="fill: #9b5c6f; stroke: #9b5c6f"/>
     <use xlink:href="#mf41022a9a4" x="67.897306" y="357.131182" style="fill: #9b5c6f; stroke: #9b5c6f"/>
     <use xlink:href="#mf41022a9a4" x="64.18338" y="346.204883" style="fill: #9b5c6f; stroke: #9b5c6f"/>
     <use xlink:href="#mf41022a9a4" x="57.441101" y="321.484089" style="fill: #9b5c6f; stroke: #9b5c6f"/>
     <use xlink:href="#mf41022a9a4" x="54.124215" y="306.525696" style="fill: #9b5c6f; stroke: #9b5c6f"/>
     <use xlink:href="#mf41022a9a4" x="52.141482" y="294.392627" style="fill: #9b5c6f; stroke: #9b5c6f"/>
     <use xlink:href="#mf41022a9a4" x="51.125455" y="286.862222" style="fill: #9b5c6f; stroke: #9b5c6f"/>
    </g>
   </g>
   <g id="line2d_14">
    <path d="M 242.434545 397.608531 
L 231.707071 397.951243 
L 210.617103 392.488888 
L 189.490144 380.877959 
L 170.779949 362.852093 
L 155.098108 345.204402 
L 141.884819 327.459719 
L 130.659196 311.768795 
L 120.91569 296.069138 
L 112.646903 280.903794 
L 105.643219 266.00177 
L 99.65063 251.961157 
L 94.619814 237.555337 
L 79.892348 182.541435 
L 71.095819 127.612218 
L 65.485474 73.945347 
L 61.840598 20.332727 
" clip-path="url(#p170a44c679)" style="fill: none; stroke: #537b8d; stroke-width: 6; stroke-linecap: square"/>
    <defs>
     <path id="meadf17d24a" d="M -0 4 
L 4 -4 
L -4 -4 
z
" style="stroke: #537b8d; stroke-linejoin: miter"/>
    </defs>
    <g clip-path="url(#p170a44c679)">
     <use xlink:href="#meadf17d24a" x="242.434545" y="397.608531" style="fill: #537b8d; stroke: #537b8d; stroke-linejoin: miter"/>
     <use xlink:href="#meadf17d24a" x="231.707071" y="397.951243" style="fill: #537b8d; stroke: #537b8d; stroke-linejoin: miter"/>
     <use xlink:href="#meadf17d24a" x="210.617103" y="392.488888" style="fill: #537b8d; stroke: #537b8d; stroke-linejoin: miter"/>
     <use xlink:href="#meadf17d24a" x="189.490144" y="380.877959" style="fill: #537b8d; stroke: #537b8d; stroke-linejoin: miter"/>
     <use xlink:href="#meadf17d24a" x="170.779949" y="362.852093" style="fill: #537b8d; stroke: #537b8d; stroke-linejoin: miter"/>
     <use xlink:href="#meadf17d24a" x="155.098108" y="345.204402" style="fill: #537b8d; stroke: #537b8d; stroke-linejoin: miter"/>
     <use xlink:href="#meadf17d24a" x="141.884819" y="327.459719" style="fill: #537b8d; stroke: #537b8d; stroke-linejoin: miter"/>
     <use xlink:href="#meadf17d24a" x="130.659196" y="311.768795" style="fill: #537b8d; stroke: #537b8d; stroke-linejoin: miter"/>
     <use xlink:href="#meadf17d24a" x="120.91569" y="296.069138" style="fill: #537b8d; stroke: #537b8d; stroke-linejoin: miter"/>
     <use xlink:href="#meadf17d24a" x="112.646903" y="280.903794" style="fill: #537b8d; stroke: #537b8d; stroke-linejoin: miter"/>
     <use xlink:href="#meadf17d24a" x="105.643219" y="266.00177" style="fill: #537b8d; stroke: #537b8d; stroke-linejoin: miter"/>
     <use xlink:href="#meadf17d24a" x="99.65063" y="251.961157" style="fill: #537b8d; stroke: #537b8d; stroke-linejoin: miter"/>
     <use xlink:href="#meadf17d24a" x="94.619814" y="237.555337" style="fill: #537b8d; stroke: #537b8d; stroke-linejoin: miter"/>
     <use xlink:href="#meadf17d24a" x="79.892348" y="182.541435" style="fill: #537b8d; stroke: #537b8d; stroke-linejoin: miter"/>
     <use xlink:href="#meadf17d24a" x="71.095819" y="127.612218" style="fill: #537b8d; stroke: #537b8d; stroke-linejoin: miter"/>
     <use xlink:href="#meadf17d24a" x="65.485474" y="73.945347" style="fill: #537b8d; stroke: #537b8d; stroke-linejoin: miter"/>
     <use xlink:href="#meadf17d24a" x="61.840598" y="20.332727" style="fill: #537b8d; stroke: #537b8d; stroke-linejoin: miter"/>
    </g>
   </g>
   <g id="line2d_15">
    <path d="M 51.125455 286.862222 
L 112.646903 280.903794 
" clip-path="url(#p170a44c679)" style="fill: none; stroke-dasharray: 7.4,3.2; stroke-dashoffset: 0; stroke: #31a354; stroke-width: 2"/>
   </g>
   <g id="patch_3">
    <path d="M 41.56 447.32 
L 41.56 0 
" style="fill: none; stroke: #000000; stroke-width: 0.8; stroke-linejoin: miter; stroke-linecap: square"/>
   </g>
   <g id="patch_4">
    <path d="M 252 447.32 
L 252 0 
" style="fill: none; stroke: #000000; stroke-width: 0.8; stroke-linejoin: miter; stroke-linecap: square"/>
   </g>
   <g id="patch_5">
    <path d="M 41.56 447.32 
L 252 447.32 
" style="fill: none; stroke: #000000; stroke-width: 0.8; stroke-linejoin: miter; stroke-linecap: square"/>
   </g>
   <g id="patch_6">
    <path d="M 41.56 0 
L 252 0 
" style="fill: none; stroke: #000000; stroke-width: 0.8; stroke-linejoin: miter; stroke-linecap: square"/>
   </g>
   <g id="text_7">
    <!-- 27.6x -->
    <g style="fill: #31a354" transform="translate(66.505817 308.261817)rotate(-0.10342)scale(0.252 -0.252)">
     <defs>
      <path id="LinLibertine-37" d="M 1088 3425 
Q 966 3425 880 3395 
Q 794 3366 694 3237 
Q 594 3109 531 2869 
Q 434 2856 325 2888 
Q 447 3688 453 3909 
Q 453 3928 481 3928 
Q 506 3922 589 3881 
Q 672 3841 800 3841 
L 2119 3841 
Q 2375 3841 2613 3909 
L 2713 3834 
Q 2022 2144 1281 -63 
L 844 -84 
L 794 -38 
Q 1269 1019 2234 3425 
L 1088 3425 
z
" transform="scale(0.015625)"/>
      <path id="LinLibertine-78" d="M 1166 2291 
L 1556 1716 
Q 1619 1625 1678 1703 
L 2094 2284 
Q 2172 2394 2167 2448 
Q 2163 2503 2119 2515 
Q 2075 2528 1941 2547 
Q 1909 2572 1907 2648 
Q 1906 2725 1941 2759 
Q 2416 2747 2478 2747 
Q 2625 2747 2944 2759 
Q 2969 2728 2969 2650 
Q 2969 2572 2944 2547 
Q 2747 2528 2619 2464 
Q 2491 2400 2322 2194 
L 1784 1509 
Q 1753 1466 1784 1416 
L 2363 603 
Q 2466 463 2545 378 
Q 2625 294 2720 259 
Q 2816 225 2848 219 
Q 2881 213 3003 197 
Q 3034 166 3034 89 
Q 3034 13 3003 -13 
Q 2528 0 2463 0 
Q 2272 0 1797 -13 
Q 1766 13 1766 89 
Q 1766 166 1797 197 
Q 1816 197 1861 208 
Q 1906 219 1918 219 
Q 1931 219 1961 228 
Q 1991 238 1994 247 
Q 1997 256 2009 272 
Q 2022 288 2012 309 
Q 2003 331 1990 364 
Q 1978 397 1948 442 
Q 1919 488 1881 538 
L 1509 1050 
Q 1484 1081 1465 1087 
Q 1447 1094 1434 1084 
Q 1422 1075 1394 1038 
L 991 453 
Q 906 300 945 259 
Q 984 219 1131 197 
Q 1163 166 1164 89 
Q 1166 13 1131 -13 
Q 656 0 594 0 
Q 491 0 434 -3 
Q 378 -6 301 -9 
Q 225 -13 134 -13 
Q 103 13 103 89 
Q 103 166 134 197 
Q 275 203 342 220 
Q 409 238 518 314 
Q 628 391 756 556 
L 1294 1247 
Q 1325 1284 1288 1344 
L 728 2156 
Q 478 2516 153 2547 
Q 128 2572 128 2648 
Q 128 2725 153 2759 
Q 628 2747 703 2747 
Q 875 2747 1350 2759 
Q 1381 2728 1381 2650 
Q 1381 2572 1350 2547 
Q 1319 2541 1267 2534 
Q 1216 2528 1197 2528 
Q 1178 2528 1145 2518 
Q 1113 2509 1106 2506 
Q 1100 2503 1087 2487 
Q 1075 2472 1081 2458 
Q 1088 2444 1094 2419 
Q 1100 2394 1120 2364 
Q 1141 2334 1166 2291 
z
" transform="scale(0.015625)"/>
     </defs>
     <use xlink:href="#LinLibertine-32"/>
     <use xlink:href="#LinLibertine-37" x="46.484375"/>
     <use xlink:href="#LinLibertine-2e" x="92.96875"/>
     <use xlink:href="#LinLibertine-36" x="114.941406"/>
     <use xlink:href="#LinLibertine-78" x="161.425781"/>
    </g>
   </g>
  </g>
 </g>
 <defs>
  <clipPath id="p170a44c679">
   <rect x="41.56" y="0" width="210.44" height="447.32"/>
  </clipPath>
 </defs>
</svg>
