<?xml version="1.0" encoding="utf-8" standalone="no"?>
<!DOCTYPE svg PUBLIC "-//W3C//DTD SVG 1.1//EN"
  "http://www.w3.org/Graphics/SVG/1.1/DTD/svg11.dtd">
<svg xmlns:xlink="http://www.w3.org/1999/xlink" width="252pt" height="468pt" viewBox="0 0 252 468" xmlns="http://www.w3.org/2000/svg" version="1.1">
 <metadata>
  <rdf:RDF xmlns:dc="http://purl.org/dc/elements/1.1/" xmlns:cc="http://creativecommons.org/ns#" xmlns:rdf="http://www.w3.org/1999/02/22-rdf-syntax-ns#">
   <cc:Work>
    <dc:type rdf:resource="http://purl.org/dc/dcmitype/StillImage"/>
    <dc:date>2024-05-18T11:19:14.624387</dc:date>
    <dc:format>image/svg+xml</dc:format>
    <dc:creator>
     <cc:Agent>
      <dc:title>Matplotlib v3.5.3, https://matplotlib.org/</dc:title>
     </cc:Agent>
    </dc:creator>
   </cc:Work>
  </rdf:RDF>
 </metadata>
 <defs>
  <style type="text/css">*{stroke-linejoin: round; stroke-linecap: butt}</style>
 </defs>
 <g id="figure_1">
  <g id="patch_1">
   <path d="M 0 468 
L 252 468 
L 252 0 
L 0 0 
z
" style="fill: #ffffff"/>
  </g>
  <g id="axes_1">
   <g id="patch_2">
    <path d="M 41.56 447.32 
L 237.120813 447.32 
L 237.120813 0 
L 41.56 0 
z
" style="fill: #e6f2ff"/>
   </g>
   <g id="matplotlib.axis_1">
    <g id="xtick_1">
     <g id="line2d_1">
      <path d="M 47.502328 447.32 
L 47.502328 0 
" clip-path="url(#p88c99c0a15)" style="fill: none; stroke: #ffffff; stroke-width: 2; stroke-linecap: square"/>
     </g>
     <g id="line2d_2">
      <defs>
       <path id="m40810c338f" d="M 0 0 
L 0 3.5 
" style="stroke: #000000; stroke-width: 0.8"/>
      </defs>
      <g>
       <use xlink:href="#m40810c338f" x="47.502328" y="447.32" style="stroke: #000000; stroke-width: 0.8"/>
      </g>
     </g>
     <g id="text_1">
      <!-- 0 -->
      <g transform="translate(44.155453 464.37525)scale(0.144 -0.144)">
       <defs>
        <path id="LinLibertine-30" d="M 1484 3681 
Q 1363 3681 1255 3603 
Q 1147 3525 1040 3340 
Q 934 3156 870 2762 
Q 806 2369 806 1813 
Q 806 163 1466 159 
Q 1522 159 1586 178 
Q 1650 197 1737 251 
Q 1825 306 1904 431 
Q 1984 556 2034 744 
Q 2144 1141 2144 2059 
Q 2144 3256 1772 3572 
Q 1650 3681 1484 3681 
z
M 1459 -63 
Q 1078 -63 809 206 
Q 547 466 398 916 
Q 250 1366 250 1881 
Q 250 2791 617 3347 
Q 984 3903 1484 3903 
Q 1953 3903 2266 3488 
Q 2700 2913 2700 1941 
Q 2700 1409 2578 998 
Q 2456 588 2262 367 
Q 2069 147 1862 42 
Q 1656 -63 1459 -63 
z
" transform="scale(0.015625)"/>
       </defs>
       <use xlink:href="#LinLibertine-30"/>
      </g>
     </g>
    </g>
    <g id="xtick_2">
     <g id="line2d_3">
      <path d="M 141.109561 447.32 
L 141.109561 0 
" clip-path="url(#p88c99c0a15)" style="fill: none; stroke: #ffffff; stroke-width: 2; stroke-linecap: square"/>
     </g>
     <g id="line2d_4">
      <g>
       <use xlink:href="#m40810c338f" x="141.109561" y="447.32" style="stroke: #000000; stroke-width: 0.8"/>
      </g>
     </g>
     <g id="text_2">
      <!-- 1.5e-2 -->
      <g transform="translate(123.837436 464.37525)scale(0.144 -0.144)">
       <defs>
        <path id="LinLibertine-31" d="M 1844 781 
Q 1844 397 1942 305 
Q 2041 213 2400 197 
Q 2431 166 2431 89 
Q 2431 13 2400 -13 
Q 1759 0 1619 0 
Q 1356 0 728 -13 
Q 703 13 703 89 
Q 703 166 728 197 
Q 1100 209 1225 309 
Q 1350 409 1350 781 
L 1350 2869 
Q 1350 3241 1222 3238 
Q 1050 3238 666 3078 
Q 588 3128 569 3250 
Q 1466 3666 1825 3891 
Q 1863 3891 1863 3859 
Q 1844 3713 1844 3003 
L 1844 781 
z
" transform="scale(0.015625)"/>
        <path id="LinLibertine-2e" d="M 464 35 
Q 366 134 366 275 
Q 366 416 464 516 
Q 563 616 703 616 
Q 844 616 944 516 
Q 1044 416 1044 275 
Q 1044 134 944 35 
Q 844 -63 703 -63 
Q 563 -63 464 35 
z
" transform="scale(0.015625)"/>
        <path id="LinLibertine-35" d="M 2041 1209 
Q 2041 1709 1836 1945 
Q 1631 2181 1300 2181 
Q 897 2181 488 2028 
L 703 3872 
Q 1075 3841 1394 3841 
Q 1778 3841 2444 3909 
L 2491 3884 
L 2388 3450 
Q 1991 3413 1716 3413 
Q 1497 3413 966 3469 
L 838 2400 
Q 1100 2503 1466 2503 
Q 1984 2503 2298 2158 
Q 2613 1813 2613 1325 
Q 2613 716 2231 322 
Q 1850 -72 1253 -72 
Q 959 -72 653 76 
Q 347 225 347 409 
Q 347 506 420 576 
Q 494 647 588 647 
Q 759 647 916 441 
Q 922 428 953 387 
Q 984 347 998 326 
Q 1013 306 1044 275 
Q 1075 244 1100 228 
Q 1125 213 1164 189 
Q 1203 166 1245 159 
Q 1288 153 1338 153 
Q 1631 153 1836 458 
Q 2041 763 2041 1209 
z
" transform="scale(0.015625)"/>
        <path id="LinLibertine-65" d="M 794 1806 
L 1953 1825 
Q 2050 1825 2047 1913 
Q 2047 2278 1890 2431 
Q 1734 2584 1516 2584 
Q 1431 2584 1350 2562 
Q 1269 2541 1150 2470 
Q 1031 2400 934 2228 
Q 838 2056 794 1806 
z
M 2472 594 
Q 2581 588 2606 494 
Q 2178 -63 1516 -63 
Q 881 -63 538 347 
Q 238 694 238 1294 
Q 238 1972 644 2384 
Q 1050 2797 1516 2797 
Q 2597 2797 2597 1684 
Q 2597 1575 2478 1575 
L 775 1588 
Q 775 1050 978 709 
Q 1259 250 1678 250 
Q 1947 250 2117 326 
Q 2288 403 2472 594 
z
" transform="scale(0.015625)"/>
        <path id="LinLibertine-2d" d="M 1734 1428 
L 353 1428 
Q 256 1428 256 1550 
Q 256 1641 307 1727 
Q 359 1813 416 1813 
L 1819 1813 
Q 1909 1813 1906 1684 
Q 1906 1622 1848 1525 
Q 1791 1428 1734 1428 
z
" transform="scale(0.015625)"/>
        <path id="LinLibertine-32" d="M 391 2994 
Q 391 3313 717 3608 
Q 1044 3903 1544 3903 
Q 1978 3903 2301 3658 
Q 2625 3413 2625 2931 
Q 2625 2700 2528 2495 
Q 2431 2291 2320 2159 
Q 2209 2028 1984 1813 
L 1338 1191 
Q 863 716 863 416 
L 2003 416 
Q 2175 416 2272 550 
Q 2369 684 2450 1031 
Q 2572 1056 2638 997 
Q 2625 550 2484 -13 
Q 2191 0 1984 0 
L 863 0 
L 331 -13 
Q 331 294 476 578 
Q 622 863 1063 1313 
L 1538 1778 
Q 2063 2309 2059 2906 
Q 2059 3322 1890 3501 
Q 1722 3681 1503 3681 
Q 1184 3681 1028 3559 
Q 872 3438 872 3291 
Q 872 3259 897 3201 
Q 922 3144 922 3138 
Q 947 3047 947 3003 
Q 947 2906 842 2826 
Q 738 2747 647 2747 
Q 544 2747 467 2819 
Q 391 2891 391 2994 
z
" transform="scale(0.015625)"/>
       </defs>
       <use xlink:href="#LinLibertine-31"/>
       <use xlink:href="#LinLibertine-2e" x="46.484375"/>
       <use xlink:href="#LinLibertine-35" x="68.457031"/>
       <use xlink:href="#LinLibertine-65" x="114.941406"/>
       <use xlink:href="#LinLibertine-2d" x="159.619141"/>
       <use xlink:href="#LinLibertine-32" x="193.408203"/>
      </g>
     </g>
    </g>
    <g id="xtick_3">
     <g id="line2d_5">
      <path d="M 234.716794 447.32 
L 234.716794 0 
" clip-path="url(#p88c99c0a15)" style="fill: none; stroke: #ffffff; stroke-width: 2; stroke-linecap: square"/>
     </g>
     <g id="line2d_6">
      <g>
       <use xlink:href="#m40810c338f" x="234.716794" y="447.32" style="stroke: #000000; stroke-width: 0.8"/>
      </g>
     </g>
     <g id="text_3">
      <!-- 3.0e-2 -->
      <g transform="translate(217.444669 464.37525)scale(0.144 -0.144)">
       <defs>
        <path id="LinLibertine-33" d="M 1375 3681 
Q 1259 3681 1139 3648 
Q 1019 3616 894 3497 
Q 769 3378 769 3194 
Q 769 2863 519 2859 
Q 416 2859 358 2931 
Q 300 3003 300 3078 
Q 300 3175 361 3300 
Q 422 3425 550 3569 
Q 678 3713 931 3808 
Q 1184 3903 1509 3903 
Q 1963 3903 2209 3653 
Q 2409 3450 2409 3147 
Q 2409 2878 2261 2676 
Q 2113 2475 1734 2297 
L 1741 2284 
Q 2100 2228 2372 1984 
Q 2644 1741 2644 1275 
Q 2644 666 2220 301 
Q 1797 -63 1203 -63 
Q 884 -63 582 60 
Q 281 184 281 366 
Q 281 444 367 516 
Q 453 588 550 588 
Q 703 588 825 422 
Q 831 416 854 381 
Q 878 347 887 333 
Q 897 319 919 291 
Q 941 263 959 250 
Q 978 238 1014 214 
Q 1050 191 1087 181 
Q 1125 172 1176 165 
Q 1228 159 1288 159 
Q 1391 159 1508 204 
Q 1625 250 1762 348 
Q 1900 447 1990 665 
Q 2081 884 2081 1184 
Q 2081 2009 1241 2009 
Q 1044 2009 934 1997 
L 903 2203 
Q 1347 2266 1628 2548 
Q 1909 2831 1909 3103 
Q 1909 3300 1831 3433 
Q 1753 3566 1637 3623 
Q 1522 3681 1375 3681 
z
" transform="scale(0.015625)"/>
       </defs>
       <use xlink:href="#LinLibertine-33"/>
       <use xlink:href="#LinLibertine-2e" x="46.484375"/>
       <use xlink:href="#LinLibertine-30" x="68.457031"/>
       <use xlink:href="#LinLibertine-65" x="114.941406"/>
       <use xlink:href="#LinLibertine-2d" x="159.619141"/>
       <use xlink:href="#LinLibertine-32" x="193.408203"/>
      </g>
     </g>
    </g>
   </g>
   <g id="matplotlib.axis_2">
    <g id="ytick_1">
     <g id="line2d_7">
      <path d="M 41.56 363.155858 
L 237.120813 363.155858 
" clip-path="url(#p88c99c0a15)" style="fill: none; stroke: #ffffff; stroke-width: 2; stroke-linecap: square"/>
     </g>
     <g id="line2d_8">
      <defs>
       <path id="mae985a618e" d="M 0 0 
L -3.5 0 
" style="stroke: #000000; stroke-width: 0.8"/>
      </defs>
      <g>
       <use xlink:href="#mae985a618e" x="41.56" y="363.155858" style="stroke: #000000; stroke-width: 0.8"/>
      </g>
     </g>
     <g id="text_4">
      <!-- 6.0e-1 -->
      <g transform="translate(0.01575 368.183483)scale(0.144 -0.144)">
       <defs>
        <path id="LinLibertine-36" d="M 866 1966 
Q 813 1709 813 1466 
Q 813 709 1020 431 
Q 1228 153 1581 153 
Q 1831 153 1997 415 
Q 2163 678 2163 1178 
Q 2163 1319 2128 1462 
Q 2094 1606 2017 1759 
Q 1941 1913 1780 2013 
Q 1619 2113 1394 2113 
Q 1091 2113 866 1966 
z
M 925 2197 
Q 1228 2334 1528 2338 
Q 2138 2338 2416 2045 
Q 2694 1753 2694 1294 
Q 2694 800 2387 364 
Q 2081 -72 1509 -72 
Q 1297 -72 1106 -8 
Q 916 56 717 214 
Q 519 372 400 698 
Q 281 1025 281 1484 
Q 281 2341 878 3034 
Q 1409 3656 2278 3909 
Q 2356 3859 2356 3744 
Q 1766 3522 1420 3109 
Q 1075 2697 925 2197 
z
" transform="scale(0.015625)"/>
       </defs>
       <use xlink:href="#LinLibertine-36"/>
       <use xlink:href="#LinLibertine-2e" x="46.484375"/>
       <use xlink:href="#LinLibertine-30" x="68.457031"/>
       <use xlink:href="#LinLibertine-65" x="114.941406"/>
       <use xlink:href="#LinLibertine-2d" x="159.619141"/>
       <use xlink:href="#LinLibertine-31" x="193.408203"/>
      </g>
     </g>
    </g>
    <g id="ytick_2">
     <g id="line2d_9">
      <path d="M 41.56 210.455212 
L 237.120813 210.455212 
" clip-path="url(#p88c99c0a15)" style="fill: none; stroke: #ffffff; stroke-width: 2; stroke-linecap: square"/>
     </g>
     <g id="line2d_10">
      <g>
       <use xlink:href="#mae985a618e" x="41.56" y="210.455212" style="stroke: #000000; stroke-width: 0.8"/>
      </g>
     </g>
     <g id="text_5">
      <!-- 9.0e-1 -->
      <g transform="translate(0.01575 215.482837)scale(0.144 -0.144)">
       <defs>
        <path id="LinLibertine-39" d="M 2150 1869 
Q 2203 2125 2203 2369 
Q 2203 3125 1993 3403 
Q 1784 3681 1434 3681 
Q 1184 3681 1017 3418 
Q 850 3156 850 2656 
Q 850 2516 886 2372 
Q 922 2228 998 2073 
Q 1075 1919 1234 1820 
Q 1394 1722 1619 1722 
Q 1925 1722 2150 1869 
z
M 2091 1638 
Q 1788 1500 1484 1497 
Q 875 1497 597 1789 
Q 319 2081 319 2541 
Q 319 3034 626 3468 
Q 934 3903 1503 3903 
Q 1716 3903 1908 3839 
Q 2100 3775 2298 3619 
Q 2497 3463 2614 3136 
Q 2731 2809 2731 2350 
Q 2731 1494 2138 800 
Q 1606 178 738 -78 
Q 659 -34 659 91 
Q 1250 313 1595 725 
Q 1941 1138 2091 1638 
z
" transform="scale(0.015625)"/>
       </defs>
       <use xlink:href="#LinLibertine-39"/>
       <use xlink:href="#LinLibertine-2e" x="46.484375"/>
       <use xlink:href="#LinLibertine-30" x="68.457031"/>
       <use xlink:href="#LinLibertine-65" x="114.941406"/>
       <use xlink:href="#LinLibertine-2d" x="159.619141"/>
       <use xlink:href="#LinLibertine-31" x="193.408203"/>
      </g>
     </g>
    </g>
    <g id="ytick_3">
     <g id="line2d_11">
      <path d="M 41.56 57.754566 
L 237.120813 57.754566 
" clip-path="url(#p88c99c0a15)" style="fill: none; stroke: #ffffff; stroke-width: 2; stroke-linecap: square"/>
     </g>
     <g id="line2d_12">
      <g>
       <use xlink:href="#mae985a618e" x="41.56" y="57.754566" style="stroke: #000000; stroke-width: 0.8"/>
      </g>
     </g>
     <g id="text_6">
      <!-- 1.2e0 -->
      <g transform="translate(4.8825 62.782191)scale(0.144 -0.144)">
       <use xlink:href="#LinLibertine-31"/>
       <use xlink:href="#LinLibertine-2e" x="46.484375"/>
       <use xlink:href="#LinLibertine-32" x="68.457031"/>
       <use xlink:href="#LinLibertine-65" x="114.941406"/>
       <use xlink:href="#LinLibertine-30" x="159.619141"/>
      </g>
     </g>
    </g>
   </g>
   <g id="line2d_13">
    <path d="M 50.449128 20.332727 
L 51.182503 172.085611 
L 54.414661 283.275096 
L 57.626512 331.332534 
L 59.98192 354.376589 
L 62.013509 366.172713 
L 63.709235 372.370324 
L 64.874957 375.619284 
L 65.536199 377.421152 
L 66.176909 378.52416 
L 66.575801 379.251524 
L 67.438922 380.782602 
L 67.814724 381.354721 
L 67.930422 381.537961 
L 68.076075 381.780246 
" clip-path="url(#p88c99c0a15)" style="fill: none; stroke: #9b5c6f; stroke-width: 6; stroke-linecap: square"/>
    <defs>
     <path id="m404aedbc21" d="M 0 4 
C 1.060812 4 2.078319 3.578535 2.828427 2.828427 
C 3.578535 2.078319 4 1.060812 4 0 
C 4 -1.060812 3.578535 -2.078319 2.828427 -2.828427 
C 2.078319 -3.578535 1.060812 -4 0 -4 
C -1.060812 -4 -2.078319 -3.578535 -2.828427 -2.828427 
C -3.578535 -2.078319 -4 -1.060812 -4 0 
C -4 1.060812 -3.578535 2.078319 -2.828427 2.828427 
C -2.078319 3.578535 -1.060812 4 0 4 
z
" style="stroke: #9b5c6f"/>
    </defs>
    <g clip-path="url(#p88c99c0a15)">
     <use xlink:href="#m404aedbc21" x="50.449128" y="20.332727" style="fill: #9b5c6f; stroke: #9b5c6f"/>
     <use xlink:href="#m404aedbc21" x="51.182503" y="172.085611" style="fill: #9b5c6f; stroke: #9b5c6f"/>
     <use xlink:href="#m404aedbc21" x="54.414661" y="283.275096" style="fill: #9b5c6f; stroke: #9b5c6f"/>
     <use xlink:href="#m404aedbc21" x="57.626512" y="331.332534" style="fill: #9b5c6f; stroke: #9b5c6f"/>
     <use xlink:href="#m404aedbc21" x="59.98192" y="354.376589" style="fill: #9b5c6f; stroke: #9b5c6f"/>
     <use xlink:href="#m404aedbc21" x="62.013509" y="366.172713" style="fill: #9b5c6f; stroke: #9b5c6f"/>
     <use xlink:href="#m404aedbc21" x="63.709235" y="372.370324" style="fill: #9b5c6f; stroke: #9b5c6f"/>
     <use xlink:href="#m404aedbc21" x="64.874957" y="375.619284" style="fill: #9b5c6f; stroke: #9b5c6f"/>
     <use xlink:href="#m404aedbc21" x="65.536199" y="377.421152" style="fill: #9b5c6f; stroke: #9b5c6f"/>
     <use xlink:href="#m404aedbc21" x="66.176909" y="378.52416" style="fill: #9b5c6f; stroke: #9b5c6f"/>
     <use xlink:href="#m404aedbc21" x="66.575801" y="379.251524" style="fill: #9b5c6f; stroke: #9b5c6f"/>
     <use xlink:href="#m404aedbc21" x="67.438922" y="380.782602" style="fill: #9b5c6f; stroke: #9b5c6f"/>
     <use xlink:href="#m404aedbc21" x="67.814724" y="381.354721" style="fill: #9b5c6f; stroke: #9b5c6f"/>
     <use xlink:href="#m404aedbc21" x="67.930422" y="381.537961" style="fill: #9b5c6f; stroke: #9b5c6f"/>
     <use xlink:href="#m404aedbc21" x="68.076075" y="381.780246" style="fill: #9b5c6f; stroke: #9b5c6f"/>
    </g>
   </g>
   <g id="line2d_14">
    <path d="M 127.648841 260.279905 
L 127.637608 263.72585 
L 129.003026 274.039252 
L 133.171668 284.092553 
L 140.029958 292.819395 
L 148.374106 299.480706 
L 157.125135 304.894453 
L 165.185341 309.074888 
L 172.77564 312.473495 
L 179.375574 315.283696 
L 185.438826 317.723852 
L 190.811257 319.868279 
L 196.143749 321.644696 
L 210.903114 326.716394 
L 219.878175 329.812654 
L 225.19881 331.691381 
L 228.231685 332.703786 
" clip-path="url(#p88c99c0a15)" style="fill: none; stroke: #537b8d; stroke-width: 6; stroke-linecap: square"/>
    <defs>
     <path id="mf08d43c21e" d="M -0 4 
L 4 -4 
L -4 -4 
z
" style="stroke: #537b8d; stroke-linejoin: miter"/>
    </defs>
    <g clip-path="url(#p88c99c0a15)">
     <use xlink:href="#mf08d43c21e" x="127.648841" y="260.279905" style="fill: #537b8d; stroke: #537b8d; stroke-linejoin: miter"/>
     <use xlink:href="#mf08d43c21e" x="127.637608" y="263.72585" style="fill: #537b8d; stroke: #537b8d; stroke-linejoin: miter"/>
     <use xlink:href="#mf08d43c21e" x="129.003026" y="274.039252" style="fill: #537b8d; stroke: #537b8d; stroke-linejoin: miter"/>
     <use xlink:href="#mf08d43c21e" x="133.171668" y="284.092553" style="fill: #537b8d; stroke: #537b8d; stroke-linejoin: miter"/>
     <use xlink:href="#mf08d43c21e" x="140.029958" y="292.819395" style="fill: #537b8d; stroke: #537b8d; stroke-linejoin: miter"/>
     <use xlink:href="#mf08d43c21e" x="148.374106" y="299.480706" style="fill: #537b8d; stroke: #537b8d; stroke-linejoin: miter"/>
     <use xlink:href="#mf08d43c21e" x="157.125135" y="304.894453" style="fill: #537b8d; stroke: #537b8d; stroke-linejoin: miter"/>
     <use xlink:href="#mf08d43c21e" x="165.185341" y="309.074888" style="fill: #537b8d; stroke: #537b8d; stroke-linejoin: miter"/>
     <use xlink:href="#mf08d43c21e" x="172.77564" y="312.473495" style="fill: #537b8d; stroke: #537b8d; stroke-linejoin: miter"/>
     <use xlink:href="#mf08d43c21e" x="179.375574" y="315.283696" style="fill: #537b8d; stroke: #537b8d; stroke-linejoin: miter"/>
     <use xlink:href="#mf08d43c21e" x="185.438826" y="317.723852" style="fill: #537b8d; stroke: #537b8d; stroke-linejoin: miter"/>
     <use xlink:href="#mf08d43c21e" x="190.811257" y="319.868279" style="fill: #537b8d; stroke: #537b8d; stroke-linejoin: miter"/>
     <use xlink:href="#mf08d43c21e" x="196.143749" y="321.644696" style="fill: #537b8d; stroke: #537b8d; stroke-linejoin: miter"/>
     <use xlink:href="#mf08d43c21e" x="210.903114" y="326.716394" style="fill: #537b8d; stroke: #537b8d; stroke-linejoin: miter"/>
     <use xlink:href="#mf08d43c21e" x="219.878175" y="329.812654" style="fill: #537b8d; stroke: #537b8d; stroke-linejoin: miter"/>
     <use xlink:href="#mf08d43c21e" x="225.19881" y="331.691381" style="fill: #537b8d; stroke: #537b8d; stroke-linejoin: miter"/>
     <use xlink:href="#mf08d43c21e" x="228.231685" y="332.703786" style="fill: #537b8d; stroke: #537b8d; stroke-linejoin: miter"/>
    </g>
   </g>
   <g id="line2d_15">
    <path d="M 50.449128 67.328896 
L 51.182503 211.723645 
L 54.414661 319.869297 
L 57.626512 367.7099 
L 59.98192 390.454661 
L 62.013509 402.095031 
L 63.709235 417.856792 
L 64.874957 420.875175 
L 65.536199 422.490748 
L 66.176909 424.057456 
L 66.575801 414.89949 
L 67.438922 425.251575 
L 67.814724 426.052236 
L 67.930422 416.847441 
L 68.076075 426.987273 
" clip-path="url(#p88c99c0a15)" style="fill: none; stroke: #a2803a; stroke-width: 6; stroke-linecap: square"/>
    <defs>
     <path id="m7d30e3a1dc" d="M -4 4 
L 4 4 
L 4 -4 
L -4 -4 
z
" style="stroke: #a2803a; stroke-linejoin: miter"/>
    </defs>
    <g clip-path="url(#p88c99c0a15)">
     <use xlink:href="#m7d30e3a1dc" x="50.449128" y="67.328896" style="fill: #a2803a; stroke: #a2803a; stroke-linejoin: miter"/>
     <use xlink:href="#m7d30e3a1dc" x="51.182503" y="211.723645" style="fill: #a2803a; stroke: #a2803a; stroke-linejoin: miter"/>
     <use xlink:href="#m7d30e3a1dc" x="54.414661" y="319.869297" style="fill: #a2803a; stroke: #a2803a; stroke-linejoin: miter"/>
     <use xlink:href="#m7d30e3a1dc" x="57.626512" y="367.7099" style="fill: #a2803a; stroke: #a2803a; stroke-linejoin: miter"/>
     <use xlink:href="#m7d30e3a1dc" x="59.98192" y="390.454661" style="fill: #a2803a; stroke: #a2803a; stroke-linejoin: miter"/>
     <use xlink:href="#m7d30e3a1dc" x="62.013509" y="402.095031" style="fill: #a2803a; stroke: #a2803a; stroke-linejoin: miter"/>
     <use xlink:href="#m7d30e3a1dc" x="63.709235" y="417.856792" style="fill: #a2803a; stroke: #a2803a; stroke-linejoin: miter"/>
     <use xlink:href="#m7d30e3a1dc" x="64.874957" y="420.875175" style="fill: #a2803a; stroke: #a2803a; stroke-linejoin: miter"/>
     <use xlink:href="#m7d30e3a1dc" x="65.536199" y="422.490748" style="fill: #a2803a; stroke: #a2803a; stroke-linejoin: miter"/>
     <use xlink:href="#m7d30e3a1dc" x="66.176909" y="424.057456" style="fill: #a2803a; stroke: #a2803a; stroke-linejoin: miter"/>
     <use xlink:href="#m7d30e3a1dc" x="66.575801" y="414.89949" style="fill: #a2803a; stroke: #a2803a; stroke-linejoin: miter"/>
     <use xlink:href="#m7d30e3a1dc" x="67.438922" y="425.251575" style="fill: #a2803a; stroke: #a2803a; stroke-linejoin: miter"/>
     <use xlink:href="#m7d30e3a1dc" x="67.814724" y="426.052236" style="fill: #a2803a; stroke: #a2803a; stroke-linejoin: miter"/>
     <use xlink:href="#m7d30e3a1dc" x="67.930422" y="416.847441" style="fill: #a2803a; stroke: #a2803a; stroke-linejoin: miter"/>
     <use xlink:href="#m7d30e3a1dc" x="68.076075" y="426.987273" style="fill: #a2803a; stroke: #a2803a; stroke-linejoin: miter"/>
    </g>
   </g>
   <g id="patch_3">
    <path d="M 41.56 447.32 
L 41.56 0 
" style="fill: none; stroke: #000000; stroke-width: 0.8; stroke-linejoin: miter; stroke-linecap: square"/>
   </g>
   <g id="patch_4">
    <path d="M 237.120813 447.32 
L 237.120813 0 
" style="fill: none; stroke: #000000; stroke-width: 0.8; stroke-linejoin: miter; stroke-linecap: square"/>
   </g>
   <g id="patch_5">
    <path d="M 41.56 447.32 
L 237.120813 447.32 
" style="fill: none; stroke: #000000; stroke-width: 0.8; stroke-linejoin: miter; stroke-linecap: square"/>
   </g>
   <g id="patch_6">
    <path d="M 41.56 0 
L 237.120813 0 
" style="fill: none; stroke: #000000; stroke-width: 0.8; stroke-linejoin: miter; stroke-linecap: square"/>
   </g>
  </g>
 </g>
 <defs>
  <clipPath id="p88c99c0a15">
   <rect x="41.56" y="0" width="195.560813" height="447.32"/>
  </clipPath>
 </defs>
</svg>
