<?xml version="1.0" encoding="utf-8" standalone="no"?>
<!DOCTYPE svg PUBLIC "-//W3C//DTD SVG 1.1//EN"
  "http://www.w3.org/Graphics/SVG/1.1/DTD/svg11.dtd">
<svg xmlns:xlink="http://www.w3.org/1999/xlink" width="628.065pt" height="411.835625pt" viewBox="0 0 628.065 411.835625" xmlns="http://www.w3.org/2000/svg" version="1.1">
 <metadata>
  <rdf:RDF xmlns:dc="http://purl.org/dc/elements/1.1/" xmlns:cc="http://creativecommons.org/ns#" xmlns:rdf="http://www.w3.org/1999/02/22-rdf-syntax-ns#">
   <cc:Work>
    <dc:type rdf:resource="http://purl.org/dc/dcmitype/StillImage"/>
    <dc:date>2024-01-22T01:04:13.994738</dc:date>
    <dc:format>image/svg+xml</dc:format>
    <dc:creator>
     <cc:Agent>
      <dc:title>Matplotlib v3.5.3, https://matplotlib.org/</dc:title>
     </cc:Agent>
    </dc:creator>
   </cc:Work>
  </rdf:RDF>
 </metadata>
 <defs>
  <style type="text/css">*{stroke-linejoin: round; stroke-linecap: butt}</style>
 </defs>
 <g id="figure_1">
  <g id="patch_1">
   <path d="M 0 411.835625 
L 628.065 411.835625 
L 628.065 0 
L 0 0 
z
" style="fill: #ffffff"/>
  </g>
  <g id="axes_1">
   <g id="patch_2">
    <path d="M 55.4275 363.805625 
L 613.4275 363.805625 
L 613.4275 31.165625 
L 55.4275 31.165625 
z
" style="fill: #e6f2ff"/>
   </g>
   <g id="matplotlib.axis_1">
    <g id="xtick_1">
     <g id="line2d_1">
      <path d="M 132.393017 363.805625 
L 132.393017 31.165625 
" clip-path="url(#p00e0608045)" style="fill: none; stroke: #ffffff; stroke-width: 2; stroke-linecap: square"/>
     </g>
     <g id="line2d_2">
      <defs>
       <path id="md9bd9615a5" d="M 0 0 
L 0 3.5 
" style="stroke: #000000; stroke-width: 0.8"/>
      </defs>
      <g>
       <use xlink:href="#md9bd9615a5" x="132.393017" y="363.805625" style="stroke: #000000; stroke-width: 0.8"/>
      </g>
     </g>
     <g id="text_1">
      <!-- 5 -->
      <g transform="translate(128.674267 381.978125)scale(0.16 -0.16)">
       <defs>
        <path id="LinLibertine-35" d="M 2041 1209 
Q 2041 1709 1836 1945 
Q 1631 2181 1300 2181 
Q 897 2181 488 2028 
L 703 3872 
Q 1075 3841 1394 3841 
Q 1778 3841 2444 3909 
L 2491 3884 
L 2388 3450 
Q 1991 3413 1716 3413 
Q 1497 3413 966 3469 
L 838 2400 
Q 1100 2503 1466 2503 
Q 1984 2503 2298 2158 
Q 2613 1813 2613 1325 
Q 2613 716 2231 322 
Q 1850 -72 1253 -72 
Q 959 -72 653 76 
Q 347 225 347 409 
Q 347 506 420 576 
Q 494 647 588 647 
Q 759 647 916 441 
Q 922 428 953 387 
Q 984 347 998 326 
Q 1013 306 1044 275 
Q 1075 244 1100 228 
Q 1125 213 1164 189 
Q 1203 166 1245 159 
Q 1288 153 1338 153 
Q 1631 153 1836 458 
Q 2041 763 2041 1209 
z
" transform="scale(0.015625)"/>
       </defs>
       <use xlink:href="#LinLibertine-35"/>
      </g>
     </g>
    </g>
    <g id="xtick_2">
     <g id="line2d_3">
      <path d="M 228.599914 363.805625 
L 228.599914 31.165625 
" clip-path="url(#p00e0608045)" style="fill: none; stroke: #ffffff; stroke-width: 2; stroke-linecap: square"/>
     </g>
     <g id="line2d_4">
      <g>
       <use xlink:href="#md9bd9615a5" x="228.599914" y="363.805625" style="stroke: #000000; stroke-width: 0.8"/>
      </g>
     </g>
     <g id="text_2">
      <!-- 10 -->
      <g transform="translate(221.162414 381.978125)scale(0.16 -0.16)">
       <defs>
        <path id="LinLibertine-31" d="M 1844 781 
Q 1844 397 1942 305 
Q 2041 213 2400 197 
Q 2431 166 2431 89 
Q 2431 13 2400 -13 
Q 1759 0 1619 0 
Q 1356 0 728 -13 
Q 703 13 703 89 
Q 703 166 728 197 
Q 1100 209 1225 309 
Q 1350 409 1350 781 
L 1350 2869 
Q 1350 3241 1222 3238 
Q 1050 3238 666 3078 
Q 588 3128 569 3250 
Q 1466 3666 1825 3891 
Q 1863 3891 1863 3859 
Q 1844 3713 1844 3003 
L 1844 781 
z
" transform="scale(0.015625)"/>
        <path id="LinLibertine-30" d="M 1484 3681 
Q 1363 3681 1255 3603 
Q 1147 3525 1040 3340 
Q 934 3156 870 2762 
Q 806 2369 806 1813 
Q 806 163 1466 159 
Q 1522 159 1586 178 
Q 1650 197 1737 251 
Q 1825 306 1904 431 
Q 1984 556 2034 744 
Q 2144 1141 2144 2059 
Q 2144 3256 1772 3572 
Q 1650 3681 1484 3681 
z
M 1459 -63 
Q 1078 -63 809 206 
Q 547 466 398 916 
Q 250 1366 250 1881 
Q 250 2791 617 3347 
Q 984 3903 1484 3903 
Q 1953 3903 2266 3488 
Q 2700 2913 2700 1941 
Q 2700 1409 2578 998 
Q 2456 588 2262 367 
Q 2069 147 1862 42 
Q 1656 -63 1459 -63 
z
" transform="scale(0.015625)"/>
       </defs>
       <use xlink:href="#LinLibertine-31"/>
       <use xlink:href="#LinLibertine-30" x="46.484375"/>
      </g>
     </g>
    </g>
    <g id="xtick_3">
     <g id="line2d_5">
      <path d="M 324.80681 363.805625 
L 324.80681 31.165625 
" clip-path="url(#p00e0608045)" style="fill: none; stroke: #ffffff; stroke-width: 2; stroke-linecap: square"/>
     </g>
     <g id="line2d_6">
      <g>
       <use xlink:href="#md9bd9615a5" x="324.80681" y="363.805625" style="stroke: #000000; stroke-width: 0.8"/>
      </g>
     </g>
     <g id="text_3">
      <!-- 15 -->
      <g transform="translate(317.36931 381.978125)scale(0.16 -0.16)">
       <use xlink:href="#LinLibertine-31"/>
       <use xlink:href="#LinLibertine-35" x="46.484375"/>
      </g>
     </g>
    </g>
    <g id="xtick_4">
     <g id="line2d_7">
      <path d="M 421.013707 363.805625 
L 421.013707 31.165625 
" clip-path="url(#p00e0608045)" style="fill: none; stroke: #ffffff; stroke-width: 2; stroke-linecap: square"/>
     </g>
     <g id="line2d_8">
      <g>
       <use xlink:href="#md9bd9615a5" x="421.013707" y="363.805625" style="stroke: #000000; stroke-width: 0.8"/>
      </g>
     </g>
     <g id="text_4">
      <!-- 20 -->
      <g transform="translate(413.576207 381.978125)scale(0.16 -0.16)">
       <defs>
        <path id="LinLibertine-32" d="M 391 2994 
Q 391 3313 717 3608 
Q 1044 3903 1544 3903 
Q 1978 3903 2301 3658 
Q 2625 3413 2625 2931 
Q 2625 2700 2528 2495 
Q 2431 2291 2320 2159 
Q 2209 2028 1984 1813 
L 1338 1191 
Q 863 716 863 416 
L 2003 416 
Q 2175 416 2272 550 
Q 2369 684 2450 1031 
Q 2572 1056 2638 997 
Q 2625 550 2484 -13 
Q 2191 0 1984 0 
L 863 0 
L 331 -13 
Q 331 294 476 578 
Q 622 863 1063 1313 
L 1538 1778 
Q 2063 2309 2059 2906 
Q 2059 3322 1890 3501 
Q 1722 3681 1503 3681 
Q 1184 3681 1028 3559 
Q 872 3438 872 3291 
Q 872 3259 897 3201 
Q 922 3144 922 3138 
Q 947 3047 947 3003 
Q 947 2906 842 2826 
Q 738 2747 647 2747 
Q 544 2747 467 2819 
Q 391 2891 391 2994 
z
" transform="scale(0.015625)"/>
       </defs>
       <use xlink:href="#LinLibertine-32"/>
       <use xlink:href="#LinLibertine-30" x="46.484375"/>
      </g>
     </g>
    </g>
    <g id="xtick_5">
     <g id="line2d_9">
      <path d="M 517.220603 363.805625 
L 517.220603 31.165625 
" clip-path="url(#p00e0608045)" style="fill: none; stroke: #ffffff; stroke-width: 2; stroke-linecap: square"/>
     </g>
     <g id="line2d_10">
      <g>
       <use xlink:href="#md9bd9615a5" x="517.220603" y="363.805625" style="stroke: #000000; stroke-width: 0.8"/>
      </g>
     </g>
     <g id="text_5">
      <!-- 25 -->
      <g transform="translate(509.783103 381.978125)scale(0.16 -0.16)">
       <use xlink:href="#LinLibertine-32"/>
       <use xlink:href="#LinLibertine-35" x="46.484375"/>
      </g>
     </g>
    </g>
    <g id="xtick_6">
     <g id="line2d_11">
      <path d="M 613.4275 363.805625 
L 613.4275 31.165625 
" clip-path="url(#p00e0608045)" style="fill: none; stroke: #ffffff; stroke-width: 2; stroke-linecap: square"/>
     </g>
     <g id="line2d_12">
      <g>
       <use xlink:href="#md9bd9615a5" x="613.4275" y="363.805625" style="stroke: #000000; stroke-width: 0.8"/>
      </g>
     </g>
     <g id="text_6">
      <!-- 30 -->
      <g transform="translate(605.99 381.978125)scale(0.16 -0.16)">
       <defs>
        <path id="LinLibertine-33" d="M 1375 3681 
Q 1259 3681 1139 3648 
Q 1019 3616 894 3497 
Q 769 3378 769 3194 
Q 769 2863 519 2859 
Q 416 2859 358 2931 
Q 300 3003 300 3078 
Q 300 3175 361 3300 
Q 422 3425 550 3569 
Q 678 3713 931 3808 
Q 1184 3903 1509 3903 
Q 1963 3903 2209 3653 
Q 2409 3450 2409 3147 
Q 2409 2878 2261 2676 
Q 2113 2475 1734 2297 
L 1741 2284 
Q 2100 2228 2372 1984 
Q 2644 1741 2644 1275 
Q 2644 666 2220 301 
Q 1797 -63 1203 -63 
Q 884 -63 582 60 
Q 281 184 281 366 
Q 281 444 367 516 
Q 453 588 550 588 
Q 703 588 825 422 
Q 831 416 854 381 
Q 878 347 887 333 
Q 897 319 919 291 
Q 941 263 959 250 
Q 978 238 1014 214 
Q 1050 191 1087 181 
Q 1125 172 1176 165 
Q 1228 159 1288 159 
Q 1391 159 1508 204 
Q 1625 250 1762 348 
Q 1900 447 1990 665 
Q 2081 884 2081 1184 
Q 2081 2009 1241 2009 
Q 1044 2009 934 1997 
L 903 2203 
Q 1347 2266 1628 2548 
Q 1909 2831 1909 3103 
Q 1909 3300 1831 3433 
Q 1753 3566 1637 3623 
Q 1522 3681 1375 3681 
z
" transform="scale(0.015625)"/>
       </defs>
       <use xlink:href="#LinLibertine-33"/>
       <use xlink:href="#LinLibertine-30" x="46.484375"/>
      </g>
     </g>
    </g>
    <g id="text_7">
     <!-- Number of Samples -->
     <g transform="translate(270.4825 400.893125)scale(0.16 -0.16)">
      <defs>
       <path id="LinLibertine-4e" d="M 3559 3278 
Q 3559 3503 3539 3620 
Q 3519 3738 3442 3805 
Q 3366 3872 3283 3890 
Q 3200 3909 3003 3928 
Q 2972 3953 2970 4031 
Q 2969 4109 3003 4141 
Q 3644 4128 3713 4128 
Q 3803 4128 4428 4141 
Q 4453 4109 4453 4032 
Q 4453 3956 4428 3928 
Q 4069 3891 3970 3789 
Q 3872 3688 3872 3278 
L 3872 134 
Q 3872 -63 3725 -63 
Q 3584 -63 3469 91 
L 1234 2913 
Q 1069 3125 1017 3123 
Q 966 3122 966 2809 
L 966 850 
Q 966 625 986 508 
Q 1006 391 1082 323 
Q 1159 256 1242 237 
Q 1325 219 1522 197 
Q 1547 166 1548 89 
Q 1550 13 1522 -13 
Q 881 0 813 0 
Q 722 0 97 -13 
Q 66 13 64 89 
Q 63 166 97 197 
Q 456 234 554 337 
Q 653 441 653 850 
L 653 3519 
Q 622 3659 481 3787 
Q 341 3916 147 3928 
Q 116 3953 116 4031 
Q 116 4109 147 4141 
L 1013 4128 
L 3206 1300 
Q 3250 1244 3301 1172 
Q 3353 1100 3379 1069 
Q 3406 1038 3434 1005 
Q 3463 972 3481 959 
Q 3500 947 3513 947 
Q 3556 947 3559 1141 
L 3559 3278 
z
" transform="scale(0.015625)"/>
       <path id="LinLibertine-75" d="M 1388 -63 
Q 947 -63 755 182 
Q 563 428 563 806 
L 563 2034 
Q 563 2334 483 2431 
Q 403 2528 166 2547 
Q 141 2572 141 2648 
Q 141 2725 166 2759 
Q 641 2747 819 2747 
Q 978 2747 1044 2759 
Q 1094 2759 1094 2719 
Q 1069 2250 1069 2059 
L 1069 897 
Q 1069 519 1225 378 
Q 1381 238 1581 238 
Q 1869 238 2222 544 
Q 2325 634 2322 794 
L 2322 2028 
Q 2322 2334 2245 2434 
Q 2169 2534 1925 2547 
Q 1894 2572 1894 2648 
Q 1894 2725 1925 2759 
Q 2400 2747 2578 2747 
Q 2738 2747 2803 2759 
Q 2853 2759 2853 2719 
Q 2828 2250 2828 2059 
L 2828 831 
Q 2828 581 2915 486 
Q 3003 391 3297 366 
Q 3328 334 3328 276 
Q 3328 219 3297 191 
Q 2759 128 2522 -63 
Q 2450 -81 2400 -63 
Q 2328 169 2328 313 
Q 2328 384 2253 319 
Q 1784 -63 1388 -63 
z
" transform="scale(0.015625)"/>
       <path id="LinLibertine-6d" d="M 1106 2291 
Q 1106 2213 1150 2275 
Q 1159 2284 1166 2291 
Q 1659 2809 2138 2809 
Q 2381 2809 2556 2676 
Q 2731 2544 2778 2341 
Q 2794 2278 2847 2338 
Q 3006 2506 3197 2615 
Q 3388 2725 3559 2767 
Q 3731 2809 3903 2809 
Q 4294 2809 4428 2546 
Q 4563 2284 4563 1791 
L 4563 781 
Q 4563 397 4630 308 
Q 4697 219 4972 197 
Q 4997 172 4997 95 
Q 4997 19 4972 -13 
Q 4422 0 4313 0 
Q 4197 0 3659 -13 
Q 3634 19 3634 95 
Q 3634 172 3659 197 
Q 3922 216 3989 309 
Q 4056 403 4056 781 
L 4056 1906 
Q 4056 2213 3961 2345 
Q 3866 2478 3675 2478 
Q 3216 2478 2828 2053 
Q 2834 1975 2834 1797 
L 2834 781 
Q 2834 397 2898 308 
Q 2963 219 3213 197 
Q 3238 172 3238 92 
Q 3238 13 3213 -13 
Q 2663 0 2584 0 
Q 2469 0 1931 -13 
Q 1906 13 1906 89 
Q 1906 166 1931 197 
Q 2200 216 2264 306 
Q 2328 397 2328 781 
L 2328 1894 
Q 2328 2475 1906 2478 
Q 1600 2478 1216 2100 
Q 1106 1984 1106 1831 
L 1106 781 
Q 1106 513 1139 400 
Q 1172 288 1240 252 
Q 1309 216 1491 197 
Q 1519 169 1519 92 
Q 1519 16 1491 -13 
Q 953 0 856 0 
Q 691 0 166 -13 
Q 141 13 141 89 
Q 141 166 166 197 
Q 447 216 525 309 
Q 603 403 603 781 
L 603 2028 
Q 603 2297 528 2367 
Q 453 2438 184 2463 
Q 147 2572 172 2644 
Q 672 2706 978 2828 
Q 1028 2828 1056 2778 
Q 1106 2663 1106 2291 
z
" transform="scale(0.015625)"/>
       <path id="LinLibertine-62" d="M 1113 2322 
Q 1003 2225 1006 2053 
L 1006 453 
Q 1250 153 1466 153 
Q 1906 153 2137 508 
Q 2369 863 2369 1434 
Q 2369 1894 2161 2211 
Q 1953 2528 1656 2528 
Q 1344 2528 1113 2322 
z
M 1069 2522 
Q 1388 2809 1784 2809 
Q 2225 2809 2572 2457 
Q 2919 2106 2919 1550 
Q 2919 834 2476 385 
Q 2034 -63 1503 -63 
Q 1128 -63 941 94 
Q 888 138 852 136 
Q 816 134 766 78 
Q 744 53 711 18 
Q 678 -16 662 -30 
Q 647 -44 616 -78 
Q 525 -78 475 0 
Q 500 122 500 453 
L 500 3578 
Q 500 3784 490 3886 
Q 481 3988 411 4036 
Q 341 4084 302 4087 
Q 263 4091 91 4103 
Q 19 4175 50 4294 
Q 619 4338 947 4469 
Q 1031 4469 1031 4403 
Q 1006 4147 1006 3731 
L 1006 2553 
Q 1006 2466 1069 2522 
z
" transform="scale(0.015625)"/>
       <path id="LinLibertine-65" d="M 794 1806 
L 1953 1825 
Q 2050 1825 2047 1913 
Q 2047 2278 1890 2431 
Q 1734 2584 1516 2584 
Q 1431 2584 1350 2562 
Q 1269 2541 1150 2470 
Q 1031 2400 934 2228 
Q 838 2056 794 1806 
z
M 2472 594 
Q 2581 588 2606 494 
Q 2178 -63 1516 -63 
Q 881 -63 538 347 
Q 238 694 238 1294 
Q 238 1972 644 2384 
Q 1050 2797 1516 2797 
Q 2597 2797 2597 1684 
Q 2597 1575 2478 1575 
L 775 1588 
Q 775 1050 978 709 
Q 1259 250 1678 250 
Q 1947 250 2117 326 
Q 2288 403 2472 594 
z
" transform="scale(0.015625)"/>
       <path id="LinLibertine-72" d="M 1147 2291 
Q 1147 2259 1156 2246 
Q 1166 2234 1197 2278 
Q 1325 2497 1514 2653 
Q 1703 2809 1906 2809 
Q 2091 2809 2191 2711 
Q 2291 2613 2291 2503 
Q 2291 2381 2198 2281 
Q 2106 2181 1991 2181 
Q 1947 2181 1901 2204 
Q 1856 2228 1834 2250 
Q 1813 2272 1777 2314 
Q 1741 2356 1728 2369 
Q 1684 2413 1594 2413 
Q 1516 2413 1300 2100 
Q 1147 1869 1147 1672 
L 1147 781 
Q 1147 397 1233 311 
Q 1319 225 1672 197 
Q 1703 166 1703 89 
Q 1703 13 1672 -13 
Q 1122 0 897 0 
Q 706 0 166 -13 
Q 141 13 141 89 
Q 141 166 166 197 
Q 478 216 559 306 
Q 641 397 641 781 
L 641 2028 
Q 641 2297 567 2367 
Q 494 2438 225 2463 
Q 188 2572 213 2644 
Q 713 2706 1019 2828 
Q 1069 2828 1094 2778 
Q 1147 2663 1147 2291 
z
" transform="scale(0.015625)"/>
       <path id="LinLibertine-20" transform="scale(0.015625)"/>
       <path id="LinLibertine-6f" d="M 263 1313 
Q 263 1947 616 2363 
Q 997 2809 1619 2809 
Q 2078 2809 2395 2582 
Q 2713 2356 2838 2042 
Q 2963 1728 2963 1369 
Q 2963 700 2547 294 
Q 2181 -66 1606 -63 
Q 966 -63 614 353 
Q 263 769 263 1313 
z
M 1522 2584 
Q 813 2584 813 1459 
Q 813 1253 861 1042 
Q 909 831 1004 626 
Q 1100 422 1279 290 
Q 1459 159 1697 159 
Q 1978 159 2195 390 
Q 2413 622 2413 1166 
Q 2413 1850 2175 2217 
Q 1938 2584 1522 2584 
z
" transform="scale(0.015625)"/>
       <path id="LinLibertine-66" d="M 1119 781 
Q 1119 397 1203 308 
Q 1288 219 1625 197 
Q 1650 166 1650 89 
Q 1650 13 1625 -13 
Q 1075 0 872 0 
Q 738 0 197 -13 
Q 166 13 166 89 
Q 166 166 197 197 
Q 472 216 544 306 
Q 616 397 616 781 
L 616 2497 
L 172 2497 
Q 141 2497 141 2534 
L 141 2619 
Q 141 2747 288 2747 
L 616 2747 
L 616 3003 
Q 616 3700 958 4084 
Q 1300 4469 1747 4469 
Q 2131 4469 2322 4331 
Q 2528 4178 2528 4006 
Q 2528 3909 2439 3826 
Q 2350 3744 2266 3744 
Q 2100 3744 2009 3950 
Q 1947 4116 1859 4183 
Q 1772 4250 1625 4250 
Q 1119 4250 1119 3109 
L 1119 2747 
L 1813 2747 
Q 1863 2747 1863 2706 
L 1863 2578 
Q 1863 2494 1716 2497 
L 1119 2497 
L 1119 781 
z
" transform="scale(0.015625)"/>
       <path id="LinLibertine-53" d="M 2525 4038 
Q 2613 3597 2641 3213 
Q 2594 3178 2431 3175 
Q 2400 3275 2370 3354 
Q 2341 3434 2297 3521 
Q 2253 3609 2201 3675 
Q 2150 3741 2078 3803 
Q 2006 3866 1922 3906 
Q 1838 3947 1727 3970 
Q 1616 3994 1484 3994 
Q 1206 3994 995 3772 
Q 784 3550 784 3278 
Q 784 3128 853 2995 
Q 922 2863 1015 2773 
Q 1109 2684 1261 2596 
Q 1413 2509 1516 2467 
Q 1619 2425 1772 2365 
Q 1925 2306 1966 2291 
Q 2153 2209 2298 2117 
Q 2444 2025 2573 1892 
Q 2703 1759 2772 1578 
Q 2841 1397 2841 1178 
Q 2841 875 2678 597 
Q 2516 319 2241 147 
Q 1903 -63 1450 -63 
Q 1147 -63 814 10 
Q 481 84 300 84 
Q 203 488 172 1056 
Q 272 1109 381 1075 
Q 581 166 1503 166 
Q 1888 166 2095 367 
Q 2303 569 2303 953 
Q 2303 1128 2248 1273 
Q 2194 1419 2123 1508 
Q 2053 1597 1923 1680 
Q 1794 1763 1708 1800 
Q 1622 1838 1464 1898 
Q 1306 1959 1250 1984 
Q 972 2106 784 2239 
Q 597 2372 461 2597 
Q 325 2822 325 3103 
Q 325 3597 683 3905 
Q 1041 4213 1544 4213 
Q 1909 4213 2173 4131 
Q 2438 4050 2525 4038 
z
" transform="scale(0.015625)"/>
       <path id="LinLibertine-61" d="M 1875 1491 
L 1369 1356 
Q 759 1203 763 653 
Q 763 481 880 339 
Q 997 197 1222 197 
Q 1447 197 1784 475 
Q 1875 538 1875 641 
L 1875 1491 
z
M 1875 306 
L 1863 306 
L 1734 206 
Q 1522 41 1387 -11 
Q 1253 -63 1038 -63 
Q 672 -63 451 103 
Q 231 269 231 628 
Q 231 947 522 1190 
Q 813 1434 1288 1556 
L 1838 1691 
Q 1875 1703 1875 1766 
Q 1875 2597 1356 2597 
Q 1144 2597 984 2530 
Q 825 2463 825 2328 
Q 825 2238 838 2203 
Q 856 2166 856 2088 
Q 856 2016 779 1945 
Q 703 1875 575 1875 
Q 350 1875 353 2100 
Q 353 2363 686 2586 
Q 1019 2809 1409 2809 
Q 2375 2809 2375 1728 
L 2375 775 
Q 2375 591 2384 494 
Q 2394 397 2455 314 
Q 2516 231 2631 231 
Q 2709 231 2765 281 
Q 2822 331 2828 331 
Q 2847 331 2880 293 
Q 2913 256 2913 225 
Q 2913 206 2845 139 
Q 2778 72 2643 4 
Q 2509 -63 2369 -63 
Q 1984 -66 1875 306 
z
" transform="scale(0.015625)"/>
       <path id="LinLibertine-70" d="M 1119 2119 
Q 1016 1991 1019 1838 
L 1019 672 
Q 1019 553 1031 492 
Q 1044 431 1072 392 
Q 1100 353 1172 288 
Q 1250 219 1383 186 
Q 1516 153 1625 153 
Q 1881 153 2067 259 
Q 2253 366 2348 547 
Q 2444 728 2486 920 
Q 2528 1113 2528 1331 
Q 2528 1856 2308 2186 
Q 2088 2516 1766 2516 
Q 1631 2516 1439 2397 
Q 1247 2278 1119 2119 
z
M 1019 2356 
Q 1019 2325 1037 2317 
Q 1056 2309 1069 2328 
Q 1478 2809 1947 2809 
Q 2428 2809 2753 2418 
Q 3078 2028 3078 1503 
Q 3078 753 2606 294 
Q 2228 -66 1663 -63 
Q 1350 -63 1106 34 
Q 1056 59 1037 53 
Q 1019 47 1019 -13 
L 1019 -703 
Q 1019 -1088 1105 -1178 
Q 1191 -1269 1544 -1288 
Q 1575 -1319 1575 -1395 
Q 1575 -1472 1544 -1497 
Q 994 -1484 769 -1484 
Q 591 -1484 50 -1497 
Q 25 -1472 25 -1395 
Q 25 -1319 50 -1288 
Q 350 -1275 431 -1181 
Q 513 -1088 513 -703 
L 513 2028 
Q 513 2297 439 2367 
Q 366 2438 97 2463 
Q 59 2572 84 2644 
Q 584 2706 891 2828 
Q 941 2828 966 2778 
Q 1019 2663 1019 2356 
z
" transform="scale(0.015625)"/>
       <path id="LinLibertine-6c" d="M 609 781 
L 609 3578 
Q 609 3784 598 3886 
Q 588 3988 517 4036 
Q 447 4084 409 4087 
Q 372 4091 197 4103 
Q 125 4175 159 4294 
Q 728 4338 1056 4469 
Q 1141 4469 1141 4403 
Q 1116 4147 1113 3731 
L 1113 781 
Q 1113 397 1194 305 
Q 1275 213 1575 197 
Q 1600 166 1600 89 
Q 1600 13 1575 -13 
Q 1025 0 863 0 
Q 684 0 147 -13 
Q 116 13 116 89 
Q 116 166 147 197 
Q 447 209 528 303 
Q 609 397 609 781 
z
" transform="scale(0.015625)"/>
       <path id="LinLibertine-73" d="M 306 884 
Q 338 916 406 916 
Q 475 916 506 891 
Q 616 438 756 300 
Q 897 147 1209 147 
Q 1416 147 1584 262 
Q 1753 378 1753 594 
Q 1753 806 1622 934 
Q 1491 1063 1100 1222 
Q 716 1381 556 1567 
Q 397 1753 397 2094 
Q 397 2394 665 2601 
Q 934 2809 1300 2809 
Q 1447 2809 1600 2787 
Q 1753 2766 1923 2730 
Q 2094 2694 2138 2688 
Q 2138 2603 2119 2370 
Q 2100 2138 2100 2009 
Q 2069 1978 1997 1978 
Q 1925 1978 1894 2003 
Q 1863 2194 1789 2322 
Q 1716 2450 1616 2504 
Q 1516 2559 1442 2578 
Q 1369 2597 1300 2597 
Q 1128 2597 989 2486 
Q 850 2375 850 2188 
Q 850 2084 884 2003 
Q 919 1922 961 1870 
Q 1003 1819 1103 1764 
Q 1203 1709 1272 1681 
Q 1341 1653 1491 1594 
Q 2241 1309 2241 744 
Q 2241 519 2134 351 
Q 2028 184 1862 98 
Q 1697 13 1536 -25 
Q 1375 -63 1222 -63 
Q 909 -63 641 6 
Q 597 19 513 19 
Q 450 19 353 0 
Q 350 334 306 884 
z
" transform="scale(0.015625)"/>
      </defs>
      <use xlink:href="#LinLibertine-4e"/>
      <use xlink:href="#LinLibertine-75" x="69.873047"/>
      <use xlink:href="#LinLibertine-6d" x="122.949219"/>
      <use xlink:href="#LinLibertine-62" x="201.904297"/>
      <use xlink:href="#LinLibertine-65" x="251.171875"/>
      <use xlink:href="#LinLibertine-72" x="295.849609"/>
      <use xlink:href="#LinLibertine-20" x="333.007812"/>
      <use xlink:href="#LinLibertine-6f" x="358.007812"/>
      <use xlink:href="#LinLibertine-66" x="408.398438"/>
      <use xlink:href="#LinLibertine-20" x="439.355469"/>
      <use xlink:href="#LinLibertine-53" x="464.355469"/>
      <use xlink:href="#LinLibertine-61" x="512.841797"/>
      <use xlink:href="#LinLibertine-6d" x="558.496094"/>
      <use xlink:href="#LinLibertine-70" x="637.451172"/>
      <use xlink:href="#LinLibertine-6c" x="689.306641"/>
      <use xlink:href="#LinLibertine-65" x="715.673828"/>
      <use xlink:href="#LinLibertine-73" x="760.351562"/>
     </g>
    </g>
   </g>
   <g id="matplotlib.axis_2">
    <g id="ytick_1">
     <g id="line2d_13">
      <path d="M 55.4275 363.805625 
L 613.4275 363.805625 
" clip-path="url(#p00e0608045)" style="fill: none; stroke: #ffffff; stroke-width: 2; stroke-linecap: square"/>
     </g>
     <g id="line2d_14">
      <defs>
       <path id="m77b6c1670e" d="M 0 0 
L -3.5 0 
" style="stroke: #000000; stroke-width: 0.8"/>
      </defs>
      <g>
       <use xlink:href="#m77b6c1670e" x="55.4275" y="363.805625" style="stroke: #000000; stroke-width: 0.8"/>
      </g>
     </g>
     <g id="text_8">
      <!-- 0 -->
      <g transform="translate(40.99 369.391875)scale(0.16 -0.16)">
       <use xlink:href="#LinLibertine-30"/>
      </g>
     </g>
    </g>
    <g id="ytick_2">
     <g id="line2d_15">
      <path d="M 55.4275 308.365625 
L 613.4275 308.365625 
" clip-path="url(#p00e0608045)" style="fill: none; stroke: #ffffff; stroke-width: 2; stroke-linecap: square"/>
     </g>
     <g id="line2d_16">
      <g>
       <use xlink:href="#m77b6c1670e" x="55.4275" y="308.365625" style="stroke: #000000; stroke-width: 0.8"/>
      </g>
     </g>
     <g id="text_9">
      <!-- 20 -->
      <g transform="translate(33.5525 313.951875)scale(0.16 -0.16)">
       <use xlink:href="#LinLibertine-32"/>
       <use xlink:href="#LinLibertine-30" x="46.484375"/>
      </g>
     </g>
    </g>
    <g id="ytick_3">
     <g id="line2d_17">
      <path d="M 55.4275 252.925625 
L 613.4275 252.925625 
" clip-path="url(#p00e0608045)" style="fill: none; stroke: #ffffff; stroke-width: 2; stroke-linecap: square"/>
     </g>
     <g id="line2d_18">
      <g>
       <use xlink:href="#m77b6c1670e" x="55.4275" y="252.925625" style="stroke: #000000; stroke-width: 0.8"/>
      </g>
     </g>
     <g id="text_10">
      <!-- 40 -->
      <g transform="translate(33.5525 258.511875)scale(0.16 -0.16)">
       <defs>
        <path id="LinLibertine-34" d="M 1734 3244 
Q 1247 2578 513 1403 
L 1734 1403 
L 1734 3244 
z
M 2753 1403 
Q 2850 1403 2847 1300 
Q 2847 1244 2786 1172 
Q 2725 1100 2663 1100 
L 2222 1100 
L 2222 513 
Q 2222 409 2237 348 
Q 2253 288 2320 259 
Q 2388 231 2425 225 
Q 2463 219 2603 203 
Q 2647 197 2669 197 
Q 2700 166 2700 89 
Q 2700 13 2669 -13 
Q 2259 0 1972 0 
Q 1625 0 1216 -13 
Q 1191 13 1191 89 
Q 1191 166 1216 197 
Q 1559 222 1644 291 
Q 1734 363 1734 513 
L 1734 1100 
L 428 1100 
Q 231 1100 178 1369 
Q 1169 2925 1913 3834 
Q 1969 3906 2016 3903 
L 2222 3903 
L 2234 3891 
Q 2222 3834 2222 3272 
L 2222 1403 
L 2753 1403 
z
" transform="scale(0.015625)"/>
       </defs>
       <use xlink:href="#LinLibertine-34"/>
       <use xlink:href="#LinLibertine-30" x="46.484375"/>
      </g>
     </g>
    </g>
    <g id="ytick_4">
     <g id="line2d_19">
      <path d="M 55.4275 197.485625 
L 613.4275 197.485625 
" clip-path="url(#p00e0608045)" style="fill: none; stroke: #ffffff; stroke-width: 2; stroke-linecap: square"/>
     </g>
     <g id="line2d_20">
      <g>
       <use xlink:href="#m77b6c1670e" x="55.4275" y="197.485625" style="stroke: #000000; stroke-width: 0.8"/>
      </g>
     </g>
     <g id="text_11">
      <!-- 60 -->
      <g transform="translate(33.5525 203.071875)scale(0.16 -0.16)">
       <defs>
        <path id="LinLibertine-36" d="M 866 1966 
Q 813 1709 813 1466 
Q 813 709 1020 431 
Q 1228 153 1581 153 
Q 1831 153 1997 415 
Q 2163 678 2163 1178 
Q 2163 1319 2128 1462 
Q 2094 1606 2017 1759 
Q 1941 1913 1780 2013 
Q 1619 2113 1394 2113 
Q 1091 2113 866 1966 
z
M 925 2197 
Q 1228 2334 1528 2338 
Q 2138 2338 2416 2045 
Q 2694 1753 2694 1294 
Q 2694 800 2387 364 
Q 2081 -72 1509 -72 
Q 1297 -72 1106 -8 
Q 916 56 717 214 
Q 519 372 400 698 
Q 281 1025 281 1484 
Q 281 2341 878 3034 
Q 1409 3656 2278 3909 
Q 2356 3859 2356 3744 
Q 1766 3522 1420 3109 
Q 1075 2697 925 2197 
z
" transform="scale(0.015625)"/>
       </defs>
       <use xlink:href="#LinLibertine-36"/>
       <use xlink:href="#LinLibertine-30" x="46.484375"/>
      </g>
     </g>
    </g>
    <g id="ytick_5">
     <g id="line2d_21">
      <path d="M 55.4275 142.045625 
L 613.4275 142.045625 
" clip-path="url(#p00e0608045)" style="fill: none; stroke: #ffffff; stroke-width: 2; stroke-linecap: square"/>
     </g>
     <g id="line2d_22">
      <g>
       <use xlink:href="#m77b6c1670e" x="55.4275" y="142.045625" style="stroke: #000000; stroke-width: 0.8"/>
      </g>
     </g>
     <g id="text_12">
      <!-- 80 -->
      <g transform="translate(33.5525 147.631875)scale(0.16 -0.16)">
       <defs>
        <path id="LinLibertine-38" d="M 1497 3681 
Q 1222 3681 1065 3526 
Q 909 3372 909 3144 
Q 909 2966 995 2808 
Q 1081 2650 1356 2472 
L 1556 2350 
Q 2069 2728 2069 3109 
Q 2069 3353 1930 3517 
Q 1791 3681 1497 3681 
z
M 2516 3103 
Q 2516 2828 2269 2595 
Q 2022 2363 1728 2216 
L 2181 1941 
Q 2681 1641 2681 1038 
Q 2681 628 2348 282 
Q 2016 -63 1434 -63 
Q 916 -63 605 195 
Q 294 453 294 934 
Q 294 1375 666 1703 
Q 888 1897 1181 2053 
L 1019 2156 
Q 456 2509 453 3022 
Q 453 3400 751 3651 
Q 1050 3903 1528 3903 
Q 1988 3903 2252 3679 
Q 2516 3456 2516 3103 
z
M 1447 159 
Q 1741 159 1978 323 
Q 2216 488 2216 909 
Q 2216 1422 1656 1759 
L 1356 1941 
Q 997 1703 859 1425 
Q 722 1147 722 934 
Q 722 544 950 351 
Q 1178 159 1447 159 
z
" transform="scale(0.015625)"/>
       </defs>
       <use xlink:href="#LinLibertine-38"/>
       <use xlink:href="#LinLibertine-30" x="46.484375"/>
      </g>
     </g>
    </g>
    <g id="ytick_6">
     <g id="line2d_23">
      <path d="M 55.4275 86.605625 
L 613.4275 86.605625 
" clip-path="url(#p00e0608045)" style="fill: none; stroke: #ffffff; stroke-width: 2; stroke-linecap: square"/>
     </g>
     <g id="line2d_24">
      <g>
       <use xlink:href="#m77b6c1670e" x="55.4275" y="86.605625" style="stroke: #000000; stroke-width: 0.8"/>
      </g>
     </g>
     <g id="text_13">
      <!-- 100 -->
      <g transform="translate(26.115 92.191875)scale(0.16 -0.16)">
       <use xlink:href="#LinLibertine-31"/>
       <use xlink:href="#LinLibertine-30" x="46.484375"/>
       <use xlink:href="#LinLibertine-30" x="92.96875"/>
      </g>
     </g>
    </g>
    <g id="ytick_7">
     <g id="line2d_25">
      <path d="M 55.4275 31.165625 
L 613.4275 31.165625 
" clip-path="url(#p00e0608045)" style="fill: none; stroke: #ffffff; stroke-width: 2; stroke-linecap: square"/>
     </g>
     <g id="line2d_26">
      <g>
       <use xlink:href="#m77b6c1670e" x="55.4275" y="31.165625" style="stroke: #000000; stroke-width: 0.8"/>
      </g>
     </g>
     <g id="text_14">
      <!-- 120 -->
      <g transform="translate(26.115 36.751875)scale(0.16 -0.16)">
       <use xlink:href="#LinLibertine-31"/>
       <use xlink:href="#LinLibertine-32" x="46.484375"/>
       <use xlink:href="#LinLibertine-30" x="92.96875"/>
      </g>
     </g>
    </g>
    <g id="text_15">
     <!-- Time (ms) -->
     <g transform="translate(18.3725 230.515625)rotate(-90)scale(0.16 -0.16)">
      <defs>
       <path id="LinLibertine-54" d="M 2241 781 
Q 2241 397 2348 305 
Q 2456 213 2859 197 
Q 2891 166 2892 89 
Q 2894 13 2859 -13 
Q 2219 0 1972 0 
Q 1703 0 1075 -13 
Q 1050 13 1050 89 
Q 1050 166 1075 197 
Q 1478 209 1587 303 
Q 1697 397 1697 781 
L 1697 3244 
Q 1697 3556 1630 3717 
Q 1563 3878 1394 3878 
L 1081 3878 
Q 750 3878 537 3725 
Q 325 3572 238 3200 
Q 103 3200 19 3231 
Q 147 3781 178 4159 
Q 178 4178 206 4178 
Q 853 4128 1697 4128 
L 2247 4128 
Q 3097 4128 3681 4178 
Q 3700 4178 3700 4159 
Q 3706 3738 3781 3250 
Q 3709 3219 3566 3219 
Q 3488 3578 3270 3728 
Q 3053 3878 2675 3878 
L 2534 3878 
Q 2369 3878 2305 3715 
Q 2241 3553 2241 3225 
L 2241 781 
z
" transform="scale(0.015625)"/>
       <path id="LinLibertine-69" d="M 575 3834 
Q 575 3950 684 4045 
Q 794 4141 909 4141 
Q 1031 4141 1123 4034 
Q 1216 3928 1216 3809 
Q 1216 3700 1114 3600 
Q 1013 3500 884 3500 
Q 769 3500 672 3606 
Q 575 3713 575 3834 
z
M 1159 781 
Q 1159 397 1236 308 
Q 1313 219 1619 197 
Q 1650 166 1650 89 
Q 1650 13 1619 -13 
Q 1069 0 909 0 
Q 731 0 191 -13 
Q 166 13 166 89 
Q 166 166 191 197 
Q 497 222 575 309 
Q 653 397 653 781 
L 653 2028 
Q 653 2297 579 2367 
Q 506 2438 238 2463 
Q 200 2572 225 2644 
Q 819 2722 1100 2828 
Q 1184 2828 1184 2784 
Q 1184 2769 1181 2739 
Q 1178 2709 1175 2620 
Q 1172 2531 1167 2448 
Q 1163 2366 1161 2256 
Q 1159 2147 1159 2056 
L 1159 781 
z
" transform="scale(0.015625)"/>
       <path id="LinLibertine-28" d="M 281 1613 
Q 281 2469 659 3237 
Q 1038 4006 1638 4525 
Q 1734 4519 1772 4409 
Q 813 3328 813 1613 
Q 813 -91 1772 -1197 
Q 1741 -1288 1638 -1306 
Q 1259 -981 987 -582 
Q 716 -184 584 131 
Q 453 447 376 797 
Q 300 1147 290 1303 
Q 281 1459 281 1613 
z
" transform="scale(0.015625)"/>
       <path id="LinLibertine-29" d="M 1625 1613 
Q 1625 756 1248 -12 
Q 872 -781 269 -1300 
Q 172 -1294 134 -1184 
Q 1094 -103 1094 1613 
Q 1094 3316 134 4422 
Q 166 4513 269 4531 
Q 647 4206 919 3809 
Q 1191 3413 1322 3095 
Q 1453 2778 1529 2429 
Q 1606 2081 1615 1923 
Q 1625 1766 1625 1613 
z
" transform="scale(0.015625)"/>
      </defs>
      <use xlink:href="#LinLibertine-54"/>
      <use xlink:href="#LinLibertine-69" x="59.667969"/>
      <use xlink:href="#LinLibertine-6d" x="86.767578"/>
      <use xlink:href="#LinLibertine-65" x="165.722656"/>
      <use xlink:href="#LinLibertine-20" x="210.400391"/>
      <use xlink:href="#LinLibertine-28" x="235.400391"/>
      <use xlink:href="#LinLibertine-6d" x="265.185547"/>
      <use xlink:href="#LinLibertine-73" x="344.140625"/>
      <use xlink:href="#LinLibertine-29" x="383.105469"/>
     </g>
    </g>
   </g>
   <g id="line2d_27">
    <path d="M 55.4275 253.480025 
L 74.668879 139.828025 
L 93.910259 26.176025 
L 98.511183 -1 
" clip-path="url(#p00e0608045)" style="fill: none; stroke: #9b5c6f; stroke-width: 2.5; stroke-linecap: square"/>
    <defs>
     <path id="md88cecd769" d="M 0 3 
C 0.795609 3 1.55874 2.683901 2.12132 2.12132 
C 2.683901 1.55874 3 0.795609 3 0 
C 3 -0.795609 2.683901 -1.55874 2.12132 -2.12132 
C 1.55874 -2.683901 0.795609 -3 0 -3 
C -0.795609 -3 -1.55874 -2.683901 -2.12132 -2.12132 
C -2.683901 -1.55874 -3 -0.795609 -3 0 
C -3 0.795609 -2.683901 1.55874 -2.12132 2.12132 
C -1.55874 2.683901 -0.795609 3 0 3 
z
" style="stroke: #9b5c6f"/>
    </defs>
    <g clip-path="url(#p00e0608045)">
     <use xlink:href="#md88cecd769" x="55.4275" y="253.480025" style="fill: #9b5c6f; stroke: #9b5c6f"/>
     <use xlink:href="#md88cecd769" x="74.668879" y="139.828025" style="fill: #9b5c6f; stroke: #9b5c6f"/>
     <use xlink:href="#md88cecd769" x="93.910259" y="26.176025" style="fill: #9b5c6f; stroke: #9b5c6f"/>
     <use xlink:href="#md88cecd769" x="98.511183" y="-1" style="fill: #9b5c6f; stroke: #9b5c6f"/>
    </g>
   </g>
   <g id="line2d_28">
    <path d="M 55.4275 273.715625 
L 74.668879 251.401025 
L 93.910259 228.947825 
L 113.151638 207.187625 
L 132.393017 185.233385 
L 151.634397 162.087185 
" clip-path="url(#p00e0608045)" style="fill: none; stroke: #d1483e; stroke-width: 2.5; stroke-linecap: square"/>
    <defs>
     <path id="mad9cf590bb" d="M 0 1.5 
C 0.397805 1.5 0.77937 1.341951 1.06066 1.06066 
C 1.341951 0.77937 1.5 0.397805 1.5 0 
C 1.5 -0.397805 1.341951 -0.77937 1.06066 -1.06066 
C 0.77937 -1.341951 0.397805 -1.5 0 -1.5 
C -0.397805 -1.5 -0.77937 -1.341951 -1.06066 -1.06066 
C -1.341951 -0.77937 -1.5 -0.397805 -1.5 0 
C -1.5 0.397805 -1.341951 0.77937 -1.06066 1.06066 
C -0.77937 1.341951 -0.397805 1.5 0 1.5 
z
" style="stroke: #d1483e"/>
    </defs>
    <g clip-path="url(#p00e0608045)">
     <use xlink:href="#mad9cf590bb" x="55.4275" y="273.715625" style="fill: #d1483e; stroke: #d1483e"/>
     <use xlink:href="#mad9cf590bb" x="74.668879" y="251.401025" style="fill: #d1483e; stroke: #d1483e"/>
     <use xlink:href="#mad9cf590bb" x="93.910259" y="228.947825" style="fill: #d1483e; stroke: #d1483e"/>
     <use xlink:href="#mad9cf590bb" x="113.151638" y="207.187625" style="fill: #d1483e; stroke: #d1483e"/>
     <use xlink:href="#mad9cf590bb" x="132.393017" y="185.233385" style="fill: #d1483e; stroke: #d1483e"/>
     <use xlink:href="#mad9cf590bb" x="151.634397" y="162.087185" style="fill: #d1483e; stroke: #d1483e"/>
    </g>
   </g>
   <g id="line2d_29">
    <path d="M 151.634397 162.087185 
L 170.875776 139.467665 
L 190.117155 116.903585 
L 209.358534 94.006865 
L 228.599914 71.193305 
L 247.841293 48.795545 
L 267.082672 26.591825 
L 286.324052 4.526705 
L 290.918388 -1 
" clip-path="url(#p00e0608045)" style="fill: none; stroke: #d1483e; stroke-opacity: 0.3; stroke-width: 2.5; stroke-linecap: square"/>
    <defs>
     <path id="m3d297ff60a" d="M 0 1.5 
C 0.397805 1.5 0.77937 1.341951 1.06066 1.06066 
C 1.341951 0.77937 1.5 0.397805 1.5 0 
C 1.5 -0.397805 1.341951 -0.77937 1.06066 -1.06066 
C 0.77937 -1.341951 0.397805 -1.5 0 -1.5 
C -0.397805 -1.5 -0.77937 -1.341951 -1.06066 -1.06066 
C -1.341951 -0.77937 -1.5 -0.397805 -1.5 0 
C -1.5 0.397805 -1.341951 0.77937 -1.06066 1.06066 
C -0.77937 1.341951 -0.397805 1.5 0 1.5 
z
" style="stroke: #d1483e; stroke-opacity: 0.3"/>
    </defs>
    <g clip-path="url(#p00e0608045)">
     <use xlink:href="#m3d297ff60a" x="151.634397" y="162.087185" style="fill: #d1483e; fill-opacity: 0.3; stroke: #d1483e; stroke-opacity: 0.3"/>
     <use xlink:href="#m3d297ff60a" x="170.875776" y="139.467665" style="fill: #d1483e; fill-opacity: 0.3; stroke: #d1483e; stroke-opacity: 0.3"/>
     <use xlink:href="#m3d297ff60a" x="190.117155" y="116.903585" style="fill: #d1483e; fill-opacity: 0.3; stroke: #d1483e; stroke-opacity: 0.3"/>
     <use xlink:href="#m3d297ff60a" x="209.358534" y="94.006865" style="fill: #d1483e; fill-opacity: 0.3; stroke: #d1483e; stroke-opacity: 0.3"/>
     <use xlink:href="#m3d297ff60a" x="228.599914" y="71.193305" style="fill: #d1483e; fill-opacity: 0.3; stroke: #d1483e; stroke-opacity: 0.3"/>
     <use xlink:href="#m3d297ff60a" x="247.841293" y="48.795545" style="fill: #d1483e; fill-opacity: 0.3; stroke: #d1483e; stroke-opacity: 0.3"/>
     <use xlink:href="#m3d297ff60a" x="267.082672" y="26.591825" style="fill: #d1483e; fill-opacity: 0.3; stroke: #d1483e; stroke-opacity: 0.3"/>
     <use xlink:href="#m3d297ff60a" x="286.324052" y="4.526705" style="fill: #d1483e; fill-opacity: 0.3; stroke: #d1483e; stroke-opacity: 0.3"/>
     <use xlink:href="#m3d297ff60a" x="290.918388" y="-1" style="fill: #d1483e; fill-opacity: 0.3; stroke: #d1483e; stroke-opacity: 0.3"/>
    </g>
   </g>
   <g id="line2d_30">
    <path d="M 55.4275 288.407225 
L 74.668879 279.814025 
L 93.910259 271.498025 
L 113.151638 263.182025 
L 132.393017 252.094025 
L 151.634397 241.006025 
" clip-path="url(#p00e0608045)" style="fill: none; stroke: #537b8d; stroke-width: 2.5; stroke-linecap: square"/>
    <defs>
     <path id="mcbd48d6e60" d="M 0 1.5 
C 0.397805 1.5 0.77937 1.341951 1.06066 1.06066 
C 1.341951 0.77937 1.5 0.397805 1.5 0 
C 1.5 -0.397805 1.341951 -0.77937 1.06066 -1.06066 
C 0.77937 -1.341951 0.397805 -1.5 0 -1.5 
C -0.397805 -1.5 -0.77937 -1.341951 -1.06066 -1.06066 
C -1.341951 -0.77937 -1.5 -0.397805 -1.5 0 
C -1.5 0.397805 -1.341951 0.77937 -1.06066 1.06066 
C -0.77937 1.341951 -0.397805 1.5 0 1.5 
z
" style="stroke: #537b8d"/>
    </defs>
    <g clip-path="url(#p00e0608045)">
     <use xlink:href="#mcbd48d6e60" x="55.4275" y="288.407225" style="fill: #537b8d; stroke: #537b8d"/>
     <use xlink:href="#mcbd48d6e60" x="74.668879" y="279.814025" style="fill: #537b8d; stroke: #537b8d"/>
     <use xlink:href="#mcbd48d6e60" x="93.910259" y="271.498025" style="fill: #537b8d; stroke: #537b8d"/>
     <use xlink:href="#mcbd48d6e60" x="113.151638" y="263.182025" style="fill: #537b8d; stroke: #537b8d"/>
     <use xlink:href="#mcbd48d6e60" x="132.393017" y="252.094025" style="fill: #537b8d; stroke: #537b8d"/>
     <use xlink:href="#mcbd48d6e60" x="151.634397" y="241.006025" style="fill: #537b8d; stroke: #537b8d"/>
    </g>
   </g>
   <g id="line2d_31">
    <path d="M 151.634397 241.006025 
L 170.875776 229.918025 
L 190.117155 218.830025 
L 209.358534 207.742025 
L 228.599914 196.654025 
L 247.841293 185.566025 
L 267.082672 174.478025 
L 286.324052 163.390025 
L 305.565431 152.302025 
L 324.80681 141.214025 
L 344.04819 130.126025 
L 363.289569 119.038025 
L 382.530948 107.950025 
L 401.772328 96.862025 
L 421.013707 85.774025 
L 440.255086 74.686025 
L 459.496466 63.598025 
L 478.737845 52.510025 
L 497.979224 41.422025 
L 517.220603 30.334025 
L 536.461983 19.246025 
L 555.703362 8.158025 
L 571.595591 -1 
" clip-path="url(#p00e0608045)" style="fill: none; stroke: #537b8d; stroke-opacity: 0.3; stroke-width: 2.5; stroke-linecap: square"/>
    <defs>
     <path id="me5c773121e" d="M 0 1.5 
C 0.397805 1.5 0.77937 1.341951 1.06066 1.06066 
C 1.341951 0.77937 1.5 0.397805 1.5 0 
C 1.5 -0.397805 1.341951 -0.77937 1.06066 -1.06066 
C 0.77937 -1.341951 0.397805 -1.5 0 -1.5 
C -0.397805 -1.5 -0.77937 -1.341951 -1.06066 -1.06066 
C -1.341951 -0.77937 -1.5 -0.397805 -1.5 0 
C -1.5 0.397805 -1.341951 0.77937 -1.06066 1.06066 
C -0.77937 1.341951 -0.397805 1.5 0 1.5 
z
" style="stroke: #537b8d; stroke-opacity: 0.3"/>
    </defs>
    <g clip-path="url(#p00e0608045)">
     <use xlink:href="#me5c773121e" x="151.634397" y="241.006025" style="fill: #537b8d; fill-opacity: 0.3; stroke: #537b8d; stroke-opacity: 0.3"/>
     <use xlink:href="#me5c773121e" x="170.875776" y="229.918025" style="fill: #537b8d; fill-opacity: 0.3; stroke: #537b8d; stroke-opacity: 0.3"/>
     <use xlink:href="#me5c773121e" x="190.117155" y="218.830025" style="fill: #537b8d; fill-opacity: 0.3; stroke: #537b8d; stroke-opacity: 0.3"/>
     <use xlink:href="#me5c773121e" x="209.358534" y="207.742025" style="fill: #537b8d; fill-opacity: 0.3; stroke: #537b8d; stroke-opacity: 0.3"/>
     <use xlink:href="#me5c773121e" x="228.599914" y="196.654025" style="fill: #537b8d; fill-opacity: 0.3; stroke: #537b8d; stroke-opacity: 0.3"/>
     <use xlink:href="#me5c773121e" x="247.841293" y="185.566025" style="fill: #537b8d; fill-opacity: 0.3; stroke: #537b8d; stroke-opacity: 0.3"/>
     <use xlink:href="#me5c773121e" x="267.082672" y="174.478025" style="fill: #537b8d; fill-opacity: 0.3; stroke: #537b8d; stroke-opacity: 0.3"/>
     <use xlink:href="#me5c773121e" x="286.324052" y="163.390025" style="fill: #537b8d; fill-opacity: 0.3; stroke: #537b8d; stroke-opacity: 0.3"/>
     <use xlink:href="#me5c773121e" x="305.565431" y="152.302025" style="fill: #537b8d; fill-opacity: 0.3; stroke: #537b8d; stroke-opacity: 0.3"/>
     <use xlink:href="#me5c773121e" x="324.80681" y="141.214025" style="fill: #537b8d; fill-opacity: 0.3; stroke: #537b8d; stroke-opacity: 0.3"/>
     <use xlink:href="#me5c773121e" x="344.04819" y="130.126025" style="fill: #537b8d; fill-opacity: 0.3; stroke: #537b8d; stroke-opacity: 0.3"/>
     <use xlink:href="#me5c773121e" x="363.289569" y="119.038025" style="fill: #537b8d; fill-opacity: 0.3; stroke: #537b8d; stroke-opacity: 0.3"/>
     <use xlink:href="#me5c773121e" x="382.530948" y="107.950025" style="fill: #537b8d; fill-opacity: 0.3; stroke: #537b8d; stroke-opacity: 0.3"/>
     <use xlink:href="#me5c773121e" x="401.772328" y="96.862025" style="fill: #537b8d; fill-opacity: 0.3; stroke: #537b8d; stroke-opacity: 0.3"/>
     <use xlink:href="#me5c773121e" x="421.013707" y="85.774025" style="fill: #537b8d; fill-opacity: 0.3; stroke: #537b8d; stroke-opacity: 0.3"/>
     <use xlink:href="#me5c773121e" x="440.255086" y="74.686025" style="fill: #537b8d; fill-opacity: 0.3; stroke: #537b8d; stroke-opacity: 0.3"/>
     <use xlink:href="#me5c773121e" x="459.496466" y="63.598025" style="fill: #537b8d; fill-opacity: 0.3; stroke: #537b8d; stroke-opacity: 0.3"/>
     <use xlink:href="#me5c773121e" x="478.737845" y="52.510025" style="fill: #537b8d; fill-opacity: 0.3; stroke: #537b8d; stroke-opacity: 0.3"/>
     <use xlink:href="#me5c773121e" x="497.979224" y="41.422025" style="fill: #537b8d; fill-opacity: 0.3; stroke: #537b8d; stroke-opacity: 0.3"/>
     <use xlink:href="#me5c773121e" x="517.220603" y="30.334025" style="fill: #537b8d; fill-opacity: 0.3; stroke: #537b8d; stroke-opacity: 0.3"/>
     <use xlink:href="#me5c773121e" x="536.461983" y="19.246025" style="fill: #537b8d; fill-opacity: 0.3; stroke: #537b8d; stroke-opacity: 0.3"/>
     <use xlink:href="#me5c773121e" x="555.703362" y="8.158025" style="fill: #537b8d; fill-opacity: 0.3; stroke: #537b8d; stroke-opacity: 0.3"/>
     <use xlink:href="#me5c773121e" x="571.595591" y="-1" style="fill: #537b8d; fill-opacity: 0.3; stroke: #537b8d; stroke-opacity: 0.3"/>
    </g>
   </g>
   <g id="line2d_32">
    <path d="M 55.4275 290.070425 
L 74.668879 283.417625 
L 93.910259 277.042025 
L 113.151638 271.498025 
L 132.393017 265.399625 
L 151.634397 259.301225 
L 170.875776 252.925625 
L 190.117155 246.550025 
L 209.358534 240.174425 
L 228.599914 233.798825 
L 247.841293 227.423225 
L 267.082672 221.047625 
L 286.324052 214.672025 
L 305.565431 208.296425 
L 324.80681 201.920825 
L 344.04819 195.545225 
L 363.289569 189.169625 
L 382.530948 182.794025 
L 401.772328 176.418425 
L 421.013707 170.042825 
L 440.255086 163.667225 
L 459.496466 157.291625 
L 478.737845 150.916025 
L 497.979224 144.540425 
L 517.220603 138.164825 
L 536.461983 131.789225 
L 555.703362 125.413625 
L 574.944741 119.038025 
L 594.186121 112.662425 
L 613.4275 106.286825 
" clip-path="url(#p00e0608045)" style="fill: none; stroke: #776d8a; stroke-width: 2.5; stroke-linecap: square"/>
    <defs>
     <path id="m908487257e" d="M 0 -3 
L -2.85317 -0.927051 
L -1.763356 2.427051 
L 1.763356 2.427051 
L 2.85317 -0.927051 
z
" style="stroke: #776d8a; stroke-linejoin: miter"/>
    </defs>
    <g clip-path="url(#p00e0608045)">
     <use xlink:href="#m908487257e" x="55.4275" y="290.070425" style="fill: #776d8a; stroke: #776d8a; stroke-linejoin: miter"/>
     <use xlink:href="#m908487257e" x="74.668879" y="283.417625" style="fill: #776d8a; stroke: #776d8a; stroke-linejoin: miter"/>
     <use xlink:href="#m908487257e" x="93.910259" y="277.042025" style="fill: #776d8a; stroke: #776d8a; stroke-linejoin: miter"/>
     <use xlink:href="#m908487257e" x="113.151638" y="271.498025" style="fill: #776d8a; stroke: #776d8a; stroke-linejoin: miter"/>
     <use xlink:href="#m908487257e" x="132.393017" y="265.399625" style="fill: #776d8a; stroke: #776d8a; stroke-linejoin: miter"/>
     <use xlink:href="#m908487257e" x="151.634397" y="259.301225" style="fill: #776d8a; stroke: #776d8a; stroke-linejoin: miter"/>
     <use xlink:href="#m908487257e" x="170.875776" y="252.925625" style="fill: #776d8a; stroke: #776d8a; stroke-linejoin: miter"/>
     <use xlink:href="#m908487257e" x="190.117155" y="246.550025" style="fill: #776d8a; stroke: #776d8a; stroke-linejoin: miter"/>
     <use xlink:href="#m908487257e" x="209.358534" y="240.174425" style="fill: #776d8a; stroke: #776d8a; stroke-linejoin: miter"/>
     <use xlink:href="#m908487257e" x="228.599914" y="233.798825" style="fill: #776d8a; stroke: #776d8a; stroke-linejoin: miter"/>
     <use xlink:href="#m908487257e" x="247.841293" y="227.423225" style="fill: #776d8a; stroke: #776d8a; stroke-linejoin: miter"/>
     <use xlink:href="#m908487257e" x="267.082672" y="221.047625" style="fill: #776d8a; stroke: #776d8a; stroke-linejoin: miter"/>
     <use xlink:href="#m908487257e" x="286.324052" y="214.672025" style="fill: #776d8a; stroke: #776d8a; stroke-linejoin: miter"/>
     <use xlink:href="#m908487257e" x="305.565431" y="208.296425" style="fill: #776d8a; stroke: #776d8a; stroke-linejoin: miter"/>
     <use xlink:href="#m908487257e" x="324.80681" y="201.920825" style="fill: #776d8a; stroke: #776d8a; stroke-linejoin: miter"/>
     <use xlink:href="#m908487257e" x="344.04819" y="195.545225" style="fill: #776d8a; stroke: #776d8a; stroke-linejoin: miter"/>
     <use xlink:href="#m908487257e" x="363.289569" y="189.169625" style="fill: #776d8a; stroke: #776d8a; stroke-linejoin: miter"/>
     <use xlink:href="#m908487257e" x="382.530948" y="182.794025" style="fill: #776d8a; stroke: #776d8a; stroke-linejoin: miter"/>
     <use xlink:href="#m908487257e" x="401.772328" y="176.418425" style="fill: #776d8a; stroke: #776d8a; stroke-linejoin: miter"/>
     <use xlink:href="#m908487257e" x="421.013707" y="170.042825" style="fill: #776d8a; stroke: #776d8a; stroke-linejoin: miter"/>
     <use xlink:href="#m908487257e" x="440.255086" y="163.667225" style="fill: #776d8a; stroke: #776d8a; stroke-linejoin: miter"/>
     <use xlink:href="#m908487257e" x="459.496466" y="157.291625" style="fill: #776d8a; stroke: #776d8a; stroke-linejoin: miter"/>
     <use xlink:href="#m908487257e" x="478.737845" y="150.916025" style="fill: #776d8a; stroke: #776d8a; stroke-linejoin: miter"/>
     <use xlink:href="#m908487257e" x="497.979224" y="144.540425" style="fill: #776d8a; stroke: #776d8a; stroke-linejoin: miter"/>
     <use xlink:href="#m908487257e" x="517.220603" y="138.164825" style="fill: #776d8a; stroke: #776d8a; stroke-linejoin: miter"/>
     <use xlink:href="#m908487257e" x="536.461983" y="131.789225" style="fill: #776d8a; stroke: #776d8a; stroke-linejoin: miter"/>
     <use xlink:href="#m908487257e" x="555.703362" y="125.413625" style="fill: #776d8a; stroke: #776d8a; stroke-linejoin: miter"/>
     <use xlink:href="#m908487257e" x="574.944741" y="119.038025" style="fill: #776d8a; stroke: #776d8a; stroke-linejoin: miter"/>
     <use xlink:href="#m908487257e" x="594.186121" y="112.662425" style="fill: #776d8a; stroke: #776d8a; stroke-linejoin: miter"/>
     <use xlink:href="#m908487257e" x="613.4275" y="106.286825" style="fill: #776d8a; stroke: #776d8a; stroke-linejoin: miter"/>
    </g>
   </g>
   <g id="line2d_33"/>
   <g id="line2d_34">
    <path d="M 55.4275 293.674025 
L 74.668879 289.516025 
L 93.910259 285.635225 
L 113.151638 282.031625 
L 132.393017 277.596425 
L 151.634397 273.992825 
L 170.875776 270.666425 
L 190.117155 266.231225 
L 209.358534 263.459225 
L 228.599914 259.024025 
L 247.841293 255.143225 
L 267.082672 251.262425 
L 286.324052 247.381625 
L 305.565431 244.055225 
L 324.80681 239.620025 
L 344.04819 235.462025 
L 363.289569 231.858425 
L 382.530948 227.977625 
L 401.772328 224.096825 
L 421.013707 219.938825 
L 440.255086 215.226425 
L 459.496466 211.207025 
L 478.737845 206.965865 
L 497.979224 202.724705 
L 517.220603 198.483545 
L 536.461983 194.242385 
L 555.703362 190.001225 
L 574.944741 185.760065 
L 594.186121 181.518905 
L 613.4275 177.277745 
" clip-path="url(#p00e0608045)" style="fill: none; stroke: #a2803a; stroke-width: 2.5; stroke-linecap: square"/>
    <defs>
     <path id="m40389ac27a" d="M -0 3 
L 3 -3 
L -3 -3 
z
" style="stroke: #a2803a; stroke-linejoin: miter"/>
    </defs>
    <g clip-path="url(#p00e0608045)">
     <use xlink:href="#m40389ac27a" x="55.4275" y="293.674025" style="fill: #a2803a; stroke: #a2803a; stroke-linejoin: miter"/>
     <use xlink:href="#m40389ac27a" x="74.668879" y="289.516025" style="fill: #a2803a; stroke: #a2803a; stroke-linejoin: miter"/>
     <use xlink:href="#m40389ac27a" x="93.910259" y="285.635225" style="fill: #a2803a; stroke: #a2803a; stroke-linejoin: miter"/>
     <use xlink:href="#m40389ac27a" x="113.151638" y="282.031625" style="fill: #a2803a; stroke: #a2803a; stroke-linejoin: miter"/>
     <use xlink:href="#m40389ac27a" x="132.393017" y="277.596425" style="fill: #a2803a; stroke: #a2803a; stroke-linejoin: miter"/>
     <use xlink:href="#m40389ac27a" x="151.634397" y="273.992825" style="fill: #a2803a; stroke: #a2803a; stroke-linejoin: miter"/>
     <use xlink:href="#m40389ac27a" x="170.875776" y="270.666425" style="fill: #a2803a; stroke: #a2803a; stroke-linejoin: miter"/>
     <use xlink:href="#m40389ac27a" x="190.117155" y="266.231225" style="fill: #a2803a; stroke: #a2803a; stroke-linejoin: miter"/>
     <use xlink:href="#m40389ac27a" x="209.358534" y="263.459225" style="fill: #a2803a; stroke: #a2803a; stroke-linejoin: miter"/>
     <use xlink:href="#m40389ac27a" x="228.599914" y="259.024025" style="fill: #a2803a; stroke: #a2803a; stroke-linejoin: miter"/>
     <use xlink:href="#m40389ac27a" x="247.841293" y="255.143225" style="fill: #a2803a; stroke: #a2803a; stroke-linejoin: miter"/>
     <use xlink:href="#m40389ac27a" x="267.082672" y="251.262425" style="fill: #a2803a; stroke: #a2803a; stroke-linejoin: miter"/>
     <use xlink:href="#m40389ac27a" x="286.324052" y="247.381625" style="fill: #a2803a; stroke: #a2803a; stroke-linejoin: miter"/>
     <use xlink:href="#m40389ac27a" x="305.565431" y="244.055225" style="fill: #a2803a; stroke: #a2803a; stroke-linejoin: miter"/>
     <use xlink:href="#m40389ac27a" x="324.80681" y="239.620025" style="fill: #a2803a; stroke: #a2803a; stroke-linejoin: miter"/>
     <use xlink:href="#m40389ac27a" x="344.04819" y="235.462025" style="fill: #a2803a; stroke: #a2803a; stroke-linejoin: miter"/>
     <use xlink:href="#m40389ac27a" x="363.289569" y="231.858425" style="fill: #a2803a; stroke: #a2803a; stroke-linejoin: miter"/>
     <use xlink:href="#m40389ac27a" x="382.530948" y="227.977625" style="fill: #a2803a; stroke: #a2803a; stroke-linejoin: miter"/>
     <use xlink:href="#m40389ac27a" x="401.772328" y="224.096825" style="fill: #a2803a; stroke: #a2803a; stroke-linejoin: miter"/>
     <use xlink:href="#m40389ac27a" x="421.013707" y="219.938825" style="fill: #a2803a; stroke: #a2803a; stroke-linejoin: miter"/>
     <use xlink:href="#m40389ac27a" x="440.255086" y="215.226425" style="fill: #a2803a; stroke: #a2803a; stroke-linejoin: miter"/>
     <use xlink:href="#m40389ac27a" x="459.496466" y="211.207025" style="fill: #a2803a; stroke: #a2803a; stroke-linejoin: miter"/>
     <use xlink:href="#m40389ac27a" x="478.737845" y="206.965865" style="fill: #a2803a; stroke: #a2803a; stroke-linejoin: miter"/>
     <use xlink:href="#m40389ac27a" x="497.979224" y="202.724705" style="fill: #a2803a; stroke: #a2803a; stroke-linejoin: miter"/>
     <use xlink:href="#m40389ac27a" x="517.220603" y="198.483545" style="fill: #a2803a; stroke: #a2803a; stroke-linejoin: miter"/>
     <use xlink:href="#m40389ac27a" x="536.461983" y="194.242385" style="fill: #a2803a; stroke: #a2803a; stroke-linejoin: miter"/>
     <use xlink:href="#m40389ac27a" x="555.703362" y="190.001225" style="fill: #a2803a; stroke: #a2803a; stroke-linejoin: miter"/>
     <use xlink:href="#m40389ac27a" x="574.944741" y="185.760065" style="fill: #a2803a; stroke: #a2803a; stroke-linejoin: miter"/>
     <use xlink:href="#m40389ac27a" x="594.186121" y="181.518905" style="fill: #a2803a; stroke: #a2803a; stroke-linejoin: miter"/>
     <use xlink:href="#m40389ac27a" x="613.4275" y="177.277745" style="fill: #a2803a; stroke: #a2803a; stroke-linejoin: miter"/>
    </g>
   </g>
   <g id="line2d_35"/>
   <g id="line2d_36">
    <path d="M 55.4275 293.119625 
L 74.668879 289.516025 
L 93.910259 285.635225 
L 113.151638 282.308825 
L 132.393017 278.428025 
L 151.634397 275.101625 
L 170.875776 271.498025 
L 190.117155 268.171625 
L 209.358534 265.122425 
L 228.599914 261.518825 
L 247.841293 257.360825 
L 267.082672 254.034425 
L 286.324052 250.430825 
L 305.565431 247.658825 
L 324.80681 243.778025 
L 344.04819 240.451625 
L 363.289569 236.848025 
L 382.530948 233.521625 
L 401.772328 229.640825 
L 421.013707 226.591625 
L 440.255086 221.602025 
L 459.496466 219.384425 
L 478.737845 216.335225 
L 497.979224 213.286025 
L 517.220603 209.405225 
L 536.461983 205.704605 
L 555.703362 202.245149 
L 574.944741 198.784584 
L 594.186121 195.324297 
L 613.4275 192.218825 
" clip-path="url(#p00e0608045)" style="fill: none; stroke: #31a354; stroke-width: 2.5; stroke-linecap: square"/>
    <defs>
     <path id="m8fd4d0c82c" d="M 0 -3 
L -0.673542 -0.927051 
L -2.85317 -0.927051 
L -1.089814 0.354102 
L -1.763356 2.427051 
L -0 1.145898 
L 1.763356 2.427051 
L 1.089814 0.354102 
L 2.85317 -0.927051 
L 0.673542 -0.927051 
z
" style="stroke: #31a354; stroke-linejoin: bevel"/>
    </defs>
    <g clip-path="url(#p00e0608045)">
     <use xlink:href="#m8fd4d0c82c" x="55.4275" y="293.119625" style="fill: #31a354; stroke: #31a354; stroke-linejoin: bevel"/>
     <use xlink:href="#m8fd4d0c82c" x="74.668879" y="289.516025" style="fill: #31a354; stroke: #31a354; stroke-linejoin: bevel"/>
     <use xlink:href="#m8fd4d0c82c" x="93.910259" y="285.635225" style="fill: #31a354; stroke: #31a354; stroke-linejoin: bevel"/>
     <use xlink:href="#m8fd4d0c82c" x="113.151638" y="282.308825" style="fill: #31a354; stroke: #31a354; stroke-linejoin: bevel"/>
     <use xlink:href="#m8fd4d0c82c" x="132.393017" y="278.428025" style="fill: #31a354; stroke: #31a354; stroke-linejoin: bevel"/>
     <use xlink:href="#m8fd4d0c82c" x="151.634397" y="275.101625" style="fill: #31a354; stroke: #31a354; stroke-linejoin: bevel"/>
     <use xlink:href="#m8fd4d0c82c" x="170.875776" y="271.498025" style="fill: #31a354; stroke: #31a354; stroke-linejoin: bevel"/>
     <use xlink:href="#m8fd4d0c82c" x="190.117155" y="268.171625" style="fill: #31a354; stroke: #31a354; stroke-linejoin: bevel"/>
     <use xlink:href="#m8fd4d0c82c" x="209.358534" y="265.122425" style="fill: #31a354; stroke: #31a354; stroke-linejoin: bevel"/>
     <use xlink:href="#m8fd4d0c82c" x="228.599914" y="261.518825" style="fill: #31a354; stroke: #31a354; stroke-linejoin: bevel"/>
     <use xlink:href="#m8fd4d0c82c" x="247.841293" y="257.360825" style="fill: #31a354; stroke: #31a354; stroke-linejoin: bevel"/>
     <use xlink:href="#m8fd4d0c82c" x="267.082672" y="254.034425" style="fill: #31a354; stroke: #31a354; stroke-linejoin: bevel"/>
     <use xlink:href="#m8fd4d0c82c" x="286.324052" y="250.430825" style="fill: #31a354; stroke: #31a354; stroke-linejoin: bevel"/>
     <use xlink:href="#m8fd4d0c82c" x="305.565431" y="247.658825" style="fill: #31a354; stroke: #31a354; stroke-linejoin: bevel"/>
     <use xlink:href="#m8fd4d0c82c" x="324.80681" y="243.778025" style="fill: #31a354; stroke: #31a354; stroke-linejoin: bevel"/>
     <use xlink:href="#m8fd4d0c82c" x="344.04819" y="240.451625" style="fill: #31a354; stroke: #31a354; stroke-linejoin: bevel"/>
     <use xlink:href="#m8fd4d0c82c" x="363.289569" y="236.848025" style="fill: #31a354; stroke: #31a354; stroke-linejoin: bevel"/>
     <use xlink:href="#m8fd4d0c82c" x="382.530948" y="233.521625" style="fill: #31a354; stroke: #31a354; stroke-linejoin: bevel"/>
     <use xlink:href="#m8fd4d0c82c" x="401.772328" y="229.640825" style="fill: #31a354; stroke: #31a354; stroke-linejoin: bevel"/>
     <use xlink:href="#m8fd4d0c82c" x="421.013707" y="226.591625" style="fill: #31a354; stroke: #31a354; stroke-linejoin: bevel"/>
     <use xlink:href="#m8fd4d0c82c" x="440.255086" y="221.602025" style="fill: #31a354; stroke: #31a354; stroke-linejoin: bevel"/>
     <use xlink:href="#m8fd4d0c82c" x="459.496466" y="219.384425" style="fill: #31a354; stroke: #31a354; stroke-linejoin: bevel"/>
     <use xlink:href="#m8fd4d0c82c" x="478.737845" y="216.335225" style="fill: #31a354; stroke: #31a354; stroke-linejoin: bevel"/>
     <use xlink:href="#m8fd4d0c82c" x="497.979224" y="213.286025" style="fill: #31a354; stroke: #31a354; stroke-linejoin: bevel"/>
     <use xlink:href="#m8fd4d0c82c" x="517.220603" y="209.405225" style="fill: #31a354; stroke: #31a354; stroke-linejoin: bevel"/>
     <use xlink:href="#m8fd4d0c82c" x="536.461983" y="205.704605" style="fill: #31a354; stroke: #31a354; stroke-linejoin: bevel"/>
     <use xlink:href="#m8fd4d0c82c" x="555.703362" y="202.245149" style="fill: #31a354; stroke: #31a354; stroke-linejoin: bevel"/>
     <use xlink:href="#m8fd4d0c82c" x="574.944741" y="198.784584" style="fill: #31a354; stroke: #31a354; stroke-linejoin: bevel"/>
     <use xlink:href="#m8fd4d0c82c" x="594.186121" y="195.324297" style="fill: #31a354; stroke: #31a354; stroke-linejoin: bevel"/>
     <use xlink:href="#m8fd4d0c82c" x="613.4275" y="192.218825" style="fill: #31a354; stroke: #31a354; stroke-linejoin: bevel"/>
    </g>
   </g>
   <g id="patch_3">
    <path d="M 55.4275 363.805625 
L 55.4275 31.165625 
" style="fill: none; stroke: #000000; stroke-width: 0.8; stroke-linejoin: miter; stroke-linecap: square"/>
   </g>
   <g id="patch_4">
    <path d="M 613.4275 363.805625 
L 613.4275 31.165625 
" style="fill: none; stroke: #000000; stroke-width: 0.8; stroke-linejoin: miter; stroke-linecap: square"/>
   </g>
   <g id="patch_5">
    <path d="M 55.4275 363.805625 
L 613.4275 363.805625 
" style="fill: none; stroke: #000000; stroke-width: 0.8; stroke-linejoin: miter; stroke-linecap: square"/>
   </g>
   <g id="patch_6">
    <path d="M 55.4275 31.165625 
L 613.4275 31.165625 
" style="fill: none; stroke: #000000; stroke-width: 0.8; stroke-linejoin: miter; stroke-linecap: square"/>
   </g>
   <g id="text_16">
    <!-- Performance Comparison of Path-Tracing and NIRC -->
    <g transform="translate(121.124375 21.165625)scale(0.2 -0.2)">
     <defs>
      <path id="LinLibertine-50" d="M 1209 3547 
L 1209 2053 
Q 1325 2022 1697 2022 
Q 2172 2022 2411 2256 
Q 2650 2491 2650 2994 
Q 2650 3550 2406 3753 
Q 2163 3956 1766 3956 
Q 1209 3956 1209 3547 
z
M 666 3347 
Q 666 3731 567 3823 
Q 469 3916 109 3928 
Q 78 3953 78 4031 
Q 78 4109 109 4141 
Q 750 4128 934 4128 
Q 1075 4128 1408 4150 
Q 1741 4172 1813 4172 
Q 2228 4172 2528 4064 
Q 2828 3956 2975 3779 
Q 3122 3603 3183 3440 
Q 3244 3278 3244 3109 
Q 3244 2884 3167 2670 
Q 3091 2456 2928 2254 
Q 2766 2053 2455 1929 
Q 2144 1806 1728 1806 
Q 1409 1806 1209 1869 
L 1209 781 
Q 1209 403 1331 311 
Q 1453 219 1863 197 
Q 1894 166 1894 89 
Q 1894 13 1863 -13 
Q 1222 0 941 0 
Q 734 0 109 -13 
Q 78 13 78 89 
Q 78 166 109 197 
Q 469 209 567 303 
Q 666 397 666 781 
L 666 3347 
z
" transform="scale(0.015625)"/>
      <path id="LinLibertine-6e" d="M 1178 2291 
Q 1647 2809 2228 2809 
Q 2594 2809 2759 2591 
Q 2931 2359 2931 1734 
L 2931 781 
Q 2931 403 3004 314 
Q 3078 225 3359 197 
Q 3384 172 3384 95 
Q 3384 19 3359 -13 
Q 2809 0 2681 0 
Q 2566 0 2028 -13 
Q 2003 13 2003 89 
Q 2003 166 2028 197 
Q 2291 222 2358 312 
Q 2425 403 2425 781 
L 2425 1753 
Q 2425 2094 2350 2247 
Q 2228 2478 2009 2478 
Q 1619 2478 1228 2100 
Q 1119 1978 1119 1831 
L 1119 781 
Q 1119 403 1183 314 
Q 1247 225 1503 197 
Q 1534 166 1536 89 
Q 1538 13 1503 -13 
Q 966 0 872 0 
Q 694 0 166 -13 
Q 141 13 141 89 
Q 141 166 166 197 
Q 466 222 541 309 
Q 616 397 616 781 
L 616 2028 
Q 616 2297 542 2367 
Q 469 2438 197 2463 
Q 159 2572 184 2644 
Q 684 2706 991 2828 
Q 1041 2828 1069 2778 
Q 1119 2663 1119 2291 
Q 1122 2213 1178 2291 
z
" transform="scale(0.015625)"/>
      <path id="LinLibertine-63" d="M 2547 581 
Q 2322 209 2073 73 
Q 1825 -63 1503 -63 
Q 909 -63 573 317 
Q 238 697 238 1331 
Q 238 1978 641 2393 
Q 1044 2809 1550 2809 
Q 2003 2809 2265 2640 
Q 2528 2472 2528 2203 
Q 2528 2069 2428 1994 
Q 2328 1919 2216 1919 
Q 1997 1919 1972 2150 
Q 1959 2291 1929 2370 
Q 1900 2450 1798 2523 
Q 1697 2597 1516 2597 
Q 1197 2597 992 2294 
Q 788 1991 788 1472 
Q 788 922 1038 586 
Q 1288 250 1644 250 
Q 2084 250 2413 672 
Q 2516 659 2547 581 
z
" transform="scale(0.015625)"/>
      <path id="LinLibertine-43" d="M 2284 -63 
Q 1625 -63 1148 246 
Q 672 556 455 1017 
Q 238 1478 238 2016 
Q 238 3047 916 3669 
Q 1509 4213 2291 4213 
Q 2750 4213 3189 4070 
Q 3628 3928 3694 3922 
Q 3803 3250 3834 2931 
Q 3713 2869 3622 2900 
Q 3297 3975 2222 3975 
Q 1663 3975 1200 3406 
Q 1019 3184 919 2862 
Q 819 2541 819 2138 
Q 819 1644 972 1216 
Q 1125 788 1465 492 
Q 1806 197 2278 197 
Q 2725 197 3075 361 
Q 3425 525 3763 897 
Q 3859 897 3909 800 
Q 3250 -63 2284 -63 
z
" transform="scale(0.015625)"/>
      <path id="LinLibertine-74" d="M 275 2747 
L 569 2747 
Q 569 2944 567 3086 
Q 566 3228 562 3293 
Q 559 3359 556 3396 
Q 553 3434 551 3453 
Q 550 3472 550 3488 
Q 550 3509 575 3528 
Q 600 3547 629 3556 
Q 659 3566 711 3581 
Q 763 3597 794 3609 
Q 831 3625 890 3656 
Q 950 3688 990 3706 
Q 1031 3725 1050 3725 
Q 1100 3725 1100 3669 
Q 1075 3413 1075 2994 
L 1075 2747 
L 1844 2747 
Q 1894 2747 1894 2706 
L 1894 2578 
Q 1894 2494 1741 2497 
L 1075 2497 
L 1075 878 
Q 1075 566 1120 427 
Q 1166 288 1288 288 
Q 1581 288 1813 469 
Q 1909 463 1925 359 
Q 1547 -63 1063 -63 
Q 569 -63 569 569 
L 569 2497 
L 191 2497 
Q 159 2497 159 2534 
L 159 2619 
Q 159 2747 275 2747 
z
" transform="scale(0.015625)"/>
      <path id="LinLibertine-68" d="M 1069 1831 
L 1069 781 
Q 1069 509 1101 395 
Q 1134 281 1203 247 
Q 1272 213 1450 197 
Q 1478 169 1479 92 
Q 1481 16 1450 -13 
Q 913 0 819 0 
Q 644 0 116 -13 
Q 88 16 88 92 
Q 88 169 116 197 
Q 275 209 345 225 
Q 416 241 475 302 
Q 534 363 548 469 
Q 563 575 563 781 
L 563 3578 
Q 563 3784 553 3886 
Q 544 3988 473 4036 
Q 403 4084 364 4087 
Q 325 4091 153 4103 
Q 81 4175 116 4294 
Q 684 4338 1013 4469 
Q 1097 4469 1094 4403 
Q 1069 4147 1069 3731 
L 1063 2291 
Q 1069 2222 1125 2291 
Q 1594 2809 2216 2809 
Q 2581 2809 2747 2591 
Q 2919 2366 2919 1734 
L 2919 781 
Q 2919 403 2992 314 
Q 3066 225 3347 197 
Q 3372 172 3372 95 
Q 3372 19 3347 -13 
Q 2797 0 2669 0 
Q 2553 0 2016 -13 
Q 1991 13 1991 89 
Q 1991 166 2016 197 
Q 2278 222 2345 312 
Q 2413 403 2413 781 
L 2413 1753 
Q 2413 2094 2338 2247 
Q 2222 2478 1997 2478 
Q 1563 2478 1178 2100 
Q 1069 1981 1069 1831 
z
" transform="scale(0.015625)"/>
      <path id="LinLibertine-2d" d="M 1734 1428 
L 353 1428 
Q 256 1428 256 1550 
Q 256 1641 307 1727 
Q 359 1813 416 1813 
L 1819 1813 
Q 1909 1813 1906 1684 
Q 1906 1622 1848 1525 
Q 1791 1428 1734 1428 
z
" transform="scale(0.015625)"/>
      <path id="LinLibertine-67" d="M 2041 1784 
Q 2041 2181 1881 2397 
Q 1722 2613 1422 2613 
Q 909 2613 909 1931 
Q 909 1753 928 1622 
Q 947 1491 1005 1353 
Q 1063 1216 1188 1142 
Q 1313 1069 1503 1069 
Q 2041 1069 2041 1784 
z
M 844 -63 
Q 647 -300 647 -666 
Q 647 -953 915 -1120 
Q 1184 -1288 1416 -1288 
Q 1716 -1288 1997 -1209 
Q 2278 -1131 2473 -965 
Q 2669 -800 2669 -581 
Q 2669 -459 2598 -376 
Q 2528 -294 2344 -184 
Q 2147 -75 1569 -78 
Q 1538 -78 1377 -87 
Q 1216 -97 1100 -97 
Q 959 -94 844 -63 
z
M 2841 2478 
Q 2719 2478 2663 2591 
Q 2613 2669 2534 2669 
Q 2478 2669 2397 2617 
Q 2316 2566 2278 2516 
Q 2553 2234 2553 1850 
Q 2553 1403 2236 1137 
Q 1919 872 1472 872 
Q 1119 872 891 1006 
Q 775 847 775 634 
Q 775 450 897 359 
Q 1019 269 1184 269 
L 1375 281 
Q 1631 313 1806 313 
Q 2484 313 2741 103 
Q 3022 -128 3022 -416 
Q 3022 -747 2750 -1008 
Q 2478 -1269 2070 -1395 
Q 1663 -1522 1222 -1522 
Q 794 -1522 500 -1350 
Q 206 -1178 206 -794 
Q 206 -334 728 -19 
Q 434 128 434 475 
Q 434 647 511 830 
Q 588 1013 716 1119 
Q 384 1438 384 1838 
Q 384 2266 711 2537 
Q 1038 2809 1478 2809 
Q 1875 2809 2144 2631 
Q 2259 2784 2451 2870 
Q 2644 2956 2784 2956 
Q 2913 2956 2995 2889 
Q 3078 2822 3078 2719 
Q 3078 2622 3004 2550 
Q 2931 2478 2841 2478 
z
" transform="scale(0.015625)"/>
      <path id="LinLibertine-64" d="M 2209 794 
L 2209 2009 
Q 2209 2156 2189 2217 
Q 2169 2278 2100 2356 
Q 1903 2588 1581 2584 
Q 1197 2584 984 2266 
Q 800 2003 800 1416 
Q 800 853 1011 545 
Q 1222 238 1503 238 
Q 1753 238 2106 544 
Q 2209 634 2209 794 
z
M 2138 322 
Q 1669 -63 1338 -63 
Q 831 -63 540 314 
Q 250 691 250 1300 
Q 250 1984 691 2425 
Q 1094 2809 1650 2809 
Q 1747 2809 1862 2781 
Q 1978 2753 2061 2726 
Q 2144 2700 2150 2700 
Q 2206 2700 2209 2759 
L 2209 3578 
Q 2209 3784 2198 3886 
Q 2188 3988 2117 4036 
Q 2047 4084 2009 4087 
Q 1972 4091 1797 4103 
Q 1725 4175 1759 4294 
Q 2328 4338 2656 4469 
Q 2741 4469 2741 4403 
Q 2716 4147 2713 3731 
L 2713 831 
Q 2713 581 2800 486 
Q 2888 391 3181 366 
Q 3213 334 3213 276 
Q 3213 219 3181 191 
Q 2644 128 2406 -63 
Q 2334 -81 2284 -63 
Q 2213 163 2216 313 
Q 2216 328 2208 336 
Q 2200 344 2187 344 
Q 2175 344 2162 337 
Q 2150 331 2138 322 
z
" transform="scale(0.015625)"/>
      <path id="LinLibertine-49" d="M 1222 781 
Q 1222 397 1322 305 
Q 1422 213 1778 197 
Q 1803 166 1804 89 
Q 1806 13 1778 -13 
Q 1138 0 953 0 
Q 747 0 122 -13 
Q 91 13 91 89 
Q 91 166 122 197 
Q 481 209 579 303 
Q 678 397 678 781 
L 678 3347 
Q 678 3731 579 3823 
Q 481 3916 122 3928 
Q 91 3953 91 4031 
Q 91 4109 122 4141 
Q 763 4128 947 4128 
Q 1153 4128 1778 4141 
Q 1803 4109 1804 4032 
Q 1806 3956 1778 3928 
Q 1419 3916 1320 3823 
Q 1222 3731 1222 3347 
L 1222 781 
z
" transform="scale(0.015625)"/>
      <path id="LinLibertine-52" d="M 1741 3956 
Q 1209 3956 1209 3547 
L 1209 2081 
L 1516 2081 
Q 2034 2081 2312 2292 
Q 2591 2503 2591 3059 
Q 2591 3956 1741 3956 
z
M 1209 781 
Q 1209 397 1309 305 
Q 1409 213 1766 197 
Q 1791 166 1791 89 
Q 1791 13 1766 -13 
Q 1125 0 941 0 
Q 734 0 109 -13 
Q 78 13 78 89 
Q 78 166 109 197 
Q 469 209 567 303 
Q 666 397 666 781 
L 666 3347 
Q 666 3731 567 3823 
Q 469 3916 109 3928 
Q 78 3953 78 4031 
Q 78 4109 109 4141 
Q 750 4128 934 4128 
Q 1069 4128 1366 4150 
Q 1663 4172 1734 4172 
Q 2113 4172 2375 4114 
Q 2638 4056 2841 3866 
Q 3181 3547 3181 3066 
Q 3181 2625 2903 2347 
Q 2625 2069 2328 1972 
L 3138 628 
Q 3284 384 3418 259 
Q 3553 134 3750 134 
Q 3794 50 3756 -19 
Q 3666 -63 3488 -63 
Q 2994 -63 2644 506 
L 1959 1619 
Q 1881 1747 1731 1805 
Q 1581 1863 1209 1863 
L 1209 781 
z
" transform="scale(0.015625)"/>
     </defs>
     <use xlink:href="#LinLibertine-50"/>
     <use xlink:href="#LinLibertine-65" x="53.076172"/>
     <use xlink:href="#LinLibertine-72" x="97.753906"/>
     <use xlink:href="#LinLibertine-66" x="134.912109"/>
     <use xlink:href="#LinLibertine-6f" x="165.869141"/>
     <use xlink:href="#LinLibertine-72" x="216.259766"/>
     <use xlink:href="#LinLibertine-6d" x="253.417969"/>
     <use xlink:href="#LinLibertine-61" x="332.373047"/>
     <use xlink:href="#LinLibertine-6e" x="378.027344"/>
     <use xlink:href="#LinLibertine-63" x="432.226562"/>
     <use xlink:href="#LinLibertine-65" x="475"/>
     <use xlink:href="#LinLibertine-20" x="519.677734"/>
     <use xlink:href="#LinLibertine-43" x="544.677734"/>
     <use xlink:href="#LinLibertine-6f" x="609.277344"/>
     <use xlink:href="#LinLibertine-6d" x="659.667969"/>
     <use xlink:href="#LinLibertine-70" x="738.623047"/>
     <use xlink:href="#LinLibertine-61" x="790.478516"/>
     <use xlink:href="#LinLibertine-72" x="836.132812"/>
     <use xlink:href="#LinLibertine-69" x="873.291016"/>
     <use xlink:href="#LinLibertine-73" x="900.390625"/>
     <use xlink:href="#LinLibertine-6f" x="939.355469"/>
     <use xlink:href="#LinLibertine-6e" x="989.746094"/>
     <use xlink:href="#LinLibertine-20" x="1043.945312"/>
     <use xlink:href="#LinLibertine-6f" x="1068.945312"/>
     <use xlink:href="#LinLibertine-66" x="1119.335938"/>
     <use xlink:href="#LinLibertine-20" x="1150.292969"/>
     <use xlink:href="#LinLibertine-50" x="1175.292969"/>
     <use xlink:href="#LinLibertine-61" x="1228.369141"/>
     <use xlink:href="#LinLibertine-74" x="1274.023438"/>
     <use xlink:href="#LinLibertine-68" x="1305.615234"/>
     <use xlink:href="#LinLibertine-2d" x="1359.375"/>
     <use xlink:href="#LinLibertine-54" x="1393.164062"/>
     <use xlink:href="#LinLibertine-72" x="1452.832031"/>
     <use xlink:href="#LinLibertine-61" x="1489.990234"/>
     <use xlink:href="#LinLibertine-63" x="1535.644531"/>
     <use xlink:href="#LinLibertine-69" x="1578.417969"/>
     <use xlink:href="#LinLibertine-6e" x="1605.517578"/>
     <use xlink:href="#LinLibertine-67" x="1659.716797"/>
     <use xlink:href="#LinLibertine-20" x="1709.716797"/>
     <use xlink:href="#LinLibertine-61" x="1734.716797"/>
     <use xlink:href="#LinLibertine-6e" x="1780.371094"/>
     <use xlink:href="#LinLibertine-64" x="1834.570312"/>
     <use xlink:href="#LinLibertine-20" x="1885.15625"/>
     <use xlink:href="#LinLibertine-4e" x="1910.15625"/>
     <use xlink:href="#LinLibertine-49" x="1980.029297"/>
     <use xlink:href="#LinLibertine-52" x="2009.716797"/>
     <use xlink:href="#LinLibertine-43" x="2068.408203"/>
    </g>
   </g>
   <g id="legend_1">
    <g id="patch_7">
     <path d="M 290.644531 358.305625 
L 605.7275 358.305625 
Q 607.9275 358.305625 607.9275 356.105625 
L 607.9275 260.33 
Q 607.9275 258.13 605.7275 258.13 
L 290.644531 258.13 
Q 288.444531 258.13 288.444531 260.33 
L 288.444531 356.105625 
Q 288.444531 358.305625 290.644531 358.305625 
z
" style="fill: #ffffff; opacity: 0.8; stroke: #cccccc; stroke-linejoin: miter"/>
    </g>
    <g id="line2d_37">
     <path d="M 292.844531 267.038281 
L 303.844531 267.038281 
L 314.844531 267.038281 
" style="fill: none; stroke: #9b5c6f; stroke-width: 2.5; stroke-linecap: square"/>
     <g>
      <use xlink:href="#md88cecd769" x="303.844531" y="267.038281" style="fill: #9b5c6f; stroke: #9b5c6f"/>
     </g>
    </g>
    <g id="text_17">
     <!-- Path-Tracing -->
     <g transform="translate(323.644531 270.888281)scale(0.11 -0.11)">
      <defs>
       <path id="DejaVuSans-50" d="M 1259 4147 
L 1259 2394 
L 2053 2394 
Q 2494 2394 2734 2622 
Q 2975 2850 2975 3272 
Q 2975 3691 2734 3919 
Q 2494 4147 2053 4147 
L 1259 4147 
z
M 628 4666 
L 2053 4666 
Q 2838 4666 3239 4311 
Q 3641 3956 3641 3272 
Q 3641 2581 3239 2228 
Q 2838 1875 2053 1875 
L 1259 1875 
L 1259 0 
L 628 0 
L 628 4666 
z
" transform="scale(0.015625)"/>
       <path id="DejaVuSans-61" d="M 2194 1759 
Q 1497 1759 1228 1600 
Q 959 1441 959 1056 
Q 959 750 1161 570 
Q 1363 391 1709 391 
Q 2188 391 2477 730 
Q 2766 1069 2766 1631 
L 2766 1759 
L 2194 1759 
z
M 3341 1997 
L 3341 0 
L 2766 0 
L 2766 531 
Q 2569 213 2275 61 
Q 1981 -91 1556 -91 
Q 1019 -91 701 211 
Q 384 513 384 1019 
Q 384 1609 779 1909 
Q 1175 2209 1959 2209 
L 2766 2209 
L 2766 2266 
Q 2766 2663 2505 2880 
Q 2244 3097 1772 3097 
Q 1472 3097 1187 3025 
Q 903 2953 641 2809 
L 641 3341 
Q 956 3463 1253 3523 
Q 1550 3584 1831 3584 
Q 2591 3584 2966 3190 
Q 3341 2797 3341 1997 
z
" transform="scale(0.015625)"/>
       <path id="DejaVuSans-74" d="M 1172 4494 
L 1172 3500 
L 2356 3500 
L 2356 3053 
L 1172 3053 
L 1172 1153 
Q 1172 725 1289 603 
Q 1406 481 1766 481 
L 2356 481 
L 2356 0 
L 1766 0 
Q 1100 0 847 248 
Q 594 497 594 1153 
L 594 3053 
L 172 3053 
L 172 3500 
L 594 3500 
L 594 4494 
L 1172 4494 
z
" transform="scale(0.015625)"/>
       <path id="DejaVuSans-68" d="M 3513 2113 
L 3513 0 
L 2938 0 
L 2938 2094 
Q 2938 2591 2744 2837 
Q 2550 3084 2163 3084 
Q 1697 3084 1428 2787 
Q 1159 2491 1159 1978 
L 1159 0 
L 581 0 
L 581 4863 
L 1159 4863 
L 1159 2956 
Q 1366 3272 1645 3428 
Q 1925 3584 2291 3584 
Q 2894 3584 3203 3211 
Q 3513 2838 3513 2113 
z
" transform="scale(0.015625)"/>
       <path id="DejaVuSans-2d" d="M 313 2009 
L 1997 2009 
L 1997 1497 
L 313 1497 
L 313 2009 
z
" transform="scale(0.015625)"/>
       <path id="DejaVuSans-54" d="M -19 4666 
L 3928 4666 
L 3928 4134 
L 2272 4134 
L 2272 0 
L 1638 0 
L 1638 4134 
L -19 4134 
L -19 4666 
z
" transform="scale(0.015625)"/>
       <path id="DejaVuSans-72" d="M 2631 2963 
Q 2534 3019 2420 3045 
Q 2306 3072 2169 3072 
Q 1681 3072 1420 2755 
Q 1159 2438 1159 1844 
L 1159 0 
L 581 0 
L 581 3500 
L 1159 3500 
L 1159 2956 
Q 1341 3275 1631 3429 
Q 1922 3584 2338 3584 
Q 2397 3584 2469 3576 
Q 2541 3569 2628 3553 
L 2631 2963 
z
" transform="scale(0.015625)"/>
       <path id="DejaVuSans-63" d="M 3122 3366 
L 3122 2828 
Q 2878 2963 2633 3030 
Q 2388 3097 2138 3097 
Q 1578 3097 1268 2742 
Q 959 2388 959 1747 
Q 959 1106 1268 751 
Q 1578 397 2138 397 
Q 2388 397 2633 464 
Q 2878 531 3122 666 
L 3122 134 
Q 2881 22 2623 -34 
Q 2366 -91 2075 -91 
Q 1284 -91 818 406 
Q 353 903 353 1747 
Q 353 2603 823 3093 
Q 1294 3584 2113 3584 
Q 2378 3584 2631 3529 
Q 2884 3475 3122 3366 
z
" transform="scale(0.015625)"/>
       <path id="DejaVuSans-69" d="M 603 3500 
L 1178 3500 
L 1178 0 
L 603 0 
L 603 3500 
z
M 603 4863 
L 1178 4863 
L 1178 4134 
L 603 4134 
L 603 4863 
z
" transform="scale(0.015625)"/>
       <path id="DejaVuSans-6e" d="M 3513 2113 
L 3513 0 
L 2938 0 
L 2938 2094 
Q 2938 2591 2744 2837 
Q 2550 3084 2163 3084 
Q 1697 3084 1428 2787 
Q 1159 2491 1159 1978 
L 1159 0 
L 581 0 
L 581 3500 
L 1159 3500 
L 1159 2956 
Q 1366 3272 1645 3428 
Q 1925 3584 2291 3584 
Q 2894 3584 3203 3211 
Q 3513 2838 3513 2113 
z
" transform="scale(0.015625)"/>
       <path id="DejaVuSans-67" d="M 2906 1791 
Q 2906 2416 2648 2759 
Q 2391 3103 1925 3103 
Q 1463 3103 1205 2759 
Q 947 2416 947 1791 
Q 947 1169 1205 825 
Q 1463 481 1925 481 
Q 2391 481 2648 825 
Q 2906 1169 2906 1791 
z
M 3481 434 
Q 3481 -459 3084 -895 
Q 2688 -1331 1869 -1331 
Q 1566 -1331 1297 -1286 
Q 1028 -1241 775 -1147 
L 775 -588 
Q 1028 -725 1275 -790 
Q 1522 -856 1778 -856 
Q 2344 -856 2625 -561 
Q 2906 -266 2906 331 
L 2906 616 
Q 2728 306 2450 153 
Q 2172 0 1784 0 
Q 1141 0 747 490 
Q 353 981 353 1791 
Q 353 2603 747 3093 
Q 1141 3584 1784 3584 
Q 2172 3584 2450 3431 
Q 2728 3278 2906 2969 
L 2906 3500 
L 3481 3500 
L 3481 434 
z
" transform="scale(0.015625)"/>
      </defs>
      <use xlink:href="#DejaVuSans-50"/>
      <use xlink:href="#DejaVuSans-61" x="55.802734"/>
      <use xlink:href="#DejaVuSans-74" x="117.082031"/>
      <use xlink:href="#DejaVuSans-68" x="156.291016"/>
      <use xlink:href="#DejaVuSans-2d" x="219.669922"/>
      <use xlink:href="#DejaVuSans-54" x="246.628906"/>
      <use xlink:href="#DejaVuSans-72" x="292.962891"/>
      <use xlink:href="#DejaVuSans-61" x="334.076172"/>
      <use xlink:href="#DejaVuSans-63" x="395.355469"/>
      <use xlink:href="#DejaVuSans-69" x="450.335938"/>
      <use xlink:href="#DejaVuSans-6e" x="478.119141"/>
      <use xlink:href="#DejaVuSans-67" x="541.498047"/>
     </g>
    </g>
    <g id="line2d_38">
     <path d="M 292.844531 283.184219 
L 303.844531 283.184219 
L 314.844531 283.184219 
" style="fill: none; stroke: #d1483e; stroke-width: 2.5; stroke-linecap: square"/>
     <g>
      <use xlink:href="#mad9cf590bb" x="303.844531" y="283.184219" style="fill: #d1483e; stroke: #d1483e"/>
     </g>
    </g>
    <g id="text_18">
     <!-- NRC -->
     <g transform="translate(323.644531 287.034219)scale(0.11 -0.11)">
      <defs>
       <path id="DejaVuSans-4e" d="M 628 4666 
L 1478 4666 
L 3547 763 
L 3547 4666 
L 4159 4666 
L 4159 0 
L 3309 0 
L 1241 3903 
L 1241 0 
L 628 0 
L 628 4666 
z
" transform="scale(0.015625)"/>
       <path id="DejaVuSans-52" d="M 2841 2188 
Q 3044 2119 3236 1894 
Q 3428 1669 3622 1275 
L 4263 0 
L 3584 0 
L 2988 1197 
Q 2756 1666 2539 1819 
Q 2322 1972 1947 1972 
L 1259 1972 
L 1259 0 
L 628 0 
L 628 4666 
L 2053 4666 
Q 2853 4666 3247 4331 
Q 3641 3997 3641 3322 
Q 3641 2881 3436 2590 
Q 3231 2300 2841 2188 
z
M 1259 4147 
L 1259 2491 
L 2053 2491 
Q 2509 2491 2742 2702 
Q 2975 2913 2975 3322 
Q 2975 3731 2742 3939 
Q 2509 4147 2053 4147 
L 1259 4147 
z
" transform="scale(0.015625)"/>
       <path id="DejaVuSans-43" d="M 4122 4306 
L 4122 3641 
Q 3803 3938 3442 4084 
Q 3081 4231 2675 4231 
Q 1875 4231 1450 3742 
Q 1025 3253 1025 2328 
Q 1025 1406 1450 917 
Q 1875 428 2675 428 
Q 3081 428 3442 575 
Q 3803 722 4122 1019 
L 4122 359 
Q 3791 134 3420 21 
Q 3050 -91 2638 -91 
Q 1578 -91 968 557 
Q 359 1206 359 2328 
Q 359 3453 968 4101 
Q 1578 4750 2638 4750 
Q 3056 4750 3426 4639 
Q 3797 4528 4122 4306 
z
" transform="scale(0.015625)"/>
      </defs>
      <use xlink:href="#DejaVuSans-4e"/>
      <use xlink:href="#DejaVuSans-52" x="74.804688"/>
      <use xlink:href="#DejaVuSans-43" x="139.287109"/>
     </g>
    </g>
    <g id="line2d_39">
     <path d="M 292.844531 299.330156 
L 303.844531 299.330156 
L 314.844531 299.330156 
" style="fill: none; stroke: #537b8d; stroke-width: 2.5; stroke-linecap: square"/>
     <g>
      <use xlink:href="#mcbd48d6e60" x="303.844531" y="299.330156" style="fill: #537b8d; stroke: #537b8d"/>
     </g>
    </g>
    <g id="text_19">
     <!-- NIRC -->
     <g transform="translate(323.644531 303.180156)scale(0.11 -0.11)">
      <defs>
       <path id="DejaVuSans-49" d="M 628 4666 
L 1259 4666 
L 1259 0 
L 628 0 
L 628 4666 
z
" transform="scale(0.015625)"/>
      </defs>
      <use xlink:href="#DejaVuSans-4e"/>
      <use xlink:href="#DejaVuSans-49" x="74.804688"/>
      <use xlink:href="#DejaVuSans-52" x="104.296875"/>
      <use xlink:href="#DejaVuSans-43" x="168.779297"/>
     </g>
    </g>
    <g id="line2d_40">
     <path d="M 292.844531 315.476094 
L 303.844531 315.476094 
L 314.844531 315.476094 
" style="fill: none; stroke: #776d8a; stroke-width: 2.5; stroke-linecap: square"/>
     <g>
      <use xlink:href="#m908487257e" x="303.844531" y="315.476094" style="fill: #776d8a; stroke: #776d8a; stroke-linejoin: miter"/>
     </g>
    </g>
    <g id="text_20">
     <!-- NIRC Shared Encoding -->
     <g transform="translate(323.644531 319.326094)scale(0.11 -0.11)">
      <defs>
       <path id="DejaVuSans-20" transform="scale(0.015625)"/>
       <path id="DejaVuSans-53" d="M 3425 4513 
L 3425 3897 
Q 3066 4069 2747 4153 
Q 2428 4238 2131 4238 
Q 1616 4238 1336 4038 
Q 1056 3838 1056 3469 
Q 1056 3159 1242 3001 
Q 1428 2844 1947 2747 
L 2328 2669 
Q 3034 2534 3370 2195 
Q 3706 1856 3706 1288 
Q 3706 609 3251 259 
Q 2797 -91 1919 -91 
Q 1588 -91 1214 -16 
Q 841 59 441 206 
L 441 856 
Q 825 641 1194 531 
Q 1563 422 1919 422 
Q 2459 422 2753 634 
Q 3047 847 3047 1241 
Q 3047 1584 2836 1778 
Q 2625 1972 2144 2069 
L 1759 2144 
Q 1053 2284 737 2584 
Q 422 2884 422 3419 
Q 422 4038 858 4394 
Q 1294 4750 2059 4750 
Q 2388 4750 2728 4690 
Q 3069 4631 3425 4513 
z
" transform="scale(0.015625)"/>
       <path id="DejaVuSans-65" d="M 3597 1894 
L 3597 1613 
L 953 1613 
Q 991 1019 1311 708 
Q 1631 397 2203 397 
Q 2534 397 2845 478 
Q 3156 559 3463 722 
L 3463 178 
Q 3153 47 2828 -22 
Q 2503 -91 2169 -91 
Q 1331 -91 842 396 
Q 353 884 353 1716 
Q 353 2575 817 3079 
Q 1281 3584 2069 3584 
Q 2775 3584 3186 3129 
Q 3597 2675 3597 1894 
z
M 3022 2063 
Q 3016 2534 2758 2815 
Q 2500 3097 2075 3097 
Q 1594 3097 1305 2825 
Q 1016 2553 972 2059 
L 3022 2063 
z
" transform="scale(0.015625)"/>
       <path id="DejaVuSans-64" d="M 2906 2969 
L 2906 4863 
L 3481 4863 
L 3481 0 
L 2906 0 
L 2906 525 
Q 2725 213 2448 61 
Q 2172 -91 1784 -91 
Q 1150 -91 751 415 
Q 353 922 353 1747 
Q 353 2572 751 3078 
Q 1150 3584 1784 3584 
Q 2172 3584 2448 3432 
Q 2725 3281 2906 2969 
z
M 947 1747 
Q 947 1113 1208 752 
Q 1469 391 1925 391 
Q 2381 391 2643 752 
Q 2906 1113 2906 1747 
Q 2906 2381 2643 2742 
Q 2381 3103 1925 3103 
Q 1469 3103 1208 2742 
Q 947 2381 947 1747 
z
" transform="scale(0.015625)"/>
       <path id="DejaVuSans-45" d="M 628 4666 
L 3578 4666 
L 3578 4134 
L 1259 4134 
L 1259 2753 
L 3481 2753 
L 3481 2222 
L 1259 2222 
L 1259 531 
L 3634 531 
L 3634 0 
L 628 0 
L 628 4666 
z
" transform="scale(0.015625)"/>
       <path id="DejaVuSans-6f" d="M 1959 3097 
Q 1497 3097 1228 2736 
Q 959 2375 959 1747 
Q 959 1119 1226 758 
Q 1494 397 1959 397 
Q 2419 397 2687 759 
Q 2956 1122 2956 1747 
Q 2956 2369 2687 2733 
Q 2419 3097 1959 3097 
z
M 1959 3584 
Q 2709 3584 3137 3096 
Q 3566 2609 3566 1747 
Q 3566 888 3137 398 
Q 2709 -91 1959 -91 
Q 1206 -91 779 398 
Q 353 888 353 1747 
Q 353 2609 779 3096 
Q 1206 3584 1959 3584 
z
" transform="scale(0.015625)"/>
      </defs>
      <use xlink:href="#DejaVuSans-4e"/>
      <use xlink:href="#DejaVuSans-49" x="74.804688"/>
      <use xlink:href="#DejaVuSans-52" x="104.296875"/>
      <use xlink:href="#DejaVuSans-43" x="168.779297"/>
      <use xlink:href="#DejaVuSans-20" x="238.603516"/>
      <use xlink:href="#DejaVuSans-53" x="270.390625"/>
      <use xlink:href="#DejaVuSans-68" x="333.867188"/>
      <use xlink:href="#DejaVuSans-61" x="397.246094"/>
      <use xlink:href="#DejaVuSans-72" x="458.525391"/>
      <use xlink:href="#DejaVuSans-65" x="497.388672"/>
      <use xlink:href="#DejaVuSans-64" x="558.912109"/>
      <use xlink:href="#DejaVuSans-20" x="622.388672"/>
      <use xlink:href="#DejaVuSans-45" x="654.175781"/>
      <use xlink:href="#DejaVuSans-6e" x="717.359375"/>
      <use xlink:href="#DejaVuSans-63" x="780.738281"/>
      <use xlink:href="#DejaVuSans-6f" x="835.71875"/>
      <use xlink:href="#DejaVuSans-64" x="896.900391"/>
      <use xlink:href="#DejaVuSans-69" x="960.376953"/>
      <use xlink:href="#DejaVuSans-6e" x="988.160156"/>
      <use xlink:href="#DejaVuSans-67" x="1051.539062"/>
     </g>
    </g>
    <g id="line2d_41">
     <path d="M 292.844531 331.622031 
L 303.844531 331.622031 
L 314.844531 331.622031 
" style="fill: none; stroke: #a2803a; stroke-width: 2.5; stroke-linecap: square"/>
     <g>
      <use xlink:href="#m40389ac27a" x="303.844531" y="331.622031" style="fill: #a2803a; stroke: #a2803a; stroke-linejoin: miter"/>
     </g>
    </g>
    <g id="text_21">
     <!-- NIRC Shared Encoding + Fused SH -->
     <g transform="translate(323.644531 335.472031)scale(0.11 -0.11)">
      <defs>
       <path id="DejaVuSans-2b" d="M 2944 4013 
L 2944 2272 
L 4684 2272 
L 4684 1741 
L 2944 1741 
L 2944 0 
L 2419 0 
L 2419 1741 
L 678 1741 
L 678 2272 
L 2419 2272 
L 2419 4013 
L 2944 4013 
z
" transform="scale(0.015625)"/>
       <path id="DejaVuSans-46" d="M 628 4666 
L 3309 4666 
L 3309 4134 
L 1259 4134 
L 1259 2759 
L 3109 2759 
L 3109 2228 
L 1259 2228 
L 1259 0 
L 628 0 
L 628 4666 
z
" transform="scale(0.015625)"/>
       <path id="DejaVuSans-75" d="M 544 1381 
L 544 3500 
L 1119 3500 
L 1119 1403 
Q 1119 906 1312 657 
Q 1506 409 1894 409 
Q 2359 409 2629 706 
Q 2900 1003 2900 1516 
L 2900 3500 
L 3475 3500 
L 3475 0 
L 2900 0 
L 2900 538 
Q 2691 219 2414 64 
Q 2138 -91 1772 -91 
Q 1169 -91 856 284 
Q 544 659 544 1381 
z
M 1991 3584 
L 1991 3584 
z
" transform="scale(0.015625)"/>
       <path id="DejaVuSans-73" d="M 2834 3397 
L 2834 2853 
Q 2591 2978 2328 3040 
Q 2066 3103 1784 3103 
Q 1356 3103 1142 2972 
Q 928 2841 928 2578 
Q 928 2378 1081 2264 
Q 1234 2150 1697 2047 
L 1894 2003 
Q 2506 1872 2764 1633 
Q 3022 1394 3022 966 
Q 3022 478 2636 193 
Q 2250 -91 1575 -91 
Q 1294 -91 989 -36 
Q 684 19 347 128 
L 347 722 
Q 666 556 975 473 
Q 1284 391 1588 391 
Q 1994 391 2212 530 
Q 2431 669 2431 922 
Q 2431 1156 2273 1281 
Q 2116 1406 1581 1522 
L 1381 1569 
Q 847 1681 609 1914 
Q 372 2147 372 2553 
Q 372 3047 722 3315 
Q 1072 3584 1716 3584 
Q 2034 3584 2315 3537 
Q 2597 3491 2834 3397 
z
" transform="scale(0.015625)"/>
       <path id="DejaVuSans-48" d="M 628 4666 
L 1259 4666 
L 1259 2753 
L 3553 2753 
L 3553 4666 
L 4184 4666 
L 4184 0 
L 3553 0 
L 3553 2222 
L 1259 2222 
L 1259 0 
L 628 0 
L 628 4666 
z
" transform="scale(0.015625)"/>
      </defs>
      <use xlink:href="#DejaVuSans-4e"/>
      <use xlink:href="#DejaVuSans-49" x="74.804688"/>
      <use xlink:href="#DejaVuSans-52" x="104.296875"/>
      <use xlink:href="#DejaVuSans-43" x="168.779297"/>
      <use xlink:href="#DejaVuSans-20" x="238.603516"/>
      <use xlink:href="#DejaVuSans-53" x="270.390625"/>
      <use xlink:href="#DejaVuSans-68" x="333.867188"/>
      <use xlink:href="#DejaVuSans-61" x="397.246094"/>
      <use xlink:href="#DejaVuSans-72" x="458.525391"/>
      <use xlink:href="#DejaVuSans-65" x="497.388672"/>
      <use xlink:href="#DejaVuSans-64" x="558.912109"/>
      <use xlink:href="#DejaVuSans-20" x="622.388672"/>
      <use xlink:href="#DejaVuSans-45" x="654.175781"/>
      <use xlink:href="#DejaVuSans-6e" x="717.359375"/>
      <use xlink:href="#DejaVuSans-63" x="780.738281"/>
      <use xlink:href="#DejaVuSans-6f" x="835.71875"/>
      <use xlink:href="#DejaVuSans-64" x="896.900391"/>
      <use xlink:href="#DejaVuSans-69" x="960.376953"/>
      <use xlink:href="#DejaVuSans-6e" x="988.160156"/>
      <use xlink:href="#DejaVuSans-67" x="1051.539062"/>
      <use xlink:href="#DejaVuSans-20" x="1115.015625"/>
      <use xlink:href="#DejaVuSans-2b" x="1146.802734"/>
      <use xlink:href="#DejaVuSans-20" x="1230.591797"/>
      <use xlink:href="#DejaVuSans-46" x="1262.378906"/>
      <use xlink:href="#DejaVuSans-75" x="1314.398438"/>
      <use xlink:href="#DejaVuSans-73" x="1377.777344"/>
      <use xlink:href="#DejaVuSans-65" x="1429.876953"/>
      <use xlink:href="#DejaVuSans-64" x="1491.400391"/>
      <use xlink:href="#DejaVuSans-20" x="1554.876953"/>
      <use xlink:href="#DejaVuSans-53" x="1586.664062"/>
      <use xlink:href="#DejaVuSans-48" x="1650.140625"/>
     </g>
    </g>
    <g id="line2d_42">
     <path d="M 292.844531 347.767969 
L 303.844531 347.767969 
L 314.844531 347.767969 
" style="fill: none; stroke: #31a354; stroke-width: 2.5; stroke-linecap: square"/>
     <g>
      <use xlink:href="#m8fd4d0c82c" x="303.844531" y="347.767969" style="fill: #31a354; stroke: #31a354; stroke-linejoin: bevel"/>
     </g>
    </g>
    <g id="text_22">
     <!-- NIRC Shared Encoding + Fused SH + Fused Output -->
     <g transform="translate(323.644531 351.617969)scale(0.11 -0.11)">
      <defs>
       <path id="DejaVuSans-4f" d="M 2522 4238 
Q 1834 4238 1429 3725 
Q 1025 3213 1025 2328 
Q 1025 1447 1429 934 
Q 1834 422 2522 422 
Q 3209 422 3611 934 
Q 4013 1447 4013 2328 
Q 4013 3213 3611 3725 
Q 3209 4238 2522 4238 
z
M 2522 4750 
Q 3503 4750 4090 4092 
Q 4678 3434 4678 2328 
Q 4678 1225 4090 567 
Q 3503 -91 2522 -91 
Q 1538 -91 948 565 
Q 359 1222 359 2328 
Q 359 3434 948 4092 
Q 1538 4750 2522 4750 
z
" transform="scale(0.015625)"/>
       <path id="DejaVuSans-70" d="M 1159 525 
L 1159 -1331 
L 581 -1331 
L 581 3500 
L 1159 3500 
L 1159 2969 
Q 1341 3281 1617 3432 
Q 1894 3584 2278 3584 
Q 2916 3584 3314 3078 
Q 3713 2572 3713 1747 
Q 3713 922 3314 415 
Q 2916 -91 2278 -91 
Q 1894 -91 1617 61 
Q 1341 213 1159 525 
z
M 3116 1747 
Q 3116 2381 2855 2742 
Q 2594 3103 2138 3103 
Q 1681 3103 1420 2742 
Q 1159 2381 1159 1747 
Q 1159 1113 1420 752 
Q 1681 391 2138 391 
Q 2594 391 2855 752 
Q 3116 1113 3116 1747 
z
" transform="scale(0.015625)"/>
      </defs>
      <use xlink:href="#DejaVuSans-4e"/>
      <use xlink:href="#DejaVuSans-49" x="74.804688"/>
      <use xlink:href="#DejaVuSans-52" x="104.296875"/>
      <use xlink:href="#DejaVuSans-43" x="168.779297"/>
      <use xlink:href="#DejaVuSans-20" x="238.603516"/>
      <use xlink:href="#DejaVuSans-53" x="270.390625"/>
      <use xlink:href="#DejaVuSans-68" x="333.867188"/>
      <use xlink:href="#DejaVuSans-61" x="397.246094"/>
      <use xlink:href="#DejaVuSans-72" x="458.525391"/>
      <use xlink:href="#DejaVuSans-65" x="497.388672"/>
      <use xlink:href="#DejaVuSans-64" x="558.912109"/>
      <use xlink:href="#DejaVuSans-20" x="622.388672"/>
      <use xlink:href="#DejaVuSans-45" x="654.175781"/>
      <use xlink:href="#DejaVuSans-6e" x="717.359375"/>
      <use xlink:href="#DejaVuSans-63" x="780.738281"/>
      <use xlink:href="#DejaVuSans-6f" x="835.71875"/>
      <use xlink:href="#DejaVuSans-64" x="896.900391"/>
      <use xlink:href="#DejaVuSans-69" x="960.376953"/>
      <use xlink:href="#DejaVuSans-6e" x="988.160156"/>
      <use xlink:href="#DejaVuSans-67" x="1051.539062"/>
      <use xlink:href="#DejaVuSans-20" x="1115.015625"/>
      <use xlink:href="#DejaVuSans-2b" x="1146.802734"/>
      <use xlink:href="#DejaVuSans-20" x="1230.591797"/>
      <use xlink:href="#DejaVuSans-46" x="1262.378906"/>
      <use xlink:href="#DejaVuSans-75" x="1314.398438"/>
      <use xlink:href="#DejaVuSans-73" x="1377.777344"/>
      <use xlink:href="#DejaVuSans-65" x="1429.876953"/>
      <use xlink:href="#DejaVuSans-64" x="1491.400391"/>
      <use xlink:href="#DejaVuSans-20" x="1554.876953"/>
      <use xlink:href="#DejaVuSans-53" x="1586.664062"/>
      <use xlink:href="#DejaVuSans-48" x="1650.140625"/>
      <use xlink:href="#DejaVuSans-20" x="1725.335938"/>
      <use xlink:href="#DejaVuSans-2b" x="1757.123047"/>
      <use xlink:href="#DejaVuSans-20" x="1840.912109"/>
      <use xlink:href="#DejaVuSans-46" x="1872.699219"/>
      <use xlink:href="#DejaVuSans-75" x="1924.71875"/>
      <use xlink:href="#DejaVuSans-73" x="1988.097656"/>
      <use xlink:href="#DejaVuSans-65" x="2040.197266"/>
      <use xlink:href="#DejaVuSans-64" x="2101.720703"/>
      <use xlink:href="#DejaVuSans-20" x="2165.197266"/>
      <use xlink:href="#DejaVuSans-4f" x="2196.984375"/>
      <use xlink:href="#DejaVuSans-75" x="2275.695312"/>
      <use xlink:href="#DejaVuSans-74" x="2339.074219"/>
      <use xlink:href="#DejaVuSans-70" x="2378.283203"/>
      <use xlink:href="#DejaVuSans-75" x="2441.759766"/>
      <use xlink:href="#DejaVuSans-74" x="2505.138672"/>
     </g>
    </g>
   </g>
  </g>
 </g>
 <defs>
  <clipPath id="p00e0608045">
   <rect x="55.4275" y="31.165625" width="558" height="332.64"/>
  </clipPath>
 </defs>
</svg>
