<?xml version="1.0" encoding="utf-8" standalone="no"?>
<!DOCTYPE svg PUBLIC "-//W3C//DTD SVG 1.1//EN"
  "http://www.w3.org/Graphics/SVG/1.1/DTD/svg11.dtd">
<svg xmlns:xlink="http://www.w3.org/1999/xlink" width="720pt" height="432pt" viewBox="0 0 720 432" xmlns="http://www.w3.org/2000/svg" version="1.1">
 <metadata>
  <rdf:RDF xmlns:dc="http://purl.org/dc/elements/1.1/" xmlns:cc="http://creativecommons.org/ns#" xmlns:rdf="http://www.w3.org/1999/02/22-rdf-syntax-ns#">
   <cc:Work>
    <dc:type rdf:resource="http://purl.org/dc/dcmitype/StillImage"/>
    <dc:date>2023-05-26T18:46:21.254334</dc:date>
    <dc:format>image/svg+xml</dc:format>
    <dc:creator>
     <cc:Agent>
      <dc:title>Matplotlib v3.5.3, https://matplotlib.org/</dc:title>
     </cc:Agent>
    </dc:creator>
   </cc:Work>
  </rdf:RDF>
 </metadata>
 <defs>
  <style type="text/css">*{stroke-linejoin: round; stroke-linecap: butt}</style>
 </defs>
 <g id="figure_1">
  <g id="patch_1">
   <path d="M 0 432 
L 720 432 
L 720 0 
L 0 0 
z
" style="fill: #ffffff"/>
  </g>
  <g id="axes_1">
   <g id="patch_2">
    <path d="M 90 384.48 
L 648 384.48 
L 648 51.84 
L 90 51.84 
z
" style="fill: #e6f2ff"/>
   </g>
   <g id="matplotlib.axis_1">
    <g id="xtick_1">
     <g id="line2d_1">
      <path d="M 115.363636 384.48 
L 115.363636 51.84 
" clip-path="url(#p0892354102)" style="fill: none; stroke: #ffffff; stroke-width: 2; stroke-linecap: square"/>
     </g>
     <g id="line2d_2">
      <defs>
       <path id="m3c901a06f8" d="M 0 0 
L 0 3.5 
" style="stroke: #000000; stroke-width: 0.8"/>
      </defs>
      <g>
       <use xlink:href="#m3c901a06f8" x="115.363636" y="384.48" style="stroke: #000000; stroke-width: 0.8"/>
      </g>
     </g>
     <g id="text_1">
      <!-- 1 -->
      <g transform="translate(110.273636 403.6375)scale(0.16 -0.16)">
       <defs>
        <path id="DejaVuSans-31" d="M 794 531 
L 1825 531 
L 1825 4091 
L 703 3866 
L 703 4441 
L 1819 4666 
L 2450 4666 
L 2450 531 
L 3481 531 
L 3481 0 
L 794 0 
L 794 531 
z
" transform="scale(0.015625)"/>
       </defs>
       <use xlink:href="#DejaVuSans-31"/>
      </g>
     </g>
    </g>
    <g id="xtick_2">
     <g id="line2d_3">
      <path d="M 216.818182 384.48 
L 216.818182 51.84 
" clip-path="url(#p0892354102)" style="fill: none; stroke: #ffffff; stroke-width: 2; stroke-linecap: square"/>
     </g>
     <g id="line2d_4">
      <g>
       <use xlink:href="#m3c901a06f8" x="216.818182" y="384.48" style="stroke: #000000; stroke-width: 0.8"/>
      </g>
     </g>
     <g id="text_2">
      <!-- 2 -->
      <g transform="translate(211.728182 403.6375)scale(0.16 -0.16)">
       <defs>
        <path id="DejaVuSans-32" d="M 1228 531 
L 3431 531 
L 3431 0 
L 469 0 
L 469 531 
Q 828 903 1448 1529 
Q 2069 2156 2228 2338 
Q 2531 2678 2651 2914 
Q 2772 3150 2772 3378 
Q 2772 3750 2511 3984 
Q 2250 4219 1831 4219 
Q 1534 4219 1204 4116 
Q 875 4013 500 3803 
L 500 4441 
Q 881 4594 1212 4672 
Q 1544 4750 1819 4750 
Q 2544 4750 2975 4387 
Q 3406 4025 3406 3419 
Q 3406 3131 3298 2873 
Q 3191 2616 2906 2266 
Q 2828 2175 2409 1742 
Q 1991 1309 1228 531 
z
" transform="scale(0.015625)"/>
       </defs>
       <use xlink:href="#DejaVuSans-32"/>
      </g>
     </g>
    </g>
    <g id="xtick_3">
     <g id="line2d_5">
      <path d="M 318.272727 384.48 
L 318.272727 51.84 
" clip-path="url(#p0892354102)" style="fill: none; stroke: #ffffff; stroke-width: 2; stroke-linecap: square"/>
     </g>
     <g id="line2d_6">
      <g>
       <use xlink:href="#m3c901a06f8" x="318.272727" y="384.48" style="stroke: #000000; stroke-width: 0.8"/>
      </g>
     </g>
     <g id="text_3">
      <!-- 3 -->
      <g transform="translate(313.182727 403.6375)scale(0.16 -0.16)">
       <defs>
        <path id="DejaVuSans-33" d="M 2597 2516 
Q 3050 2419 3304 2112 
Q 3559 1806 3559 1356 
Q 3559 666 3084 287 
Q 2609 -91 1734 -91 
Q 1441 -91 1130 -33 
Q 819 25 488 141 
L 488 750 
Q 750 597 1062 519 
Q 1375 441 1716 441 
Q 2309 441 2620 675 
Q 2931 909 2931 1356 
Q 2931 1769 2642 2001 
Q 2353 2234 1838 2234 
L 1294 2234 
L 1294 2753 
L 1863 2753 
Q 2328 2753 2575 2939 
Q 2822 3125 2822 3475 
Q 2822 3834 2567 4026 
Q 2313 4219 1838 4219 
Q 1578 4219 1281 4162 
Q 984 4106 628 3988 
L 628 4550 
Q 988 4650 1302 4700 
Q 1616 4750 1894 4750 
Q 2613 4750 3031 4423 
Q 3450 4097 3450 3541 
Q 3450 3153 3228 2886 
Q 3006 2619 2597 2516 
z
" transform="scale(0.015625)"/>
       </defs>
       <use xlink:href="#DejaVuSans-33"/>
      </g>
     </g>
    </g>
    <g id="xtick_4">
     <g id="line2d_7">
      <path d="M 419.727273 384.48 
L 419.727273 51.84 
" clip-path="url(#p0892354102)" style="fill: none; stroke: #ffffff; stroke-width: 2; stroke-linecap: square"/>
     </g>
     <g id="line2d_8">
      <g>
       <use xlink:href="#m3c901a06f8" x="419.727273" y="384.48" style="stroke: #000000; stroke-width: 0.8"/>
      </g>
     </g>
     <g id="text_4">
      <!-- 4 -->
      <g transform="translate(414.637273 403.6375)scale(0.16 -0.16)">
       <defs>
        <path id="DejaVuSans-34" d="M 2419 4116 
L 825 1625 
L 2419 1625 
L 2419 4116 
z
M 2253 4666 
L 3047 4666 
L 3047 1625 
L 3713 1625 
L 3713 1100 
L 3047 1100 
L 3047 0 
L 2419 0 
L 2419 1100 
L 313 1100 
L 313 1709 
L 2253 4666 
z
" transform="scale(0.015625)"/>
       </defs>
       <use xlink:href="#DejaVuSans-34"/>
      </g>
     </g>
    </g>
    <g id="xtick_5">
     <g id="line2d_9">
      <path d="M 521.181818 384.48 
L 521.181818 51.84 
" clip-path="url(#p0892354102)" style="fill: none; stroke: #ffffff; stroke-width: 2; stroke-linecap: square"/>
     </g>
     <g id="line2d_10">
      <g>
       <use xlink:href="#m3c901a06f8" x="521.181818" y="384.48" style="stroke: #000000; stroke-width: 0.8"/>
      </g>
     </g>
     <g id="text_5">
      <!-- 5 -->
      <g transform="translate(516.091818 403.6375)scale(0.16 -0.16)">
       <defs>
        <path id="DejaVuSans-35" d="M 691 4666 
L 3169 4666 
L 3169 4134 
L 1269 4134 
L 1269 2991 
Q 1406 3038 1543 3061 
Q 1681 3084 1819 3084 
Q 2600 3084 3056 2656 
Q 3513 2228 3513 1497 
Q 3513 744 3044 326 
Q 2575 -91 1722 -91 
Q 1428 -91 1123 -41 
Q 819 9 494 109 
L 494 744 
Q 775 591 1075 516 
Q 1375 441 1709 441 
Q 2250 441 2565 725 
Q 2881 1009 2881 1497 
Q 2881 1984 2565 2268 
Q 2250 2553 1709 2553 
Q 1456 2553 1204 2497 
Q 953 2441 691 2322 
L 691 4666 
z
" transform="scale(0.015625)"/>
       </defs>
       <use xlink:href="#DejaVuSans-35"/>
      </g>
     </g>
    </g>
    <g id="xtick_6">
     <g id="line2d_11">
      <path d="M 622.636364 384.48 
L 622.636364 51.84 
" clip-path="url(#p0892354102)" style="fill: none; stroke: #ffffff; stroke-width: 2; stroke-linecap: square"/>
     </g>
     <g id="line2d_12">
      <g>
       <use xlink:href="#m3c901a06f8" x="622.636364" y="384.48" style="stroke: #000000; stroke-width: 0.8"/>
      </g>
     </g>
     <g id="text_6">
      <!-- 6 -->
      <g transform="translate(617.546364 403.6375)scale(0.16 -0.16)">
       <defs>
        <path id="DejaVuSans-36" d="M 2113 2584 
Q 1688 2584 1439 2293 
Q 1191 2003 1191 1497 
Q 1191 994 1439 701 
Q 1688 409 2113 409 
Q 2538 409 2786 701 
Q 3034 994 3034 1497 
Q 3034 2003 2786 2293 
Q 2538 2584 2113 2584 
z
M 3366 4563 
L 3366 3988 
Q 3128 4100 2886 4159 
Q 2644 4219 2406 4219 
Q 1781 4219 1451 3797 
Q 1122 3375 1075 2522 
Q 1259 2794 1537 2939 
Q 1816 3084 2150 3084 
Q 2853 3084 3261 2657 
Q 3669 2231 3669 1497 
Q 3669 778 3244 343 
Q 2819 -91 2113 -91 
Q 1303 -91 875 529 
Q 447 1150 447 2328 
Q 447 3434 972 4092 
Q 1497 4750 2381 4750 
Q 2619 4750 2861 4703 
Q 3103 4656 3366 4563 
z
" transform="scale(0.015625)"/>
       </defs>
       <use xlink:href="#DejaVuSans-36"/>
      </g>
     </g>
    </g>
   </g>
   <g id="matplotlib.axis_2">
    <g id="ytick_1">
     <g id="line2d_13">
      <path d="M 90 354.518282 
L 648 354.518282 
" clip-path="url(#p0892354102)" style="fill: none; stroke: #ffffff; stroke-width: 2; stroke-linecap: square"/>
     </g>
     <g id="line2d_14">
      <defs>
       <path id="m25e53130d5" d="M 0 0 
L -3.5 0 
" style="stroke: #000000; stroke-width: 0.8"/>
      </defs>
      <g>
       <use xlink:href="#m25e53130d5" x="90" y="354.518282" style="stroke: #000000; stroke-width: 0.8"/>
      </g>
     </g>
     <g id="text_7">
      <!-- 20 -->
      <g transform="translate(62.64 360.597032)scale(0.16 -0.16)">
       <defs>
        <path id="DejaVuSans-30" d="M 2034 4250 
Q 1547 4250 1301 3770 
Q 1056 3291 1056 2328 
Q 1056 1369 1301 889 
Q 1547 409 2034 409 
Q 2525 409 2770 889 
Q 3016 1369 3016 2328 
Q 3016 3291 2770 3770 
Q 2525 4250 2034 4250 
z
M 2034 4750 
Q 2819 4750 3233 4129 
Q 3647 3509 3647 2328 
Q 3647 1150 3233 529 
Q 2819 -91 2034 -91 
Q 1250 -91 836 529 
Q 422 1150 422 2328 
Q 422 3509 836 4129 
Q 1250 4750 2034 4750 
z
" transform="scale(0.015625)"/>
       </defs>
       <use xlink:href="#DejaVuSans-32"/>
       <use xlink:href="#DejaVuSans-30" x="63.623047"/>
      </g>
     </g>
    </g>
    <g id="ytick_2">
     <g id="line2d_15">
      <path d="M 90 308.137914 
L 648 308.137914 
" clip-path="url(#p0892354102)" style="fill: none; stroke: #ffffff; stroke-width: 2; stroke-linecap: square"/>
     </g>
     <g id="line2d_16">
      <g>
       <use xlink:href="#m25e53130d5" x="90" y="308.137914" style="stroke: #000000; stroke-width: 0.8"/>
      </g>
     </g>
     <g id="text_8">
      <!-- 40 -->
      <g transform="translate(62.64 314.216664)scale(0.16 -0.16)">
       <use xlink:href="#DejaVuSans-34"/>
       <use xlink:href="#DejaVuSans-30" x="63.623047"/>
      </g>
     </g>
    </g>
    <g id="ytick_3">
     <g id="line2d_17">
      <path d="M 90 261.757546 
L 648 261.757546 
" clip-path="url(#p0892354102)" style="fill: none; stroke: #ffffff; stroke-width: 2; stroke-linecap: square"/>
     </g>
     <g id="line2d_18">
      <g>
       <use xlink:href="#m25e53130d5" x="90" y="261.757546" style="stroke: #000000; stroke-width: 0.8"/>
      </g>
     </g>
     <g id="text_9">
      <!-- 60 -->
      <g transform="translate(62.64 267.836296)scale(0.16 -0.16)">
       <use xlink:href="#DejaVuSans-36"/>
       <use xlink:href="#DejaVuSans-30" x="63.623047"/>
      </g>
     </g>
    </g>
    <g id="ytick_4">
     <g id="line2d_19">
      <path d="M 90 215.377178 
L 648 215.377178 
" clip-path="url(#p0892354102)" style="fill: none; stroke: #ffffff; stroke-width: 2; stroke-linecap: square"/>
     </g>
     <g id="line2d_20">
      <g>
       <use xlink:href="#m25e53130d5" x="90" y="215.377178" style="stroke: #000000; stroke-width: 0.8"/>
      </g>
     </g>
     <g id="text_10">
      <!-- 80 -->
      <g transform="translate(62.64 221.455928)scale(0.16 -0.16)">
       <defs>
        <path id="DejaVuSans-38" d="M 2034 2216 
Q 1584 2216 1326 1975 
Q 1069 1734 1069 1313 
Q 1069 891 1326 650 
Q 1584 409 2034 409 
Q 2484 409 2743 651 
Q 3003 894 3003 1313 
Q 3003 1734 2745 1975 
Q 2488 2216 2034 2216 
z
M 1403 2484 
Q 997 2584 770 2862 
Q 544 3141 544 3541 
Q 544 4100 942 4425 
Q 1341 4750 2034 4750 
Q 2731 4750 3128 4425 
Q 3525 4100 3525 3541 
Q 3525 3141 3298 2862 
Q 3072 2584 2669 2484 
Q 3125 2378 3379 2068 
Q 3634 1759 3634 1313 
Q 3634 634 3220 271 
Q 2806 -91 2034 -91 
Q 1263 -91 848 271 
Q 434 634 434 1313 
Q 434 1759 690 2068 
Q 947 2378 1403 2484 
z
M 1172 3481 
Q 1172 3119 1398 2916 
Q 1625 2713 2034 2713 
Q 2441 2713 2670 2916 
Q 2900 3119 2900 3481 
Q 2900 3844 2670 4047 
Q 2441 4250 2034 4250 
Q 1625 4250 1398 4047 
Q 1172 3844 1172 3481 
z
" transform="scale(0.015625)"/>
       </defs>
       <use xlink:href="#DejaVuSans-38"/>
       <use xlink:href="#DejaVuSans-30" x="63.623047"/>
      </g>
     </g>
    </g>
    <g id="ytick_5">
     <g id="line2d_21">
      <path d="M 90 168.99681 
L 648 168.99681 
" clip-path="url(#p0892354102)" style="fill: none; stroke: #ffffff; stroke-width: 2; stroke-linecap: square"/>
     </g>
     <g id="line2d_22">
      <g>
       <use xlink:href="#m25e53130d5" x="90" y="168.99681" style="stroke: #000000; stroke-width: 0.8"/>
      </g>
     </g>
     <g id="text_11">
      <!-- 100 -->
      <g transform="translate(52.46 175.07556)scale(0.16 -0.16)">
       <use xlink:href="#DejaVuSans-31"/>
       <use xlink:href="#DejaVuSans-30" x="63.623047"/>
       <use xlink:href="#DejaVuSans-30" x="127.246094"/>
      </g>
     </g>
    </g>
    <g id="ytick_6">
     <g id="line2d_23">
      <path d="M 90 122.616442 
L 648 122.616442 
" clip-path="url(#p0892354102)" style="fill: none; stroke: #ffffff; stroke-width: 2; stroke-linecap: square"/>
     </g>
     <g id="line2d_24">
      <g>
       <use xlink:href="#m25e53130d5" x="90" y="122.616442" style="stroke: #000000; stroke-width: 0.8"/>
      </g>
     </g>
     <g id="text_12">
      <!-- 120 -->
      <g transform="translate(52.46 128.695192)scale(0.16 -0.16)">
       <use xlink:href="#DejaVuSans-31"/>
       <use xlink:href="#DejaVuSans-32" x="63.623047"/>
       <use xlink:href="#DejaVuSans-30" x="127.246094"/>
      </g>
     </g>
    </g>
    <g id="ytick_7">
     <g id="line2d_25">
      <path d="M 90 76.236074 
L 648 76.236074 
" clip-path="url(#p0892354102)" style="fill: none; stroke: #ffffff; stroke-width: 2; stroke-linecap: square"/>
     </g>
     <g id="line2d_26">
      <g>
       <use xlink:href="#m25e53130d5" x="90" y="76.236074" style="stroke: #000000; stroke-width: 0.8"/>
      </g>
     </g>
     <g id="text_13">
      <!-- 140 -->
      <g transform="translate(52.46 82.314824)scale(0.16 -0.16)">
       <use xlink:href="#DejaVuSans-31"/>
       <use xlink:href="#DejaVuSans-34" x="63.623047"/>
       <use xlink:href="#DejaVuSans-30" x="127.246094"/>
      </g>
     </g>
    </g>
   </g>
   <g id="line2d_27">
    <path d="M 115.363636 345.242209 
L 216.818182 289.585767 
L 318.272727 233.929325 
L 419.727273 178.272883 
L 521.181818 122.616442 
L 622.636364 66.96 
" clip-path="url(#p0892354102)" style="fill: none; stroke: #9b5c6f; stroke-width: 2.5; stroke-linecap: square"/>
    <defs>
     <path id="m1f65c8cbe3" d="M 0 3 
C 0.795609 3 1.55874 2.683901 2.12132 2.12132 
C 2.683901 1.55874 3 0.795609 3 0 
C 3 -0.795609 2.683901 -1.55874 2.12132 -2.12132 
C 1.55874 -2.683901 0.795609 -3 0 -3 
C -0.795609 -3 -1.55874 -2.683901 -2.12132 -2.12132 
C -2.683901 -1.55874 -3 -0.795609 -3 0 
C -3 0.795609 -2.683901 1.55874 -2.12132 2.12132 
C -1.55874 2.683901 -0.795609 3 0 3 
z
" style="stroke: #9b5c6f"/>
    </defs>
    <g clip-path="url(#p0892354102)">
     <use xlink:href="#m1f65c8cbe3" x="115.363636" y="345.242209" style="fill: #9b5c6f; stroke: #9b5c6f"/>
     <use xlink:href="#m1f65c8cbe3" x="216.818182" y="289.585767" style="fill: #9b5c6f; stroke: #9b5c6f"/>
     <use xlink:href="#m1f65c8cbe3" x="318.272727" y="233.929325" style="fill: #9b5c6f; stroke: #9b5c6f"/>
     <use xlink:href="#m1f65c8cbe3" x="419.727273" y="178.272883" style="fill: #9b5c6f; stroke: #9b5c6f"/>
     <use xlink:href="#m1f65c8cbe3" x="521.181818" y="122.616442" style="fill: #9b5c6f; stroke: #9b5c6f"/>
     <use xlink:href="#m1f65c8cbe3" x="622.636364" y="66.96" style="fill: #9b5c6f; stroke: #9b5c6f"/>
    </g>
   </g>
   <g id="line2d_28">
    <path d="M 115.363636 367.504785 
L 216.818182 351.387607 
L 318.272727 337.357546 
L 419.727273 323.443436 
L 521.181818 311.152638 
L 622.636364 294.919509 
" clip-path="url(#p0892354102)" style="fill: none; stroke: #537b8d; stroke-width: 2.5; stroke-linecap: square"/>
    <defs>
     <path id="m8e7a4d1572" d="M 0 1.5 
C 0.397805 1.5 0.77937 1.341951 1.06066 1.06066 
C 1.341951 0.77937 1.5 0.397805 1.5 0 
C 1.5 -0.397805 1.341951 -0.77937 1.06066 -1.06066 
C 0.77937 -1.341951 0.397805 -1.5 0 -1.5 
C -0.397805 -1.5 -0.77937 -1.341951 -1.06066 -1.06066 
C -1.341951 -0.77937 -1.5 -0.397805 -1.5 0 
C -1.5 0.397805 -1.341951 0.77937 -1.06066 1.06066 
C -0.77937 1.341951 -0.397805 1.5 0 1.5 
z
" style="stroke: #537b8d"/>
    </defs>
    <g clip-path="url(#p0892354102)">
     <use xlink:href="#m8e7a4d1572" x="115.363636" y="367.504785" style="fill: #537b8d; stroke: #537b8d"/>
     <use xlink:href="#m8e7a4d1572" x="216.818182" y="351.387607" style="fill: #537b8d; stroke: #537b8d"/>
     <use xlink:href="#m8e7a4d1572" x="318.272727" y="337.357546" style="fill: #537b8d; stroke: #537b8d"/>
     <use xlink:href="#m8e7a4d1572" x="419.727273" y="323.443436" style="fill: #537b8d; stroke: #537b8d"/>
     <use xlink:href="#m8e7a4d1572" x="521.181818" y="311.152638" style="fill: #537b8d; stroke: #537b8d"/>
     <use xlink:href="#m8e7a4d1572" x="622.636364" y="294.919509" style="fill: #537b8d; stroke: #537b8d"/>
    </g>
   </g>
   <g id="line2d_29">
    <path d="M 115.363636 367.504785 
L 216.818182 359.156319 
L 318.272727 352.431166 
L 419.727273 345.937914 
L 521.181818 340.836074 
L 622.636364 334.342822 
" clip-path="url(#p0892354102)" style="fill: none; stroke: #776d8a; stroke-width: 2.5; stroke-linecap: square"/>
    <defs>
     <path id="m65d77bf3f8" d="M 0 -3 
L -2.85317 -0.927051 
L -1.763356 2.427051 
L 1.763356 2.427051 
L 2.85317 -0.927051 
z
" style="stroke: #776d8a; stroke-linejoin: miter"/>
    </defs>
    <g clip-path="url(#p0892354102)">
     <use xlink:href="#m65d77bf3f8" x="115.363636" y="367.504785" style="fill: #776d8a; stroke: #776d8a; stroke-linejoin: miter"/>
     <use xlink:href="#m65d77bf3f8" x="216.818182" y="359.156319" style="fill: #776d8a; stroke: #776d8a; stroke-linejoin: miter"/>
     <use xlink:href="#m65d77bf3f8" x="318.272727" y="352.431166" style="fill: #776d8a; stroke: #776d8a; stroke-linejoin: miter"/>
     <use xlink:href="#m65d77bf3f8" x="419.727273" y="345.937914" style="fill: #776d8a; stroke: #776d8a; stroke-linejoin: miter"/>
     <use xlink:href="#m65d77bf3f8" x="521.181818" y="340.836074" style="fill: #776d8a; stroke: #776d8a; stroke-linejoin: miter"/>
     <use xlink:href="#m65d77bf3f8" x="622.636364" y="334.342822" style="fill: #776d8a; stroke: #776d8a; stroke-linejoin: miter"/>
    </g>
   </g>
   <g id="line2d_30">
    <path d="M 115.363636 369.36 
L 216.818182 362.379755 
L 318.272727 357.764908 
L 419.727273 352.894969 
L 521.181818 348.488834 
L 622.636364 343.618896 
" clip-path="url(#p0892354102)" style="fill: none; stroke: #a2803a; stroke-width: 2.5; stroke-linecap: square"/>
    <defs>
     <path id="m334f9c3347" d="M -0 3 
L 3 -3 
L -3 -3 
z
" style="stroke: #a2803a; stroke-linejoin: miter"/>
    </defs>
    <g clip-path="url(#p0892354102)">
     <use xlink:href="#m334f9c3347" x="115.363636" y="369.36" style="fill: #a2803a; stroke: #a2803a; stroke-linejoin: miter"/>
     <use xlink:href="#m334f9c3347" x="216.818182" y="362.379755" style="fill: #a2803a; stroke: #a2803a; stroke-linejoin: miter"/>
     <use xlink:href="#m334f9c3347" x="318.272727" y="357.764908" style="fill: #a2803a; stroke: #a2803a; stroke-linejoin: miter"/>
     <use xlink:href="#m334f9c3347" x="419.727273" y="352.894969" style="fill: #a2803a; stroke: #a2803a; stroke-linejoin: miter"/>
     <use xlink:href="#m334f9c3347" x="521.181818" y="348.488834" style="fill: #a2803a; stroke: #a2803a; stroke-linejoin: miter"/>
     <use xlink:href="#m334f9c3347" x="622.636364" y="343.618896" style="fill: #a2803a; stroke: #a2803a; stroke-linejoin: miter"/>
    </g>
   </g>
   <g id="patch_3">
    <path d="M 90 384.48 
L 90 51.84 
" style="fill: none; stroke: #000000; stroke-width: 0.8; stroke-linejoin: miter; stroke-linecap: square"/>
   </g>
   <g id="patch_4">
    <path d="M 648 384.48 
L 648 51.84 
" style="fill: none; stroke: #000000; stroke-width: 0.8; stroke-linejoin: miter; stroke-linecap: square"/>
   </g>
   <g id="patch_5">
    <path d="M 90 384.48 
L 648 384.48 
" style="fill: none; stroke: #000000; stroke-width: 0.8; stroke-linejoin: miter; stroke-linecap: square"/>
   </g>
   <g id="patch_6">
    <path d="M 90 51.84 
L 648 51.84 
" style="fill: none; stroke: #000000; stroke-width: 0.8; stroke-linejoin: miter; stroke-linecap: square"/>
   </g>
   <g id="text_14">
    <!-- Rendering time (ms) for increasing number of samples -->
    <g transform="translate(124.741562 35.84)scale(0.22 -0.22)">
     <defs>
      <path id="LinLibertine-52" d="M 1741 3956 
Q 1209 3956 1209 3547 
L 1209 2081 
L 1516 2081 
Q 2034 2081 2312 2292 
Q 2591 2503 2591 3059 
Q 2591 3956 1741 3956 
z
M 1209 781 
Q 1209 397 1309 305 
Q 1409 213 1766 197 
Q 1791 166 1791 89 
Q 1791 13 1766 -13 
Q 1125 0 941 0 
Q 734 0 109 -13 
Q 78 13 78 89 
Q 78 166 109 197 
Q 469 209 567 303 
Q 666 397 666 781 
L 666 3347 
Q 666 3731 567 3823 
Q 469 3916 109 3928 
Q 78 3953 78 4031 
Q 78 4109 109 4141 
Q 750 4128 934 4128 
Q 1069 4128 1366 4150 
Q 1663 4172 1734 4172 
Q 2113 4172 2375 4114 
Q 2638 4056 2841 3866 
Q 3181 3547 3181 3066 
Q 3181 2625 2903 2347 
Q 2625 2069 2328 1972 
L 3138 628 
Q 3284 384 3418 259 
Q 3553 134 3750 134 
Q 3794 50 3756 -19 
Q 3666 -63 3488 -63 
Q 2994 -63 2644 506 
L 1959 1619 
Q 1881 1747 1731 1805 
Q 1581 1863 1209 1863 
L 1209 781 
z
" transform="scale(0.015625)"/>
      <path id="LinLibertine-65" d="M 794 1806 
L 1953 1825 
Q 2050 1825 2047 1913 
Q 2047 2278 1890 2431 
Q 1734 2584 1516 2584 
Q 1431 2584 1350 2562 
Q 1269 2541 1150 2470 
Q 1031 2400 934 2228 
Q 838 2056 794 1806 
z
M 2472 594 
Q 2581 588 2606 494 
Q 2178 -63 1516 -63 
Q 881 -63 538 347 
Q 238 694 238 1294 
Q 238 1972 644 2384 
Q 1050 2797 1516 2797 
Q 2597 2797 2597 1684 
Q 2597 1575 2478 1575 
L 775 1588 
Q 775 1050 978 709 
Q 1259 250 1678 250 
Q 1947 250 2117 326 
Q 2288 403 2472 594 
z
" transform="scale(0.015625)"/>
      <path id="LinLibertine-6e" d="M 1178 2291 
Q 1647 2809 2228 2809 
Q 2594 2809 2759 2591 
Q 2931 2359 2931 1734 
L 2931 781 
Q 2931 403 3004 314 
Q 3078 225 3359 197 
Q 3384 172 3384 95 
Q 3384 19 3359 -13 
Q 2809 0 2681 0 
Q 2566 0 2028 -13 
Q 2003 13 2003 89 
Q 2003 166 2028 197 
Q 2291 222 2358 312 
Q 2425 403 2425 781 
L 2425 1753 
Q 2425 2094 2350 2247 
Q 2228 2478 2009 2478 
Q 1619 2478 1228 2100 
Q 1119 1978 1119 1831 
L 1119 781 
Q 1119 403 1183 314 
Q 1247 225 1503 197 
Q 1534 166 1536 89 
Q 1538 13 1503 -13 
Q 966 0 872 0 
Q 694 0 166 -13 
Q 141 13 141 89 
Q 141 166 166 197 
Q 466 222 541 309 
Q 616 397 616 781 
L 616 2028 
Q 616 2297 542 2367 
Q 469 2438 197 2463 
Q 159 2572 184 2644 
Q 684 2706 991 2828 
Q 1041 2828 1069 2778 
Q 1119 2663 1119 2291 
Q 1122 2213 1178 2291 
z
" transform="scale(0.015625)"/>
      <path id="LinLibertine-64" d="M 2209 794 
L 2209 2009 
Q 2209 2156 2189 2217 
Q 2169 2278 2100 2356 
Q 1903 2588 1581 2584 
Q 1197 2584 984 2266 
Q 800 2003 800 1416 
Q 800 853 1011 545 
Q 1222 238 1503 238 
Q 1753 238 2106 544 
Q 2209 634 2209 794 
z
M 2138 322 
Q 1669 -63 1338 -63 
Q 831 -63 540 314 
Q 250 691 250 1300 
Q 250 1984 691 2425 
Q 1094 2809 1650 2809 
Q 1747 2809 1862 2781 
Q 1978 2753 2061 2726 
Q 2144 2700 2150 2700 
Q 2206 2700 2209 2759 
L 2209 3578 
Q 2209 3784 2198 3886 
Q 2188 3988 2117 4036 
Q 2047 4084 2009 4087 
Q 1972 4091 1797 4103 
Q 1725 4175 1759 4294 
Q 2328 4338 2656 4469 
Q 2741 4469 2741 4403 
Q 2716 4147 2713 3731 
L 2713 831 
Q 2713 581 2800 486 
Q 2888 391 3181 366 
Q 3213 334 3213 276 
Q 3213 219 3181 191 
Q 2644 128 2406 -63 
Q 2334 -81 2284 -63 
Q 2213 163 2216 313 
Q 2216 328 2208 336 
Q 2200 344 2187 344 
Q 2175 344 2162 337 
Q 2150 331 2138 322 
z
" transform="scale(0.015625)"/>
      <path id="LinLibertine-72" d="M 1147 2291 
Q 1147 2259 1156 2246 
Q 1166 2234 1197 2278 
Q 1325 2497 1514 2653 
Q 1703 2809 1906 2809 
Q 2091 2809 2191 2711 
Q 2291 2613 2291 2503 
Q 2291 2381 2198 2281 
Q 2106 2181 1991 2181 
Q 1947 2181 1901 2204 
Q 1856 2228 1834 2250 
Q 1813 2272 1777 2314 
Q 1741 2356 1728 2369 
Q 1684 2413 1594 2413 
Q 1516 2413 1300 2100 
Q 1147 1869 1147 1672 
L 1147 781 
Q 1147 397 1233 311 
Q 1319 225 1672 197 
Q 1703 166 1703 89 
Q 1703 13 1672 -13 
Q 1122 0 897 0 
Q 706 0 166 -13 
Q 141 13 141 89 
Q 141 166 166 197 
Q 478 216 559 306 
Q 641 397 641 781 
L 641 2028 
Q 641 2297 567 2367 
Q 494 2438 225 2463 
Q 188 2572 213 2644 
Q 713 2706 1019 2828 
Q 1069 2828 1094 2778 
Q 1147 2663 1147 2291 
z
" transform="scale(0.015625)"/>
      <path id="LinLibertine-69" d="M 575 3834 
Q 575 3950 684 4045 
Q 794 4141 909 4141 
Q 1031 4141 1123 4034 
Q 1216 3928 1216 3809 
Q 1216 3700 1114 3600 
Q 1013 3500 884 3500 
Q 769 3500 672 3606 
Q 575 3713 575 3834 
z
M 1159 781 
Q 1159 397 1236 308 
Q 1313 219 1619 197 
Q 1650 166 1650 89 
Q 1650 13 1619 -13 
Q 1069 0 909 0 
Q 731 0 191 -13 
Q 166 13 166 89 
Q 166 166 191 197 
Q 497 222 575 309 
Q 653 397 653 781 
L 653 2028 
Q 653 2297 579 2367 
Q 506 2438 238 2463 
Q 200 2572 225 2644 
Q 819 2722 1100 2828 
Q 1184 2828 1184 2784 
Q 1184 2769 1181 2739 
Q 1178 2709 1175 2620 
Q 1172 2531 1167 2448 
Q 1163 2366 1161 2256 
Q 1159 2147 1159 2056 
L 1159 781 
z
" transform="scale(0.015625)"/>
      <path id="LinLibertine-67" d="M 2041 1784 
Q 2041 2181 1881 2397 
Q 1722 2613 1422 2613 
Q 909 2613 909 1931 
Q 909 1753 928 1622 
Q 947 1491 1005 1353 
Q 1063 1216 1188 1142 
Q 1313 1069 1503 1069 
Q 2041 1069 2041 1784 
z
M 844 -63 
Q 647 -300 647 -666 
Q 647 -953 915 -1120 
Q 1184 -1288 1416 -1288 
Q 1716 -1288 1997 -1209 
Q 2278 -1131 2473 -965 
Q 2669 -800 2669 -581 
Q 2669 -459 2598 -376 
Q 2528 -294 2344 -184 
Q 2147 -75 1569 -78 
Q 1538 -78 1377 -87 
Q 1216 -97 1100 -97 
Q 959 -94 844 -63 
z
M 2841 2478 
Q 2719 2478 2663 2591 
Q 2613 2669 2534 2669 
Q 2478 2669 2397 2617 
Q 2316 2566 2278 2516 
Q 2553 2234 2553 1850 
Q 2553 1403 2236 1137 
Q 1919 872 1472 872 
Q 1119 872 891 1006 
Q 775 847 775 634 
Q 775 450 897 359 
Q 1019 269 1184 269 
L 1375 281 
Q 1631 313 1806 313 
Q 2484 313 2741 103 
Q 3022 -128 3022 -416 
Q 3022 -747 2750 -1008 
Q 2478 -1269 2070 -1395 
Q 1663 -1522 1222 -1522 
Q 794 -1522 500 -1350 
Q 206 -1178 206 -794 
Q 206 -334 728 -19 
Q 434 128 434 475 
Q 434 647 511 830 
Q 588 1013 716 1119 
Q 384 1438 384 1838 
Q 384 2266 711 2537 
Q 1038 2809 1478 2809 
Q 1875 2809 2144 2631 
Q 2259 2784 2451 2870 
Q 2644 2956 2784 2956 
Q 2913 2956 2995 2889 
Q 3078 2822 3078 2719 
Q 3078 2622 3004 2550 
Q 2931 2478 2841 2478 
z
" transform="scale(0.015625)"/>
      <path id="LinLibertine-20" transform="scale(0.015625)"/>
      <path id="LinLibertine-74" d="M 275 2747 
L 569 2747 
Q 569 2944 567 3086 
Q 566 3228 562 3293 
Q 559 3359 556 3396 
Q 553 3434 551 3453 
Q 550 3472 550 3488 
Q 550 3509 575 3528 
Q 600 3547 629 3556 
Q 659 3566 711 3581 
Q 763 3597 794 3609 
Q 831 3625 890 3656 
Q 950 3688 990 3706 
Q 1031 3725 1050 3725 
Q 1100 3725 1100 3669 
Q 1075 3413 1075 2994 
L 1075 2747 
L 1844 2747 
Q 1894 2747 1894 2706 
L 1894 2578 
Q 1894 2494 1741 2497 
L 1075 2497 
L 1075 878 
Q 1075 566 1120 427 
Q 1166 288 1288 288 
Q 1581 288 1813 469 
Q 1909 463 1925 359 
Q 1547 -63 1063 -63 
Q 569 -63 569 569 
L 569 2497 
L 191 2497 
Q 159 2497 159 2534 
L 159 2619 
Q 159 2747 275 2747 
z
" transform="scale(0.015625)"/>
      <path id="LinLibertine-6d" d="M 1106 2291 
Q 1106 2213 1150 2275 
Q 1159 2284 1166 2291 
Q 1659 2809 2138 2809 
Q 2381 2809 2556 2676 
Q 2731 2544 2778 2341 
Q 2794 2278 2847 2338 
Q 3006 2506 3197 2615 
Q 3388 2725 3559 2767 
Q 3731 2809 3903 2809 
Q 4294 2809 4428 2546 
Q 4563 2284 4563 1791 
L 4563 781 
Q 4563 397 4630 308 
Q 4697 219 4972 197 
Q 4997 172 4997 95 
Q 4997 19 4972 -13 
Q 4422 0 4313 0 
Q 4197 0 3659 -13 
Q 3634 19 3634 95 
Q 3634 172 3659 197 
Q 3922 216 3989 309 
Q 4056 403 4056 781 
L 4056 1906 
Q 4056 2213 3961 2345 
Q 3866 2478 3675 2478 
Q 3216 2478 2828 2053 
Q 2834 1975 2834 1797 
L 2834 781 
Q 2834 397 2898 308 
Q 2963 219 3213 197 
Q 3238 172 3238 92 
Q 3238 13 3213 -13 
Q 2663 0 2584 0 
Q 2469 0 1931 -13 
Q 1906 13 1906 89 
Q 1906 166 1931 197 
Q 2200 216 2264 306 
Q 2328 397 2328 781 
L 2328 1894 
Q 2328 2475 1906 2478 
Q 1600 2478 1216 2100 
Q 1106 1984 1106 1831 
L 1106 781 
Q 1106 513 1139 400 
Q 1172 288 1240 252 
Q 1309 216 1491 197 
Q 1519 169 1519 92 
Q 1519 16 1491 -13 
Q 953 0 856 0 
Q 691 0 166 -13 
Q 141 13 141 89 
Q 141 166 166 197 
Q 447 216 525 309 
Q 603 403 603 781 
L 603 2028 
Q 603 2297 528 2367 
Q 453 2438 184 2463 
Q 147 2572 172 2644 
Q 672 2706 978 2828 
Q 1028 2828 1056 2778 
Q 1106 2663 1106 2291 
z
" transform="scale(0.015625)"/>
      <path id="LinLibertine-28" d="M 281 1613 
Q 281 2469 659 3237 
Q 1038 4006 1638 4525 
Q 1734 4519 1772 4409 
Q 813 3328 813 1613 
Q 813 -91 1772 -1197 
Q 1741 -1288 1638 -1306 
Q 1259 -981 987 -582 
Q 716 -184 584 131 
Q 453 447 376 797 
Q 300 1147 290 1303 
Q 281 1459 281 1613 
z
" transform="scale(0.015625)"/>
      <path id="LinLibertine-73" d="M 306 884 
Q 338 916 406 916 
Q 475 916 506 891 
Q 616 438 756 300 
Q 897 147 1209 147 
Q 1416 147 1584 262 
Q 1753 378 1753 594 
Q 1753 806 1622 934 
Q 1491 1063 1100 1222 
Q 716 1381 556 1567 
Q 397 1753 397 2094 
Q 397 2394 665 2601 
Q 934 2809 1300 2809 
Q 1447 2809 1600 2787 
Q 1753 2766 1923 2730 
Q 2094 2694 2138 2688 
Q 2138 2603 2119 2370 
Q 2100 2138 2100 2009 
Q 2069 1978 1997 1978 
Q 1925 1978 1894 2003 
Q 1863 2194 1789 2322 
Q 1716 2450 1616 2504 
Q 1516 2559 1442 2578 
Q 1369 2597 1300 2597 
Q 1128 2597 989 2486 
Q 850 2375 850 2188 
Q 850 2084 884 2003 
Q 919 1922 961 1870 
Q 1003 1819 1103 1764 
Q 1203 1709 1272 1681 
Q 1341 1653 1491 1594 
Q 2241 1309 2241 744 
Q 2241 519 2134 351 
Q 2028 184 1862 98 
Q 1697 13 1536 -25 
Q 1375 -63 1222 -63 
Q 909 -63 641 6 
Q 597 19 513 19 
Q 450 19 353 0 
Q 350 334 306 884 
z
" transform="scale(0.015625)"/>
      <path id="LinLibertine-29" d="M 1625 1613 
Q 1625 756 1248 -12 
Q 872 -781 269 -1300 
Q 172 -1294 134 -1184 
Q 1094 -103 1094 1613 
Q 1094 3316 134 4422 
Q 166 4513 269 4531 
Q 647 4206 919 3809 
Q 1191 3413 1322 3095 
Q 1453 2778 1529 2429 
Q 1606 2081 1615 1923 
Q 1625 1766 1625 1613 
z
" transform="scale(0.015625)"/>
      <path id="LinLibertine-66" d="M 1119 781 
Q 1119 397 1203 308 
Q 1288 219 1625 197 
Q 1650 166 1650 89 
Q 1650 13 1625 -13 
Q 1075 0 872 0 
Q 738 0 197 -13 
Q 166 13 166 89 
Q 166 166 197 197 
Q 472 216 544 306 
Q 616 397 616 781 
L 616 2497 
L 172 2497 
Q 141 2497 141 2534 
L 141 2619 
Q 141 2747 288 2747 
L 616 2747 
L 616 3003 
Q 616 3700 958 4084 
Q 1300 4469 1747 4469 
Q 2131 4469 2322 4331 
Q 2528 4178 2528 4006 
Q 2528 3909 2439 3826 
Q 2350 3744 2266 3744 
Q 2100 3744 2009 3950 
Q 1947 4116 1859 4183 
Q 1772 4250 1625 4250 
Q 1119 4250 1119 3109 
L 1119 2747 
L 1813 2747 
Q 1863 2747 1863 2706 
L 1863 2578 
Q 1863 2494 1716 2497 
L 1119 2497 
L 1119 781 
z
" transform="scale(0.015625)"/>
      <path id="LinLibertine-6f" d="M 263 1313 
Q 263 1947 616 2363 
Q 997 2809 1619 2809 
Q 2078 2809 2395 2582 
Q 2713 2356 2838 2042 
Q 2963 1728 2963 1369 
Q 2963 700 2547 294 
Q 2181 -66 1606 -63 
Q 966 -63 614 353 
Q 263 769 263 1313 
z
M 1522 2584 
Q 813 2584 813 1459 
Q 813 1253 861 1042 
Q 909 831 1004 626 
Q 1100 422 1279 290 
Q 1459 159 1697 159 
Q 1978 159 2195 390 
Q 2413 622 2413 1166 
Q 2413 1850 2175 2217 
Q 1938 2584 1522 2584 
z
" transform="scale(0.015625)"/>
      <path id="LinLibertine-63" d="M 2547 581 
Q 2322 209 2073 73 
Q 1825 -63 1503 -63 
Q 909 -63 573 317 
Q 238 697 238 1331 
Q 238 1978 641 2393 
Q 1044 2809 1550 2809 
Q 2003 2809 2265 2640 
Q 2528 2472 2528 2203 
Q 2528 2069 2428 1994 
Q 2328 1919 2216 1919 
Q 1997 1919 1972 2150 
Q 1959 2291 1929 2370 
Q 1900 2450 1798 2523 
Q 1697 2597 1516 2597 
Q 1197 2597 992 2294 
Q 788 1991 788 1472 
Q 788 922 1038 586 
Q 1288 250 1644 250 
Q 2084 250 2413 672 
Q 2516 659 2547 581 
z
" transform="scale(0.015625)"/>
      <path id="LinLibertine-61" d="M 1875 1491 
L 1369 1356 
Q 759 1203 763 653 
Q 763 481 880 339 
Q 997 197 1222 197 
Q 1447 197 1784 475 
Q 1875 538 1875 641 
L 1875 1491 
z
M 1875 306 
L 1863 306 
L 1734 206 
Q 1522 41 1387 -11 
Q 1253 -63 1038 -63 
Q 672 -63 451 103 
Q 231 269 231 628 
Q 231 947 522 1190 
Q 813 1434 1288 1556 
L 1838 1691 
Q 1875 1703 1875 1766 
Q 1875 2597 1356 2597 
Q 1144 2597 984 2530 
Q 825 2463 825 2328 
Q 825 2238 838 2203 
Q 856 2166 856 2088 
Q 856 2016 779 1945 
Q 703 1875 575 1875 
Q 350 1875 353 2100 
Q 353 2363 686 2586 
Q 1019 2809 1409 2809 
Q 2375 2809 2375 1728 
L 2375 775 
Q 2375 591 2384 494 
Q 2394 397 2455 314 
Q 2516 231 2631 231 
Q 2709 231 2765 281 
Q 2822 331 2828 331 
Q 2847 331 2880 293 
Q 2913 256 2913 225 
Q 2913 206 2845 139 
Q 2778 72 2643 4 
Q 2509 -63 2369 -63 
Q 1984 -66 1875 306 
z
" transform="scale(0.015625)"/>
      <path id="LinLibertine-75" d="M 1388 -63 
Q 947 -63 755 182 
Q 563 428 563 806 
L 563 2034 
Q 563 2334 483 2431 
Q 403 2528 166 2547 
Q 141 2572 141 2648 
Q 141 2725 166 2759 
Q 641 2747 819 2747 
Q 978 2747 1044 2759 
Q 1094 2759 1094 2719 
Q 1069 2250 1069 2059 
L 1069 897 
Q 1069 519 1225 378 
Q 1381 238 1581 238 
Q 1869 238 2222 544 
Q 2325 634 2322 794 
L 2322 2028 
Q 2322 2334 2245 2434 
Q 2169 2534 1925 2547 
Q 1894 2572 1894 2648 
Q 1894 2725 1925 2759 
Q 2400 2747 2578 2747 
Q 2738 2747 2803 2759 
Q 2853 2759 2853 2719 
Q 2828 2250 2828 2059 
L 2828 831 
Q 2828 581 2915 486 
Q 3003 391 3297 366 
Q 3328 334 3328 276 
Q 3328 219 3297 191 
Q 2759 128 2522 -63 
Q 2450 -81 2400 -63 
Q 2328 169 2328 313 
Q 2328 384 2253 319 
Q 1784 -63 1388 -63 
z
" transform="scale(0.015625)"/>
      <path id="LinLibertine-62" d="M 1113 2322 
Q 1003 2225 1006 2053 
L 1006 453 
Q 1250 153 1466 153 
Q 1906 153 2137 508 
Q 2369 863 2369 1434 
Q 2369 1894 2161 2211 
Q 1953 2528 1656 2528 
Q 1344 2528 1113 2322 
z
M 1069 2522 
Q 1388 2809 1784 2809 
Q 2225 2809 2572 2457 
Q 2919 2106 2919 1550 
Q 2919 834 2476 385 
Q 2034 -63 1503 -63 
Q 1128 -63 941 94 
Q 888 138 852 136 
Q 816 134 766 78 
Q 744 53 711 18 
Q 678 -16 662 -30 
Q 647 -44 616 -78 
Q 525 -78 475 0 
Q 500 122 500 453 
L 500 3578 
Q 500 3784 490 3886 
Q 481 3988 411 4036 
Q 341 4084 302 4087 
Q 263 4091 91 4103 
Q 19 4175 50 4294 
Q 619 4338 947 4469 
Q 1031 4469 1031 4403 
Q 1006 4147 1006 3731 
L 1006 2553 
Q 1006 2466 1069 2522 
z
" transform="scale(0.015625)"/>
      <path id="LinLibertine-70" d="M 1119 2119 
Q 1016 1991 1019 1838 
L 1019 672 
Q 1019 553 1031 492 
Q 1044 431 1072 392 
Q 1100 353 1172 288 
Q 1250 219 1383 186 
Q 1516 153 1625 153 
Q 1881 153 2067 259 
Q 2253 366 2348 547 
Q 2444 728 2486 920 
Q 2528 1113 2528 1331 
Q 2528 1856 2308 2186 
Q 2088 2516 1766 2516 
Q 1631 2516 1439 2397 
Q 1247 2278 1119 2119 
z
M 1019 2356 
Q 1019 2325 1037 2317 
Q 1056 2309 1069 2328 
Q 1478 2809 1947 2809 
Q 2428 2809 2753 2418 
Q 3078 2028 3078 1503 
Q 3078 753 2606 294 
Q 2228 -66 1663 -63 
Q 1350 -63 1106 34 
Q 1056 59 1037 53 
Q 1019 47 1019 -13 
L 1019 -703 
Q 1019 -1088 1105 -1178 
Q 1191 -1269 1544 -1288 
Q 1575 -1319 1575 -1395 
Q 1575 -1472 1544 -1497 
Q 994 -1484 769 -1484 
Q 591 -1484 50 -1497 
Q 25 -1472 25 -1395 
Q 25 -1319 50 -1288 
Q 350 -1275 431 -1181 
Q 513 -1088 513 -703 
L 513 2028 
Q 513 2297 439 2367 
Q 366 2438 97 2463 
Q 59 2572 84 2644 
Q 584 2706 891 2828 
Q 941 2828 966 2778 
Q 1019 2663 1019 2356 
z
" transform="scale(0.015625)"/>
      <path id="LinLibertine-6c" d="M 609 781 
L 609 3578 
Q 609 3784 598 3886 
Q 588 3988 517 4036 
Q 447 4084 409 4087 
Q 372 4091 197 4103 
Q 125 4175 159 4294 
Q 728 4338 1056 4469 
Q 1141 4469 1141 4403 
Q 1116 4147 1113 3731 
L 1113 781 
Q 1113 397 1194 305 
Q 1275 213 1575 197 
Q 1600 166 1600 89 
Q 1600 13 1575 -13 
Q 1025 0 863 0 
Q 684 0 147 -13 
Q 116 13 116 89 
Q 116 166 147 197 
Q 447 209 528 303 
Q 609 397 609 781 
z
" transform="scale(0.015625)"/>
     </defs>
     <use xlink:href="#LinLibertine-52"/>
     <use xlink:href="#LinLibertine-65" x="58.691406"/>
     <use xlink:href="#LinLibertine-6e" x="103.369141"/>
     <use xlink:href="#LinLibertine-64" x="157.568359"/>
     <use xlink:href="#LinLibertine-65" x="208.154297"/>
     <use xlink:href="#LinLibertine-72" x="252.832031"/>
     <use xlink:href="#LinLibertine-69" x="289.990234"/>
     <use xlink:href="#LinLibertine-6e" x="317.089844"/>
     <use xlink:href="#LinLibertine-67" x="371.289062"/>
     <use xlink:href="#LinLibertine-20" x="421.289062"/>
     <use xlink:href="#LinLibertine-74" x="446.289062"/>
     <use xlink:href="#LinLibertine-69" x="477.880859"/>
     <use xlink:href="#LinLibertine-6d" x="504.980469"/>
     <use xlink:href="#LinLibertine-65" x="583.935547"/>
     <use xlink:href="#LinLibertine-20" x="628.613281"/>
     <use xlink:href="#LinLibertine-28" x="653.613281"/>
     <use xlink:href="#LinLibertine-6d" x="683.398438"/>
     <use xlink:href="#LinLibertine-73" x="762.353516"/>
     <use xlink:href="#LinLibertine-29" x="801.318359"/>
     <use xlink:href="#LinLibertine-20" x="831.103516"/>
     <use xlink:href="#LinLibertine-66" x="856.103516"/>
     <use xlink:href="#LinLibertine-6f" x="887.060547"/>
     <use xlink:href="#LinLibertine-72" x="937.451172"/>
     <use xlink:href="#LinLibertine-20" x="974.609375"/>
     <use xlink:href="#LinLibertine-69" x="999.609375"/>
     <use xlink:href="#LinLibertine-6e" x="1026.708984"/>
     <use xlink:href="#LinLibertine-63" x="1080.908203"/>
     <use xlink:href="#LinLibertine-72" x="1123.681641"/>
     <use xlink:href="#LinLibertine-65" x="1160.839844"/>
     <use xlink:href="#LinLibertine-61" x="1205.517578"/>
     <use xlink:href="#LinLibertine-73" x="1251.171875"/>
     <use xlink:href="#LinLibertine-69" x="1290.136719"/>
     <use xlink:href="#LinLibertine-6e" x="1317.236328"/>
     <use xlink:href="#LinLibertine-67" x="1371.435547"/>
     <use xlink:href="#LinLibertine-20" x="1421.435547"/>
     <use xlink:href="#LinLibertine-6e" x="1446.435547"/>
     <use xlink:href="#LinLibertine-75" x="1500.634766"/>
     <use xlink:href="#LinLibertine-6d" x="1553.710938"/>
     <use xlink:href="#LinLibertine-62" x="1632.666016"/>
     <use xlink:href="#LinLibertine-65" x="1681.933594"/>
     <use xlink:href="#LinLibertine-72" x="1726.611328"/>
     <use xlink:href="#LinLibertine-20" x="1763.769531"/>
     <use xlink:href="#LinLibertine-6f" x="1788.769531"/>
     <use xlink:href="#LinLibertine-66" x="1839.160156"/>
     <use xlink:href="#LinLibertine-20" x="1870.117188"/>
     <use xlink:href="#LinLibertine-73" x="1895.117188"/>
     <use xlink:href="#LinLibertine-61" x="1934.082031"/>
     <use xlink:href="#LinLibertine-6d" x="1979.736328"/>
     <use xlink:href="#LinLibertine-70" x="2058.691406"/>
     <use xlink:href="#LinLibertine-6c" x="2110.546875"/>
     <use xlink:href="#LinLibertine-65" x="2136.914062"/>
     <use xlink:href="#LinLibertine-73" x="2181.591797"/>
    </g>
   </g>
   <g id="legend_1">
    <g id="patch_7">
     <path d="M 100.5 150.050156 
L 362.064844 150.050156 
Q 365.064844 150.050156 365.064844 147.050156 
L 365.064844 62.34 
Q 365.064844 59.34 362.064844 59.34 
L 100.5 59.34 
Q 97.5 59.34 97.5 62.34 
L 97.5 147.050156 
Q 97.5 150.050156 100.5 150.050156 
z
" style="fill: #ffffff; opacity: 0.8; stroke: #cccccc; stroke-linejoin: miter"/>
    </g>
    <g id="line2d_31">
     <path d="M 103.5 70.59 
L 118.5 70.59 
L 133.5 70.59 
" style="fill: none; stroke: #9b5c6f; stroke-width: 2.5; stroke-linecap: square"/>
     <g>
      <use xlink:href="#m1f65c8cbe3" x="118.5" y="70.59" style="fill: #9b5c6f; stroke: #9b5c6f"/>
     </g>
    </g>
    <g id="text_15">
     <!-- Path-Tracing -->
     <g transform="translate(145.5 75.84)scale(0.15 -0.15)">
      <defs>
       <path id="LinLibertine-50" d="M 1209 3547 
L 1209 2053 
Q 1325 2022 1697 2022 
Q 2172 2022 2411 2256 
Q 2650 2491 2650 2994 
Q 2650 3550 2406 3753 
Q 2163 3956 1766 3956 
Q 1209 3956 1209 3547 
z
M 666 3347 
Q 666 3731 567 3823 
Q 469 3916 109 3928 
Q 78 3953 78 4031 
Q 78 4109 109 4141 
Q 750 4128 934 4128 
Q 1075 4128 1408 4150 
Q 1741 4172 1813 4172 
Q 2228 4172 2528 4064 
Q 2828 3956 2975 3779 
Q 3122 3603 3183 3440 
Q 3244 3278 3244 3109 
Q 3244 2884 3167 2670 
Q 3091 2456 2928 2254 
Q 2766 2053 2455 1929 
Q 2144 1806 1728 1806 
Q 1409 1806 1209 1869 
L 1209 781 
Q 1209 403 1331 311 
Q 1453 219 1863 197 
Q 1894 166 1894 89 
Q 1894 13 1863 -13 
Q 1222 0 941 0 
Q 734 0 109 -13 
Q 78 13 78 89 
Q 78 166 109 197 
Q 469 209 567 303 
Q 666 397 666 781 
L 666 3347 
z
" transform="scale(0.015625)"/>
       <path id="LinLibertine-68" d="M 1069 1831 
L 1069 781 
Q 1069 509 1101 395 
Q 1134 281 1203 247 
Q 1272 213 1450 197 
Q 1478 169 1479 92 
Q 1481 16 1450 -13 
Q 913 0 819 0 
Q 644 0 116 -13 
Q 88 16 88 92 
Q 88 169 116 197 
Q 275 209 345 225 
Q 416 241 475 302 
Q 534 363 548 469 
Q 563 575 563 781 
L 563 3578 
Q 563 3784 553 3886 
Q 544 3988 473 4036 
Q 403 4084 364 4087 
Q 325 4091 153 4103 
Q 81 4175 116 4294 
Q 684 4338 1013 4469 
Q 1097 4469 1094 4403 
Q 1069 4147 1069 3731 
L 1063 2291 
Q 1069 2222 1125 2291 
Q 1594 2809 2216 2809 
Q 2581 2809 2747 2591 
Q 2919 2366 2919 1734 
L 2919 781 
Q 2919 403 2992 314 
Q 3066 225 3347 197 
Q 3372 172 3372 95 
Q 3372 19 3347 -13 
Q 2797 0 2669 0 
Q 2553 0 2016 -13 
Q 1991 13 1991 89 
Q 1991 166 2016 197 
Q 2278 222 2345 312 
Q 2413 403 2413 781 
L 2413 1753 
Q 2413 2094 2338 2247 
Q 2222 2478 1997 2478 
Q 1563 2478 1178 2100 
Q 1069 1981 1069 1831 
z
" transform="scale(0.015625)"/>
       <path id="LinLibertine-2d" d="M 1734 1428 
L 353 1428 
Q 256 1428 256 1550 
Q 256 1641 307 1727 
Q 359 1813 416 1813 
L 1819 1813 
Q 1909 1813 1906 1684 
Q 1906 1622 1848 1525 
Q 1791 1428 1734 1428 
z
" transform="scale(0.015625)"/>
       <path id="LinLibertine-54" d="M 2241 781 
Q 2241 397 2348 305 
Q 2456 213 2859 197 
Q 2891 166 2892 89 
Q 2894 13 2859 -13 
Q 2219 0 1972 0 
Q 1703 0 1075 -13 
Q 1050 13 1050 89 
Q 1050 166 1075 197 
Q 1478 209 1587 303 
Q 1697 397 1697 781 
L 1697 3244 
Q 1697 3556 1630 3717 
Q 1563 3878 1394 3878 
L 1081 3878 
Q 750 3878 537 3725 
Q 325 3572 238 3200 
Q 103 3200 19 3231 
Q 147 3781 178 4159 
Q 178 4178 206 4178 
Q 853 4128 1697 4128 
L 2247 4128 
Q 3097 4128 3681 4178 
Q 3700 4178 3700 4159 
Q 3706 3738 3781 3250 
Q 3709 3219 3566 3219 
Q 3488 3578 3270 3728 
Q 3053 3878 2675 3878 
L 2534 3878 
Q 2369 3878 2305 3715 
Q 2241 3553 2241 3225 
L 2241 781 
z
" transform="scale(0.015625)"/>
      </defs>
      <use xlink:href="#LinLibertine-50"/>
      <use xlink:href="#LinLibertine-61" x="53.076172"/>
      <use xlink:href="#LinLibertine-74" x="98.730469"/>
      <use xlink:href="#LinLibertine-68" x="130.322266"/>
      <use xlink:href="#LinLibertine-2d" x="184.082031"/>
      <use xlink:href="#LinLibertine-54" x="217.871094"/>
      <use xlink:href="#LinLibertine-72" x="277.539062"/>
      <use xlink:href="#LinLibertine-61" x="314.697266"/>
      <use xlink:href="#LinLibertine-63" x="360.351562"/>
      <use xlink:href="#LinLibertine-69" x="403.125"/>
      <use xlink:href="#LinLibertine-6e" x="430.224609"/>
      <use xlink:href="#LinLibertine-67" x="484.423828"/>
     </g>
    </g>
    <g id="line2d_32">
     <path d="M 103.5 92.157187 
L 118.5 92.157187 
L 133.5 92.157187 
" style="fill: none; stroke: #537b8d; stroke-width: 2.5; stroke-linecap: square"/>
     <g>
      <use xlink:href="#m8e7a4d1572" x="118.5" y="92.157187" style="fill: #537b8d; stroke: #537b8d"/>
     </g>
    </g>
    <g id="text_16">
     <!-- NIRC -->
     <g transform="translate(145.5 97.407187)scale(0.15 -0.15)">
      <defs>
       <path id="LinLibertine-4e" d="M 3559 3278 
Q 3559 3503 3539 3620 
Q 3519 3738 3442 3805 
Q 3366 3872 3283 3890 
Q 3200 3909 3003 3928 
Q 2972 3953 2970 4031 
Q 2969 4109 3003 4141 
Q 3644 4128 3713 4128 
Q 3803 4128 4428 4141 
Q 4453 4109 4453 4032 
Q 4453 3956 4428 3928 
Q 4069 3891 3970 3789 
Q 3872 3688 3872 3278 
L 3872 134 
Q 3872 -63 3725 -63 
Q 3584 -63 3469 91 
L 1234 2913 
Q 1069 3125 1017 3123 
Q 966 3122 966 2809 
L 966 850 
Q 966 625 986 508 
Q 1006 391 1082 323 
Q 1159 256 1242 237 
Q 1325 219 1522 197 
Q 1547 166 1548 89 
Q 1550 13 1522 -13 
Q 881 0 813 0 
Q 722 0 97 -13 
Q 66 13 64 89 
Q 63 166 97 197 
Q 456 234 554 337 
Q 653 441 653 850 
L 653 3519 
Q 622 3659 481 3787 
Q 341 3916 147 3928 
Q 116 3953 116 4031 
Q 116 4109 147 4141 
L 1013 4128 
L 3206 1300 
Q 3250 1244 3301 1172 
Q 3353 1100 3379 1069 
Q 3406 1038 3434 1005 
Q 3463 972 3481 959 
Q 3500 947 3513 947 
Q 3556 947 3559 1141 
L 3559 3278 
z
" transform="scale(0.015625)"/>
       <path id="LinLibertine-49" d="M 1222 781 
Q 1222 397 1322 305 
Q 1422 213 1778 197 
Q 1803 166 1804 89 
Q 1806 13 1778 -13 
Q 1138 0 953 0 
Q 747 0 122 -13 
Q 91 13 91 89 
Q 91 166 122 197 
Q 481 209 579 303 
Q 678 397 678 781 
L 678 3347 
Q 678 3731 579 3823 
Q 481 3916 122 3928 
Q 91 3953 91 4031 
Q 91 4109 122 4141 
Q 763 4128 947 4128 
Q 1153 4128 1778 4141 
Q 1803 4109 1804 4032 
Q 1806 3956 1778 3928 
Q 1419 3916 1320 3823 
Q 1222 3731 1222 3347 
L 1222 781 
z
" transform="scale(0.015625)"/>
       <path id="LinLibertine-43" d="M 2284 -63 
Q 1625 -63 1148 246 
Q 672 556 455 1017 
Q 238 1478 238 2016 
Q 238 3047 916 3669 
Q 1509 4213 2291 4213 
Q 2750 4213 3189 4070 
Q 3628 3928 3694 3922 
Q 3803 3250 3834 2931 
Q 3713 2869 3622 2900 
Q 3297 3975 2222 3975 
Q 1663 3975 1200 3406 
Q 1019 3184 919 2862 
Q 819 2541 819 2138 
Q 819 1644 972 1216 
Q 1125 788 1465 492 
Q 1806 197 2278 197 
Q 2725 197 3075 361 
Q 3425 525 3763 897 
Q 3859 897 3909 800 
Q 3250 -63 2284 -63 
z
" transform="scale(0.015625)"/>
      </defs>
      <use xlink:href="#LinLibertine-4e"/>
      <use xlink:href="#LinLibertine-49" x="69.873047"/>
      <use xlink:href="#LinLibertine-52" x="99.560547"/>
      <use xlink:href="#LinLibertine-43" x="158.251953"/>
     </g>
    </g>
    <g id="line2d_33">
     <path d="M 103.5 113.665781 
L 118.5 113.665781 
L 133.5 113.665781 
" style="fill: none; stroke: #776d8a; stroke-width: 2.5; stroke-linecap: square"/>
     <g>
      <use xlink:href="#m65d77bf3f8" x="118.5" y="113.665781" style="fill: #776d8a; stroke: #776d8a; stroke-linejoin: miter"/>
     </g>
    </g>
    <g id="text_17">
     <!-- NIRC Shared Encoding -->
     <g transform="translate(145.5 118.915781)scale(0.15 -0.15)">
      <defs>
       <path id="LinLibertine-53" d="M 2525 4038 
Q 2613 3597 2641 3213 
Q 2594 3178 2431 3175 
Q 2400 3275 2370 3354 
Q 2341 3434 2297 3521 
Q 2253 3609 2201 3675 
Q 2150 3741 2078 3803 
Q 2006 3866 1922 3906 
Q 1838 3947 1727 3970 
Q 1616 3994 1484 3994 
Q 1206 3994 995 3772 
Q 784 3550 784 3278 
Q 784 3128 853 2995 
Q 922 2863 1015 2773 
Q 1109 2684 1261 2596 
Q 1413 2509 1516 2467 
Q 1619 2425 1772 2365 
Q 1925 2306 1966 2291 
Q 2153 2209 2298 2117 
Q 2444 2025 2573 1892 
Q 2703 1759 2772 1578 
Q 2841 1397 2841 1178 
Q 2841 875 2678 597 
Q 2516 319 2241 147 
Q 1903 -63 1450 -63 
Q 1147 -63 814 10 
Q 481 84 300 84 
Q 203 488 172 1056 
Q 272 1109 381 1075 
Q 581 166 1503 166 
Q 1888 166 2095 367 
Q 2303 569 2303 953 
Q 2303 1128 2248 1273 
Q 2194 1419 2123 1508 
Q 2053 1597 1923 1680 
Q 1794 1763 1708 1800 
Q 1622 1838 1464 1898 
Q 1306 1959 1250 1984 
Q 972 2106 784 2239 
Q 597 2372 461 2597 
Q 325 2822 325 3103 
Q 325 3597 683 3905 
Q 1041 4213 1544 4213 
Q 1909 4213 2173 4131 
Q 2438 4050 2525 4038 
z
" transform="scale(0.015625)"/>
       <path id="LinLibertine-45" d="M 1747 2309 
Q 2138 2309 2227 2386 
Q 2316 2463 2328 2747 
Q 2353 2778 2431 2778 
Q 2509 2778 2541 2747 
Q 2528 2363 2528 2194 
Q 2528 2078 2541 1631 
Q 2509 1600 2432 1600 
Q 2356 1600 2328 1631 
Q 2316 1803 2291 1878 
Q 2266 1953 2137 2011 
Q 2009 2069 1747 2069 
L 1166 2069 
L 1166 525 
Q 1166 250 1394 250 
L 2266 250 
Q 2875 250 3103 1088 
Q 3219 1113 3328 1056 
Q 3250 550 3091 -13 
Q 2578 0 2272 0 
L 897 0 
Q 378 -6 63 -13 
Q 38 13 38 89 
Q 38 166 63 197 
Q 422 209 522 303 
Q 622 397 622 781 
L 622 3347 
Q 622 3731 522 3823 
Q 422 3916 63 3928 
Q 38 3953 38 4031 
Q 38 4109 63 4141 
L 891 4128 
L 2522 4128 
Q 2688 4128 2834 4153 
Q 2859 4153 2859 4134 
Q 2909 3916 3003 3206 
Q 2900 3156 2791 3175 
Q 2669 3559 2534 3715 
Q 2400 3872 2069 3872 
L 1394 3872 
Q 1284 3872 1225 3792 
Q 1166 3713 1166 3591 
L 1166 2309 
L 1747 2309 
z
" transform="scale(0.015625)"/>
      </defs>
      <use xlink:href="#LinLibertine-4e"/>
      <use xlink:href="#LinLibertine-49" x="69.873047"/>
      <use xlink:href="#LinLibertine-52" x="99.560547"/>
      <use xlink:href="#LinLibertine-43" x="158.251953"/>
      <use xlink:href="#LinLibertine-20" x="222.851562"/>
      <use xlink:href="#LinLibertine-53" x="247.851562"/>
      <use xlink:href="#LinLibertine-68" x="296.337891"/>
      <use xlink:href="#LinLibertine-61" x="350.097656"/>
      <use xlink:href="#LinLibertine-72" x="395.751953"/>
      <use xlink:href="#LinLibertine-65" x="432.910156"/>
      <use xlink:href="#LinLibertine-64" x="477.587891"/>
      <use xlink:href="#LinLibertine-20" x="528.173828"/>
      <use xlink:href="#LinLibertine-45" x="553.173828"/>
      <use xlink:href="#LinLibertine-6e" x="608.056641"/>
      <use xlink:href="#LinLibertine-63" x="662.255859"/>
      <use xlink:href="#LinLibertine-6f" x="705.029297"/>
      <use xlink:href="#LinLibertine-64" x="755.419922"/>
      <use xlink:href="#LinLibertine-69" x="806.005859"/>
      <use xlink:href="#LinLibertine-6e" x="833.105469"/>
      <use xlink:href="#LinLibertine-67" x="887.304688"/>
     </g>
    </g>
    <g id="line2d_34">
     <path d="M 103.5 135.232969 
L 118.5 135.232969 
L 133.5 135.232969 
" style="fill: none; stroke: #a2803a; stroke-width: 2.5; stroke-linecap: square"/>
     <g>
      <use xlink:href="#m334f9c3347" x="118.5" y="135.232969" style="fill: #a2803a; stroke: #a2803a; stroke-linejoin: miter"/>
     </g>
    </g>
    <g id="text_18">
     <!-- NIRC Shared Encoding + Fused SH -->
     <g transform="translate(145.5 140.482969)scale(0.15 -0.15)">
      <defs>
       <path id="LinLibertine-2b" d="M 1600 2784 
Q 1600 2841 1679 2898 
Q 1759 2956 1813 2956 
Q 1922 2956 1919 2869 
L 1919 1766 
L 3047 1766 
Q 3138 1766 3138 1656 
Q 3138 1606 3080 1526 
Q 3022 1447 2963 1447 
L 1919 1447 
L 1919 422 
Q 1919 366 1845 314 
Q 1772 263 1703 263 
Q 1600 263 1600 359 
L 1600 1447 
L 481 1447 
Q 384 1447 384 1550 
Q 384 1622 436 1694 
Q 488 1766 544 1766 
L 1600 1766 
L 1600 2784 
z
" transform="scale(0.015625)"/>
       <path id="LinLibertine-46" d="M 1759 2069 
L 1166 2069 
L 1166 781 
Q 1166 397 1264 305 
Q 1363 213 1722 197 
Q 1753 166 1753 89 
Q 1753 13 1722 -13 
Q 1081 0 897 0 
Q 691 0 63 -13 
Q 38 13 38 89 
Q 38 166 63 197 
Q 422 209 522 303 
Q 622 397 622 781 
L 622 3347 
Q 622 3731 522 3823 
Q 422 3916 63 3928 
Q 38 3953 38 4031 
Q 38 4109 63 4141 
L 891 4128 
L 2525 4128 
Q 2694 4128 2825 4153 
Q 2847 4153 2850 4134 
Q 2919 3766 2988 3206 
Q 2903 3175 2791 3175 
Q 2713 3425 2623 3559 
Q 2534 3694 2336 3783 
Q 2138 3872 1813 3872 
L 1394 3872 
Q 1163 3872 1166 3653 
L 1166 2309 
L 1759 2309 
Q 2150 2309 2239 2386 
Q 2328 2463 2344 2747 
Q 2369 2778 2445 2778 
Q 2522 2778 2553 2747 
Q 2541 2363 2541 2194 
Q 2541 2078 2553 1631 
Q 2522 1600 2445 1600 
Q 2369 1600 2344 1631 
Q 2331 1803 2304 1878 
Q 2278 1953 2150 2011 
Q 2022 2069 1759 2069 
z
" transform="scale(0.015625)"/>
       <path id="LinLibertine-48" d="M 3956 781 
Q 3956 397 4054 305 
Q 4153 213 4513 197 
Q 4544 166 4544 89 
Q 4544 13 4513 -13 
Q 3872 0 3688 0 
Q 3481 0 2853 -13 
Q 2828 13 2828 89 
Q 2828 166 2853 197 
Q 3213 209 3313 303 
Q 3413 397 3413 781 
L 3413 2053 
L 1222 2053 
L 1222 781 
Q 1222 397 1322 305 
Q 1422 213 1778 197 
Q 1803 166 1804 89 
Q 1806 13 1778 -13 
Q 1138 0 953 0 
Q 747 0 122 -13 
Q 91 13 91 89 
Q 91 166 122 197 
Q 481 209 579 303 
Q 678 397 678 781 
L 678 3347 
Q 678 3731 579 3823 
Q 481 3916 122 3928 
Q 91 3953 91 4031 
Q 91 4109 122 4141 
Q 763 4128 947 4128 
Q 1153 4128 1778 4141 
Q 1803 4109 1804 4032 
Q 1806 3956 1778 3928 
Q 1419 3916 1320 3823 
Q 1222 3731 1222 3347 
L 1222 2322 
L 3413 2322 
L 3413 3347 
Q 3413 3731 3313 3823 
Q 3213 3916 2853 3928 
Q 2828 3953 2828 4031 
Q 2828 4109 2853 4141 
Q 3494 4128 3681 4128 
Q 3888 4128 4513 4141 
Q 4544 4109 4544 4032 
Q 4544 3956 4513 3928 
Q 4153 3916 4054 3823 
Q 3956 3731 3956 3347 
L 3956 781 
z
" transform="scale(0.015625)"/>
      </defs>
      <use xlink:href="#LinLibertine-4e"/>
      <use xlink:href="#LinLibertine-49" x="69.873047"/>
      <use xlink:href="#LinLibertine-52" x="99.560547"/>
      <use xlink:href="#LinLibertine-43" x="158.251953"/>
      <use xlink:href="#LinLibertine-20" x="222.851562"/>
      <use xlink:href="#LinLibertine-53" x="247.851562"/>
      <use xlink:href="#LinLibertine-68" x="296.337891"/>
      <use xlink:href="#LinLibertine-61" x="350.097656"/>
      <use xlink:href="#LinLibertine-72" x="395.751953"/>
      <use xlink:href="#LinLibertine-65" x="432.910156"/>
      <use xlink:href="#LinLibertine-64" x="477.587891"/>
      <use xlink:href="#LinLibertine-20" x="528.173828"/>
      <use xlink:href="#LinLibertine-45" x="553.173828"/>
      <use xlink:href="#LinLibertine-6e" x="608.056641"/>
      <use xlink:href="#LinLibertine-63" x="662.255859"/>
      <use xlink:href="#LinLibertine-6f" x="705.029297"/>
      <use xlink:href="#LinLibertine-64" x="755.419922"/>
      <use xlink:href="#LinLibertine-69" x="806.005859"/>
      <use xlink:href="#LinLibertine-6e" x="833.105469"/>
      <use xlink:href="#LinLibertine-67" x="887.304688"/>
      <use xlink:href="#LinLibertine-20" x="937.304688"/>
      <use xlink:href="#LinLibertine-2b" x="962.304688"/>
      <use xlink:href="#LinLibertine-20" x="1017.285156"/>
      <use xlink:href="#LinLibertine-46" x="1042.285156"/>
      <use xlink:href="#LinLibertine-75" x="1089.941406"/>
      <use xlink:href="#LinLibertine-73" x="1143.017578"/>
      <use xlink:href="#LinLibertine-65" x="1181.982422"/>
      <use xlink:href="#LinLibertine-64" x="1226.660156"/>
      <use xlink:href="#LinLibertine-20" x="1277.246094"/>
      <use xlink:href="#LinLibertine-53" x="1302.246094"/>
      <use xlink:href="#LinLibertine-48" x="1350.732422"/>
     </g>
    </g>
   </g>
  </g>
 </g>
 <defs>
  <clipPath id="p0892354102">
   <rect x="90" y="51.84" width="558" height="332.64"/>
  </clipPath>
 </defs>
</svg>
