<?xml version="1.0" encoding="utf-8" standalone="no"?>
<!DOCTYPE svg PUBLIC "-//W3C//DTD SVG 1.1//EN"
  "http://www.w3.org/Graphics/SVG/1.1/DTD/svg11.dtd">
<svg xmlns:xlink="http://www.w3.org/1999/xlink" width="252pt" height="468pt" viewBox="0 0 252 468" xmlns="http://www.w3.org/2000/svg" version="1.1">
 <metadata>
  <rdf:RDF xmlns:dc="http://purl.org/dc/elements/1.1/" xmlns:cc="http://creativecommons.org/ns#" xmlns:rdf="http://www.w3.org/1999/02/22-rdf-syntax-ns#">
   <cc:Work>
    <dc:type rdf:resource="http://purl.org/dc/dcmitype/StillImage"/>
    <dc:date>2024-05-18T11:19:14.840398</dc:date>
    <dc:format>image/svg+xml</dc:format>
    <dc:creator>
     <cc:Agent>
      <dc:title>Matplotlib v3.5.3, https://matplotlib.org/</dc:title>
     </cc:Agent>
    </dc:creator>
   </cc:Work>
  </rdf:RDF>
 </metadata>
 <defs>
  <style type="text/css">*{stroke-linejoin: round; stroke-linecap: butt}</style>
 </defs>
 <g id="figure_1">
  <g id="patch_1">
   <path d="M 0 468 
L 252 468 
L 252 0 
L 0 0 
z
" style="fill: #ffffff"/>
  </g>
  <g id="axes_1">
   <g id="patch_2">
    <path d="M 36.61 447.32 
L 252 447.32 
L 252 0 
L 36.61 0 
z
" style="fill: #e6f2ff"/>
   </g>
   <g id="matplotlib.axis_1">
    <g id="xtick_1">
     <g id="line2d_1">
      <path d="M 108.064055 447.32 
L 108.064055 0 
" clip-path="url(#p7cb5a47aee)" style="fill: none; stroke: #ffffff; stroke-width: 2; stroke-linecap: square"/>
     </g>
     <g id="line2d_2">
      <defs>
       <path id="m1271b7ee39" d="M 0 0 
L 0 3.5 
" style="stroke: #000000; stroke-width: 0.8"/>
      </defs>
      <g>
       <use xlink:href="#m1271b7ee39" x="108.064055" y="447.32" style="stroke: #000000; stroke-width: 0.8"/>
      </g>
     </g>
     <g id="text_1">
      <!-- 5.0e-3 -->
      <g transform="translate(90.79193 464.37525)scale(0.144 -0.144)">
       <defs>
        <path id="LinLibertine-35" d="M 2041 1209 
Q 2041 1709 1836 1945 
Q 1631 2181 1300 2181 
Q 897 2181 488 2028 
L 703 3872 
Q 1075 3841 1394 3841 
Q 1778 3841 2444 3909 
L 2491 3884 
L 2388 3450 
Q 1991 3413 1716 3413 
Q 1497 3413 966 3469 
L 838 2400 
Q 1100 2503 1466 2503 
Q 1984 2503 2298 2158 
Q 2613 1813 2613 1325 
Q 2613 716 2231 322 
Q 1850 -72 1253 -72 
Q 959 -72 653 76 
Q 347 225 347 409 
Q 347 506 420 576 
Q 494 647 588 647 
Q 759 647 916 441 
Q 922 428 953 387 
Q 984 347 998 326 
Q 1013 306 1044 275 
Q 1075 244 1100 228 
Q 1125 213 1164 189 
Q 1203 166 1245 159 
Q 1288 153 1338 153 
Q 1631 153 1836 458 
Q 2041 763 2041 1209 
z
" transform="scale(0.015625)"/>
        <path id="LinLibertine-2e" d="M 464 35 
Q 366 134 366 275 
Q 366 416 464 516 
Q 563 616 703 616 
Q 844 616 944 516 
Q 1044 416 1044 275 
Q 1044 134 944 35 
Q 844 -63 703 -63 
Q 563 -63 464 35 
z
" transform="scale(0.015625)"/>
        <path id="LinLibertine-30" d="M 1484 3681 
Q 1363 3681 1255 3603 
Q 1147 3525 1040 3340 
Q 934 3156 870 2762 
Q 806 2369 806 1813 
Q 806 163 1466 159 
Q 1522 159 1586 178 
Q 1650 197 1737 251 
Q 1825 306 1904 431 
Q 1984 556 2034 744 
Q 2144 1141 2144 2059 
Q 2144 3256 1772 3572 
Q 1650 3681 1484 3681 
z
M 1459 -63 
Q 1078 -63 809 206 
Q 547 466 398 916 
Q 250 1366 250 1881 
Q 250 2791 617 3347 
Q 984 3903 1484 3903 
Q 1953 3903 2266 3488 
Q 2700 2913 2700 1941 
Q 2700 1409 2578 998 
Q 2456 588 2262 367 
Q 2069 147 1862 42 
Q 1656 -63 1459 -63 
z
" transform="scale(0.015625)"/>
        <path id="LinLibertine-65" d="M 794 1806 
L 1953 1825 
Q 2050 1825 2047 1913 
Q 2047 2278 1890 2431 
Q 1734 2584 1516 2584 
Q 1431 2584 1350 2562 
Q 1269 2541 1150 2470 
Q 1031 2400 934 2228 
Q 838 2056 794 1806 
z
M 2472 594 
Q 2581 588 2606 494 
Q 2178 -63 1516 -63 
Q 881 -63 538 347 
Q 238 694 238 1294 
Q 238 1972 644 2384 
Q 1050 2797 1516 2797 
Q 2597 2797 2597 1684 
Q 2597 1575 2478 1575 
L 775 1588 
Q 775 1050 978 709 
Q 1259 250 1678 250 
Q 1947 250 2117 326 
Q 2288 403 2472 594 
z
" transform="scale(0.015625)"/>
        <path id="LinLibertine-2d" d="M 1734 1428 
L 353 1428 
Q 256 1428 256 1550 
Q 256 1641 307 1727 
Q 359 1813 416 1813 
L 1819 1813 
Q 1909 1813 1906 1684 
Q 1906 1622 1848 1525 
Q 1791 1428 1734 1428 
z
" transform="scale(0.015625)"/>
        <path id="LinLibertine-33" d="M 1375 3681 
Q 1259 3681 1139 3648 
Q 1019 3616 894 3497 
Q 769 3378 769 3194 
Q 769 2863 519 2859 
Q 416 2859 358 2931 
Q 300 3003 300 3078 
Q 300 3175 361 3300 
Q 422 3425 550 3569 
Q 678 3713 931 3808 
Q 1184 3903 1509 3903 
Q 1963 3903 2209 3653 
Q 2409 3450 2409 3147 
Q 2409 2878 2261 2676 
Q 2113 2475 1734 2297 
L 1741 2284 
Q 2100 2228 2372 1984 
Q 2644 1741 2644 1275 
Q 2644 666 2220 301 
Q 1797 -63 1203 -63 
Q 884 -63 582 60 
Q 281 184 281 366 
Q 281 444 367 516 
Q 453 588 550 588 
Q 703 588 825 422 
Q 831 416 854 381 
Q 878 347 887 333 
Q 897 319 919 291 
Q 941 263 959 250 
Q 978 238 1014 214 
Q 1050 191 1087 181 
Q 1125 172 1176 165 
Q 1228 159 1288 159 
Q 1391 159 1508 204 
Q 1625 250 1762 348 
Q 1900 447 1990 665 
Q 2081 884 2081 1184 
Q 2081 2009 1241 2009 
Q 1044 2009 934 1997 
L 903 2203 
Q 1347 2266 1628 2548 
Q 1909 2831 1909 3103 
Q 1909 3300 1831 3433 
Q 1753 3566 1637 3623 
Q 1522 3681 1375 3681 
z
" transform="scale(0.015625)"/>
       </defs>
       <use xlink:href="#LinLibertine-35"/>
       <use xlink:href="#LinLibertine-2e" x="46.484375"/>
       <use xlink:href="#LinLibertine-30" x="68.457031"/>
       <use xlink:href="#LinLibertine-65" x="114.941406"/>
       <use xlink:href="#LinLibertine-2d" x="159.619141"/>
       <use xlink:href="#LinLibertine-33" x="193.408203"/>
      </g>
     </g>
    </g>
    <g id="xtick_2">
     <g id="line2d_3">
      <path d="M 181.297969 447.32 
L 181.297969 0 
" clip-path="url(#p7cb5a47aee)" style="fill: none; stroke: #ffffff; stroke-width: 2; stroke-linecap: square"/>
     </g>
     <g id="line2d_4">
      <g>
       <use xlink:href="#m1271b7ee39" x="181.297969" y="447.32" style="stroke: #000000; stroke-width: 0.8"/>
      </g>
     </g>
     <g id="text_2">
      <!-- 1.0e-2 -->
      <g transform="translate(164.025844 464.37525)scale(0.144 -0.144)">
       <defs>
        <path id="LinLibertine-31" d="M 1844 781 
Q 1844 397 1942 305 
Q 2041 213 2400 197 
Q 2431 166 2431 89 
Q 2431 13 2400 -13 
Q 1759 0 1619 0 
Q 1356 0 728 -13 
Q 703 13 703 89 
Q 703 166 728 197 
Q 1100 209 1225 309 
Q 1350 409 1350 781 
L 1350 2869 
Q 1350 3241 1222 3238 
Q 1050 3238 666 3078 
Q 588 3128 569 3250 
Q 1466 3666 1825 3891 
Q 1863 3891 1863 3859 
Q 1844 3713 1844 3003 
L 1844 781 
z
" transform="scale(0.015625)"/>
        <path id="LinLibertine-32" d="M 391 2994 
Q 391 3313 717 3608 
Q 1044 3903 1544 3903 
Q 1978 3903 2301 3658 
Q 2625 3413 2625 2931 
Q 2625 2700 2528 2495 
Q 2431 2291 2320 2159 
Q 2209 2028 1984 1813 
L 1338 1191 
Q 863 716 863 416 
L 2003 416 
Q 2175 416 2272 550 
Q 2369 684 2450 1031 
Q 2572 1056 2638 997 
Q 2625 550 2484 -13 
Q 2191 0 1984 0 
L 863 0 
L 331 -13 
Q 331 294 476 578 
Q 622 863 1063 1313 
L 1538 1778 
Q 2063 2309 2059 2906 
Q 2059 3322 1890 3501 
Q 1722 3681 1503 3681 
Q 1184 3681 1028 3559 
Q 872 3438 872 3291 
Q 872 3259 897 3201 
Q 922 3144 922 3138 
Q 947 3047 947 3003 
Q 947 2906 842 2826 
Q 738 2747 647 2747 
Q 544 2747 467 2819 
Q 391 2891 391 2994 
z
" transform="scale(0.015625)"/>
       </defs>
       <use xlink:href="#LinLibertine-31"/>
       <use xlink:href="#LinLibertine-2e" x="46.484375"/>
       <use xlink:href="#LinLibertine-30" x="68.457031"/>
       <use xlink:href="#LinLibertine-65" x="114.941406"/>
       <use xlink:href="#LinLibertine-2d" x="159.619141"/>
       <use xlink:href="#LinLibertine-32" x="193.408203"/>
      </g>
     </g>
    </g>
   </g>
   <g id="matplotlib.axis_2">
    <g id="ytick_1">
     <g id="line2d_5">
      <path d="M 36.61 435.039057 
L 252 435.039057 
" clip-path="url(#p7cb5a47aee)" style="fill: none; stroke: #ffffff; stroke-width: 2; stroke-linecap: square"/>
     </g>
     <g id="line2d_6">
      <defs>
       <path id="m5e67c96d61" d="M 0 0 
L -3.5 0 
" style="stroke: #000000; stroke-width: 0.8"/>
      </defs>
      <g>
       <use xlink:href="#m5e67c96d61" x="36.61" y="435.039057" style="stroke: #000000; stroke-width: 0.8"/>
      </g>
     </g>
     <g id="text_3">
      <!-- 0 -->
      <g transform="translate(22.91625 440.066682)scale(0.144 -0.144)">
       <use xlink:href="#LinLibertine-30"/>
      </g>
     </g>
    </g>
    <g id="ytick_2">
     <g id="line2d_7">
      <path d="M 36.61 246.577513 
L 252 246.577513 
" clip-path="url(#p7cb5a47aee)" style="fill: none; stroke: #ffffff; stroke-width: 2; stroke-linecap: square"/>
     </g>
     <g id="line2d_8">
      <g>
       <use xlink:href="#m5e67c96d61" x="36.61" y="246.577513" style="stroke: #000000; stroke-width: 0.8"/>
      </g>
     </g>
     <g id="text_4">
      <!-- 4.0e0 -->
      <g transform="translate(-0.0675 251.605138)scale(0.144 -0.144)">
       <defs>
        <path id="LinLibertine-34" d="M 1734 3244 
Q 1247 2578 513 1403 
L 1734 1403 
L 1734 3244 
z
M 2753 1403 
Q 2850 1403 2847 1300 
Q 2847 1244 2786 1172 
Q 2725 1100 2663 1100 
L 2222 1100 
L 2222 513 
Q 2222 409 2237 348 
Q 2253 288 2320 259 
Q 2388 231 2425 225 
Q 2463 219 2603 203 
Q 2647 197 2669 197 
Q 2700 166 2700 89 
Q 2700 13 2669 -13 
Q 2259 0 1972 0 
Q 1625 0 1216 -13 
Q 1191 13 1191 89 
Q 1191 166 1216 197 
Q 1559 222 1644 291 
Q 1734 363 1734 513 
L 1734 1100 
L 428 1100 
Q 231 1100 178 1369 
Q 1169 2925 1913 3834 
Q 1969 3906 2016 3903 
L 2222 3903 
L 2234 3891 
Q 2222 3834 2222 3272 
L 2222 1403 
L 2753 1403 
z
" transform="scale(0.015625)"/>
       </defs>
       <use xlink:href="#LinLibertine-34"/>
       <use xlink:href="#LinLibertine-2e" x="46.484375"/>
       <use xlink:href="#LinLibertine-30" x="68.457031"/>
       <use xlink:href="#LinLibertine-65" x="114.941406"/>
       <use xlink:href="#LinLibertine-30" x="159.619141"/>
      </g>
     </g>
    </g>
    <g id="ytick_3">
     <g id="line2d_9">
      <path d="M 36.61 58.115969 
L 252 58.115969 
" clip-path="url(#p7cb5a47aee)" style="fill: none; stroke: #ffffff; stroke-width: 2; stroke-linecap: square"/>
     </g>
     <g id="line2d_10">
      <g>
       <use xlink:href="#m5e67c96d61" x="36.61" y="58.115969" style="stroke: #000000; stroke-width: 0.8"/>
      </g>
     </g>
     <g id="text_5">
      <!-- 8.0e0 -->
      <g transform="translate(-0.0675 63.143594)scale(0.144 -0.144)">
       <defs>
        <path id="LinLibertine-38" d="M 1497 3681 
Q 1222 3681 1065 3526 
Q 909 3372 909 3144 
Q 909 2966 995 2808 
Q 1081 2650 1356 2472 
L 1556 2350 
Q 2069 2728 2069 3109 
Q 2069 3353 1930 3517 
Q 1791 3681 1497 3681 
z
M 2516 3103 
Q 2516 2828 2269 2595 
Q 2022 2363 1728 2216 
L 2181 1941 
Q 2681 1641 2681 1038 
Q 2681 628 2348 282 
Q 2016 -63 1434 -63 
Q 916 -63 605 195 
Q 294 453 294 934 
Q 294 1375 666 1703 
Q 888 1897 1181 2053 
L 1019 2156 
Q 456 2509 453 3022 
Q 453 3400 751 3651 
Q 1050 3903 1528 3903 
Q 1988 3903 2252 3679 
Q 2516 3456 2516 3103 
z
M 1447 159 
Q 1741 159 1978 323 
Q 2216 488 2216 909 
Q 2216 1422 1656 1759 
L 1356 1941 
Q 997 1703 859 1425 
Q 722 1147 722 934 
Q 722 544 950 351 
Q 1178 159 1447 159 
z
" transform="scale(0.015625)"/>
       </defs>
       <use xlink:href="#LinLibertine-38"/>
       <use xlink:href="#LinLibertine-2e" x="46.484375"/>
       <use xlink:href="#LinLibertine-30" x="68.457031"/>
       <use xlink:href="#LinLibertine-65" x="114.941406"/>
       <use xlink:href="#LinLibertine-30" x="159.619141"/>
      </g>
     </g>
    </g>
   </g>
   <g id="line2d_11">
    <path d="M 46.871495 20.332727 
L 46.400455 227.602733 
L 50.840978 278.790302 
L 54.371146 288.350014 
L 57.329503 290.36985 
L 59.770536 291.617466 
L 60.782189 294.060399 
L 61.220714 294.449572 
L 61.842763 293.666985 
L 61.843349 293.93837 
L 62.553571 293.221745 
L 63.254859 295.237341 
L 63.759734 293.261793 
L 64.294634 293.385235 
L 64.854727 295.151591 
" clip-path="url(#p7cb5a47aee)" style="fill: none; stroke: #9b5c6f; stroke-width: 6; stroke-linecap: square"/>
    <defs>
     <path id="m9c84c28730" d="M 0 4 
C 1.060812 4 2.078319 3.578535 2.828427 2.828427 
C 3.578535 2.078319 4 1.060812 4 0 
C 4 -1.060812 3.578535 -2.078319 2.828427 -2.828427 
C 2.078319 -3.578535 1.060812 -4 0 -4 
C -1.060812 -4 -2.078319 -3.578535 -2.828427 -2.828427 
C -3.578535 -2.078319 -4 -1.060812 -4 0 
C -4 1.060812 -3.578535 2.078319 -2.828427 2.828427 
C -2.078319 3.578535 -1.060812 4 0 4 
z
" style="stroke: #9b5c6f"/>
    </defs>
    <g clip-path="url(#p7cb5a47aee)">
     <use xlink:href="#m9c84c28730" x="46.871495" y="20.332727" style="fill: #9b5c6f; stroke: #9b5c6f"/>
     <use xlink:href="#m9c84c28730" x="46.400455" y="227.602733" style="fill: #9b5c6f; stroke: #9b5c6f"/>
     <use xlink:href="#m9c84c28730" x="50.840978" y="278.790302" style="fill: #9b5c6f; stroke: #9b5c6f"/>
     <use xlink:href="#m9c84c28730" x="54.371146" y="288.350014" style="fill: #9b5c6f; stroke: #9b5c6f"/>
     <use xlink:href="#m9c84c28730" x="57.329503" y="290.36985" style="fill: #9b5c6f; stroke: #9b5c6f"/>
     <use xlink:href="#m9c84c28730" x="59.770536" y="291.617466" style="fill: #9b5c6f; stroke: #9b5c6f"/>
     <use xlink:href="#m9c84c28730" x="60.782189" y="294.060399" style="fill: #9b5c6f; stroke: #9b5c6f"/>
     <use xlink:href="#m9c84c28730" x="61.220714" y="294.449572" style="fill: #9b5c6f; stroke: #9b5c6f"/>
     <use xlink:href="#m9c84c28730" x="61.842763" y="293.666985" style="fill: #9b5c6f; stroke: #9b5c6f"/>
     <use xlink:href="#m9c84c28730" x="61.843349" y="293.93837" style="fill: #9b5c6f; stroke: #9b5c6f"/>
     <use xlink:href="#m9c84c28730" x="62.553571" y="293.221745" style="fill: #9b5c6f; stroke: #9b5c6f"/>
     <use xlink:href="#m9c84c28730" x="63.254859" y="295.237341" style="fill: #9b5c6f; stroke: #9b5c6f"/>
     <use xlink:href="#m9c84c28730" x="63.759734" y="293.261793" style="fill: #9b5c6f; stroke: #9b5c6f"/>
     <use xlink:href="#m9c84c28730" x="64.294634" y="293.385235" style="fill: #9b5c6f; stroke: #9b5c6f"/>
     <use xlink:href="#m9c84c28730" x="64.854727" y="295.151591" style="fill: #9b5c6f; stroke: #9b5c6f"/>
    </g>
   </g>
   <g id="line2d_12">
    <path d="M 79.738642 240.282426 
L 79.925974 254.128696 
L 75.512019 281.710514 
L 73.797174 321.374601 
L 79.409675 357.336362 
L 91.694078 383.901901 
L 108.317884 399.576955 
L 126.018667 408.694583 
L 142.575098 414.864861 
L 157.148647 417.976125 
L 169.799805 419.855181 
L 180.526816 421.458282 
L 189.722799 422.923948 
L 216.378479 425.554258 
L 230.175749 426.667972 
L 237.991272 426.987273 
L 242.209545 426.737985 
" clip-path="url(#p7cb5a47aee)" style="fill: none; stroke: #537b8d; stroke-width: 6; stroke-linecap: square"/>
    <defs>
     <path id="m37169809be" d="M -0 4 
L 4 -4 
L -4 -4 
z
" style="stroke: #537b8d; stroke-linejoin: miter"/>
    </defs>
    <g clip-path="url(#p7cb5a47aee)">
     <use xlink:href="#m37169809be" x="79.738642" y="240.282426" style="fill: #537b8d; stroke: #537b8d; stroke-linejoin: miter"/>
     <use xlink:href="#m37169809be" x="79.925974" y="254.128696" style="fill: #537b8d; stroke: #537b8d; stroke-linejoin: miter"/>
     <use xlink:href="#m37169809be" x="75.512019" y="281.710514" style="fill: #537b8d; stroke: #537b8d; stroke-linejoin: miter"/>
     <use xlink:href="#m37169809be" x="73.797174" y="321.374601" style="fill: #537b8d; stroke: #537b8d; stroke-linejoin: miter"/>
     <use xlink:href="#m37169809be" x="79.409675" y="357.336362" style="fill: #537b8d; stroke: #537b8d; stroke-linejoin: miter"/>
     <use xlink:href="#m37169809be" x="91.694078" y="383.901901" style="fill: #537b8d; stroke: #537b8d; stroke-linejoin: miter"/>
     <use xlink:href="#m37169809be" x="108.317884" y="399.576955" style="fill: #537b8d; stroke: #537b8d; stroke-linejoin: miter"/>
     <use xlink:href="#m37169809be" x="126.018667" y="408.694583" style="fill: #537b8d; stroke: #537b8d; stroke-linejoin: miter"/>
     <use xlink:href="#m37169809be" x="142.575098" y="414.864861" style="fill: #537b8d; stroke: #537b8d; stroke-linejoin: miter"/>
     <use xlink:href="#m37169809be" x="157.148647" y="417.976125" style="fill: #537b8d; stroke: #537b8d; stroke-linejoin: miter"/>
     <use xlink:href="#m37169809be" x="169.799805" y="419.855181" style="fill: #537b8d; stroke: #537b8d; stroke-linejoin: miter"/>
     <use xlink:href="#m37169809be" x="180.526816" y="421.458282" style="fill: #537b8d; stroke: #537b8d; stroke-linejoin: miter"/>
     <use xlink:href="#m37169809be" x="189.722799" y="422.923948" style="fill: #537b8d; stroke: #537b8d; stroke-linejoin: miter"/>
     <use xlink:href="#m37169809be" x="216.378479" y="425.554258" style="fill: #537b8d; stroke: #537b8d; stroke-linejoin: miter"/>
     <use xlink:href="#m37169809be" x="230.175749" y="426.667972" style="fill: #537b8d; stroke: #537b8d; stroke-linejoin: miter"/>
     <use xlink:href="#m37169809be" x="237.991272" y="426.987273" style="fill: #537b8d; stroke: #537b8d; stroke-linejoin: miter"/>
     <use xlink:href="#m37169809be" x="242.209545" y="426.737985" style="fill: #537b8d; stroke: #537b8d; stroke-linejoin: miter"/>
    </g>
   </g>
   <g id="line2d_13">
    <path d="M 46.871495 20.414237 
L 46.400455 320.605678 
L 50.840978 402.01103 
L 54.371146 406.299802 
L 57.329503 417.559248 
L 59.770536 410.996216 
L 60.782189 419.06647 
L 61.220714 419.676755 
L 61.842763 419.86272 
L 61.843349 412.075347 
L 62.553571 411.932211 
L 63.254859 420.821659 
L 63.759734 412.452412 
L 64.294634 421.118957 
L 64.854727 413.369089 
" clip-path="url(#p7cb5a47aee)" style="fill: none; stroke: #a2803a; stroke-width: 6; stroke-linecap: square"/>
    <defs>
     <path id="m7de6fcc756" d="M -4 4 
L 4 4 
L 4 -4 
L -4 -4 
z
" style="stroke: #a2803a; stroke-linejoin: miter"/>
    </defs>
    <g clip-path="url(#p7cb5a47aee)">
     <use xlink:href="#m7de6fcc756" x="46.871495" y="20.414237" style="fill: #a2803a; stroke: #a2803a; stroke-linejoin: miter"/>
     <use xlink:href="#m7de6fcc756" x="46.400455" y="320.605678" style="fill: #a2803a; stroke: #a2803a; stroke-linejoin: miter"/>
     <use xlink:href="#m7de6fcc756" x="50.840978" y="402.01103" style="fill: #a2803a; stroke: #a2803a; stroke-linejoin: miter"/>
     <use xlink:href="#m7de6fcc756" x="54.371146" y="406.299802" style="fill: #a2803a; stroke: #a2803a; stroke-linejoin: miter"/>
     <use xlink:href="#m7de6fcc756" x="57.329503" y="417.559248" style="fill: #a2803a; stroke: #a2803a; stroke-linejoin: miter"/>
     <use xlink:href="#m7de6fcc756" x="59.770536" y="410.996216" style="fill: #a2803a; stroke: #a2803a; stroke-linejoin: miter"/>
     <use xlink:href="#m7de6fcc756" x="60.782189" y="419.06647" style="fill: #a2803a; stroke: #a2803a; stroke-linejoin: miter"/>
     <use xlink:href="#m7de6fcc756" x="61.220714" y="419.676755" style="fill: #a2803a; stroke: #a2803a; stroke-linejoin: miter"/>
     <use xlink:href="#m7de6fcc756" x="61.842763" y="419.86272" style="fill: #a2803a; stroke: #a2803a; stroke-linejoin: miter"/>
     <use xlink:href="#m7de6fcc756" x="61.843349" y="412.075347" style="fill: #a2803a; stroke: #a2803a; stroke-linejoin: miter"/>
     <use xlink:href="#m7de6fcc756" x="62.553571" y="411.932211" style="fill: #a2803a; stroke: #a2803a; stroke-linejoin: miter"/>
     <use xlink:href="#m7de6fcc756" x="63.254859" y="420.821659" style="fill: #a2803a; stroke: #a2803a; stroke-linejoin: miter"/>
     <use xlink:href="#m7de6fcc756" x="63.759734" y="412.452412" style="fill: #a2803a; stroke: #a2803a; stroke-linejoin: miter"/>
     <use xlink:href="#m7de6fcc756" x="64.294634" y="421.118957" style="fill: #a2803a; stroke: #a2803a; stroke-linejoin: miter"/>
     <use xlink:href="#m7de6fcc756" x="64.854727" y="413.369089" style="fill: #a2803a; stroke: #a2803a; stroke-linejoin: miter"/>
    </g>
   </g>
   <g id="patch_3">
    <path d="M 36.61 447.32 
L 36.61 0 
" style="fill: none; stroke: #000000; stroke-width: 0.8; stroke-linejoin: miter; stroke-linecap: square"/>
   </g>
   <g id="patch_4">
    <path d="M 252 447.32 
L 252 0 
" style="fill: none; stroke: #000000; stroke-width: 0.8; stroke-linejoin: miter; stroke-linecap: square"/>
   </g>
   <g id="patch_5">
    <path d="M 36.61 447.32 
L 252 447.32 
" style="fill: none; stroke: #000000; stroke-width: 0.8; stroke-linejoin: miter; stroke-linecap: square"/>
   </g>
   <g id="patch_6">
    <path d="M 36.61 0 
L 252 0 
" style="fill: none; stroke: #000000; stroke-width: 0.8; stroke-linejoin: miter; stroke-linecap: square"/>
   </g>
  </g>
 </g>
 <defs>
  <clipPath id="p7cb5a47aee">
   <rect x="36.61" y="0" width="215.39" height="447.32"/>
  </clipPath>
 </defs>
</svg>
