<?xml version="1.0" encoding="utf-8" standalone="no"?>
<!DOCTYPE svg PUBLIC "-//W3C//DTD SVG 1.1//EN"
  "http://www.w3.org/Graphics/SVG/1.1/DTD/svg11.dtd">
<svg xmlns:xlink="http://www.w3.org/1999/xlink" width="252pt" height="468pt" viewBox="0 0 252 468" xmlns="http://www.w3.org/2000/svg" version="1.1">
 <metadata>
  <rdf:RDF xmlns:dc="http://purl.org/dc/elements/1.1/" xmlns:cc="http://creativecommons.org/ns#" xmlns:rdf="http://www.w3.org/1999/02/22-rdf-syntax-ns#">
   <cc:Work>
    <dc:type rdf:resource="http://purl.org/dc/dcmitype/StillImage"/>
    <dc:date>2024-05-18T11:19:14.808404</dc:date>
    <dc:format>image/svg+xml</dc:format>
    <dc:creator>
     <cc:Agent>
      <dc:title>Matplotlib v3.5.3, https://matplotlib.org/</dc:title>
     </cc:Agent>
    </dc:creator>
   </cc:Work>
  </rdf:RDF>
 </metadata>
 <defs>
  <style type="text/css">*{stroke-linejoin: round; stroke-linecap: butt}</style>
 </defs>
 <g id="figure_1">
  <g id="patch_1">
   <path d="M 0 468 
L 252 468 
L 252 0 
L 0 0 
z
" style="fill: #ffffff"/>
  </g>
  <g id="axes_1">
   <g id="patch_2">
    <path d="M 41.56 447.32 
L 252 447.32 
L 252 0 
L 41.56 0 
z
" style="fill: #e6f2ff"/>
   </g>
   <g id="matplotlib.axis_1">
    <g id="xtick_1">
     <g id="line2d_1">
      <path d="M 111.371929 447.32 
L 111.371929 0 
" clip-path="url(#p9b7218cf46)" style="fill: none; stroke: #ffffff; stroke-width: 2; stroke-linecap: square"/>
     </g>
     <g id="line2d_2">
      <defs>
       <path id="m2994a840a3" d="M 0 0 
L 0 3.5 
" style="stroke: #000000; stroke-width: 0.8"/>
      </defs>
      <g>
       <use xlink:href="#m2994a840a3" x="111.371929" y="447.32" style="stroke: #000000; stroke-width: 0.8"/>
      </g>
     </g>
     <g id="text_1">
      <!-- 5.0e-3 -->
      <g transform="translate(94.099804 464.37525)scale(0.144 -0.144)">
       <defs>
        <path id="LinLibertine-35" d="M 2041 1209 
Q 2041 1709 1836 1945 
Q 1631 2181 1300 2181 
Q 897 2181 488 2028 
L 703 3872 
Q 1075 3841 1394 3841 
Q 1778 3841 2444 3909 
L 2491 3884 
L 2388 3450 
Q 1991 3413 1716 3413 
Q 1497 3413 966 3469 
L 838 2400 
Q 1100 2503 1466 2503 
Q 1984 2503 2298 2158 
Q 2613 1813 2613 1325 
Q 2613 716 2231 322 
Q 1850 -72 1253 -72 
Q 959 -72 653 76 
Q 347 225 347 409 
Q 347 506 420 576 
Q 494 647 588 647 
Q 759 647 916 441 
Q 922 428 953 387 
Q 984 347 998 326 
Q 1013 306 1044 275 
Q 1075 244 1100 228 
Q 1125 213 1164 189 
Q 1203 166 1245 159 
Q 1288 153 1338 153 
Q 1631 153 1836 458 
Q 2041 763 2041 1209 
z
" transform="scale(0.015625)"/>
        <path id="LinLibertine-2e" d="M 464 35 
Q 366 134 366 275 
Q 366 416 464 516 
Q 563 616 703 616 
Q 844 616 944 516 
Q 1044 416 1044 275 
Q 1044 134 944 35 
Q 844 -63 703 -63 
Q 563 -63 464 35 
z
" transform="scale(0.015625)"/>
        <path id="LinLibertine-30" d="M 1484 3681 
Q 1363 3681 1255 3603 
Q 1147 3525 1040 3340 
Q 934 3156 870 2762 
Q 806 2369 806 1813 
Q 806 163 1466 159 
Q 1522 159 1586 178 
Q 1650 197 1737 251 
Q 1825 306 1904 431 
Q 1984 556 2034 744 
Q 2144 1141 2144 2059 
Q 2144 3256 1772 3572 
Q 1650 3681 1484 3681 
z
M 1459 -63 
Q 1078 -63 809 206 
Q 547 466 398 916 
Q 250 1366 250 1881 
Q 250 2791 617 3347 
Q 984 3903 1484 3903 
Q 1953 3903 2266 3488 
Q 2700 2913 2700 1941 
Q 2700 1409 2578 998 
Q 2456 588 2262 367 
Q 2069 147 1862 42 
Q 1656 -63 1459 -63 
z
" transform="scale(0.015625)"/>
        <path id="LinLibertine-65" d="M 794 1806 
L 1953 1825 
Q 2050 1825 2047 1913 
Q 2047 2278 1890 2431 
Q 1734 2584 1516 2584 
Q 1431 2584 1350 2562 
Q 1269 2541 1150 2470 
Q 1031 2400 934 2228 
Q 838 2056 794 1806 
z
M 2472 594 
Q 2581 588 2606 494 
Q 2178 -63 1516 -63 
Q 881 -63 538 347 
Q 238 694 238 1294 
Q 238 1972 644 2384 
Q 1050 2797 1516 2797 
Q 2597 2797 2597 1684 
Q 2597 1575 2478 1575 
L 775 1588 
Q 775 1050 978 709 
Q 1259 250 1678 250 
Q 1947 250 2117 326 
Q 2288 403 2472 594 
z
" transform="scale(0.015625)"/>
        <path id="LinLibertine-2d" d="M 1734 1428 
L 353 1428 
Q 256 1428 256 1550 
Q 256 1641 307 1727 
Q 359 1813 416 1813 
L 1819 1813 
Q 1909 1813 1906 1684 
Q 1906 1622 1848 1525 
Q 1791 1428 1734 1428 
z
" transform="scale(0.015625)"/>
        <path id="LinLibertine-33" d="M 1375 3681 
Q 1259 3681 1139 3648 
Q 1019 3616 894 3497 
Q 769 3378 769 3194 
Q 769 2863 519 2859 
Q 416 2859 358 2931 
Q 300 3003 300 3078 
Q 300 3175 361 3300 
Q 422 3425 550 3569 
Q 678 3713 931 3808 
Q 1184 3903 1509 3903 
Q 1963 3903 2209 3653 
Q 2409 3450 2409 3147 
Q 2409 2878 2261 2676 
Q 2113 2475 1734 2297 
L 1741 2284 
Q 2100 2228 2372 1984 
Q 2644 1741 2644 1275 
Q 2644 666 2220 301 
Q 1797 -63 1203 -63 
Q 884 -63 582 60 
Q 281 184 281 366 
Q 281 444 367 516 
Q 453 588 550 588 
Q 703 588 825 422 
Q 831 416 854 381 
Q 878 347 887 333 
Q 897 319 919 291 
Q 941 263 959 250 
Q 978 238 1014 214 
Q 1050 191 1087 181 
Q 1125 172 1176 165 
Q 1228 159 1288 159 
Q 1391 159 1508 204 
Q 1625 250 1762 348 
Q 1900 447 1990 665 
Q 2081 884 2081 1184 
Q 2081 2009 1241 2009 
Q 1044 2009 934 1997 
L 903 2203 
Q 1347 2266 1628 2548 
Q 1909 2831 1909 3103 
Q 1909 3300 1831 3433 
Q 1753 3566 1637 3623 
Q 1522 3681 1375 3681 
z
" transform="scale(0.015625)"/>
       </defs>
       <use xlink:href="#LinLibertine-35"/>
       <use xlink:href="#LinLibertine-2e" x="46.484375"/>
       <use xlink:href="#LinLibertine-30" x="68.457031"/>
       <use xlink:href="#LinLibertine-65" x="114.941406"/>
       <use xlink:href="#LinLibertine-2d" x="159.619141"/>
       <use xlink:href="#LinLibertine-33" x="193.408203"/>
      </g>
     </g>
    </g>
    <g id="xtick_2">
     <g id="line2d_3">
      <path d="M 182.922813 447.32 
L 182.922813 0 
" clip-path="url(#p9b7218cf46)" style="fill: none; stroke: #ffffff; stroke-width: 2; stroke-linecap: square"/>
     </g>
     <g id="line2d_4">
      <g>
       <use xlink:href="#m2994a840a3" x="182.922813" y="447.32" style="stroke: #000000; stroke-width: 0.8"/>
      </g>
     </g>
     <g id="text_2">
      <!-- 1.0e-2 -->
      <g transform="translate(165.650688 464.37525)scale(0.144 -0.144)">
       <defs>
        <path id="LinLibertine-31" d="M 1844 781 
Q 1844 397 1942 305 
Q 2041 213 2400 197 
Q 2431 166 2431 89 
Q 2431 13 2400 -13 
Q 1759 0 1619 0 
Q 1356 0 728 -13 
Q 703 13 703 89 
Q 703 166 728 197 
Q 1100 209 1225 309 
Q 1350 409 1350 781 
L 1350 2869 
Q 1350 3241 1222 3238 
Q 1050 3238 666 3078 
Q 588 3128 569 3250 
Q 1466 3666 1825 3891 
Q 1863 3891 1863 3859 
Q 1844 3713 1844 3003 
L 1844 781 
z
" transform="scale(0.015625)"/>
        <path id="LinLibertine-32" d="M 391 2994 
Q 391 3313 717 3608 
Q 1044 3903 1544 3903 
Q 1978 3903 2301 3658 
Q 2625 3413 2625 2931 
Q 2625 2700 2528 2495 
Q 2431 2291 2320 2159 
Q 2209 2028 1984 1813 
L 1338 1191 
Q 863 716 863 416 
L 2003 416 
Q 2175 416 2272 550 
Q 2369 684 2450 1031 
Q 2572 1056 2638 997 
Q 2625 550 2484 -13 
Q 2191 0 1984 0 
L 863 0 
L 331 -13 
Q 331 294 476 578 
Q 622 863 1063 1313 
L 1538 1778 
Q 2063 2309 2059 2906 
Q 2059 3322 1890 3501 
Q 1722 3681 1503 3681 
Q 1184 3681 1028 3559 
Q 872 3438 872 3291 
Q 872 3259 897 3201 
Q 922 3144 922 3138 
Q 947 3047 947 3003 
Q 947 2906 842 2826 
Q 738 2747 647 2747 
Q 544 2747 467 2819 
Q 391 2891 391 2994 
z
" transform="scale(0.015625)"/>
       </defs>
       <use xlink:href="#LinLibertine-31"/>
       <use xlink:href="#LinLibertine-2e" x="46.484375"/>
       <use xlink:href="#LinLibertine-30" x="68.457031"/>
       <use xlink:href="#LinLibertine-65" x="114.941406"/>
       <use xlink:href="#LinLibertine-2d" x="159.619141"/>
       <use xlink:href="#LinLibertine-32" x="193.408203"/>
      </g>
     </g>
    </g>
   </g>
   <g id="matplotlib.axis_2">
    <g id="ytick_1">
     <g id="line2d_5">
      <path d="M 41.56 318.321951 
L 252 318.321951 
" clip-path="url(#p9b7218cf46)" style="fill: none; stroke: #ffffff; stroke-width: 2; stroke-linecap: square"/>
     </g>
     <g id="line2d_6">
      <defs>
       <path id="m7ac8a71f3f" d="M 0 0 
L -3.5 0 
" style="stroke: #000000; stroke-width: 0.8"/>
      </defs>
      <g>
       <use xlink:href="#m7ac8a71f3f" x="41.56" y="318.321951" style="stroke: #000000; stroke-width: 0.8"/>
      </g>
     </g>
     <g id="text_3">
      <!-- 3.0e-1 -->
      <g transform="translate(0.01575 323.349576)scale(0.144 -0.144)">
       <use xlink:href="#LinLibertine-33"/>
       <use xlink:href="#LinLibertine-2e" x="46.484375"/>
       <use xlink:href="#LinLibertine-30" x="68.457031"/>
       <use xlink:href="#LinLibertine-65" x="114.941406"/>
       <use xlink:href="#LinLibertine-2d" x="159.619141"/>
       <use xlink:href="#LinLibertine-31" x="193.408203"/>
      </g>
     </g>
    </g>
    <g id="ytick_2">
     <g id="line2d_7">
      <path d="M 41.56 167.218949 
L 252 167.218949 
" clip-path="url(#p9b7218cf46)" style="fill: none; stroke: #ffffff; stroke-width: 2; stroke-linecap: square"/>
     </g>
     <g id="line2d_8">
      <g>
       <use xlink:href="#m7ac8a71f3f" x="41.56" y="167.218949" style="stroke: #000000; stroke-width: 0.8"/>
      </g>
     </g>
     <g id="text_4">
      <!-- 6.0e-1 -->
      <g transform="translate(0.01575 172.246574)scale(0.144 -0.144)">
       <defs>
        <path id="LinLibertine-36" d="M 866 1966 
Q 813 1709 813 1466 
Q 813 709 1020 431 
Q 1228 153 1581 153 
Q 1831 153 1997 415 
Q 2163 678 2163 1178 
Q 2163 1319 2128 1462 
Q 2094 1606 2017 1759 
Q 1941 1913 1780 2013 
Q 1619 2113 1394 2113 
Q 1091 2113 866 1966 
z
M 925 2197 
Q 1228 2334 1528 2338 
Q 2138 2338 2416 2045 
Q 2694 1753 2694 1294 
Q 2694 800 2387 364 
Q 2081 -72 1509 -72 
Q 1297 -72 1106 -8 
Q 916 56 717 214 
Q 519 372 400 698 
Q 281 1025 281 1484 
Q 281 2341 878 3034 
Q 1409 3656 2278 3909 
Q 2356 3859 2356 3744 
Q 1766 3522 1420 3109 
Q 1075 2697 925 2197 
z
" transform="scale(0.015625)"/>
       </defs>
       <use xlink:href="#LinLibertine-36"/>
       <use xlink:href="#LinLibertine-2e" x="46.484375"/>
       <use xlink:href="#LinLibertine-30" x="68.457031"/>
       <use xlink:href="#LinLibertine-65" x="114.941406"/>
       <use xlink:href="#LinLibertine-2d" x="159.619141"/>
       <use xlink:href="#LinLibertine-31" x="193.408203"/>
      </g>
     </g>
    </g>
    <g id="ytick_3">
     <g id="line2d_9">
      <path d="M 41.56 16.115946 
L 252 16.115946 
" clip-path="url(#p9b7218cf46)" style="fill: none; stroke: #ffffff; stroke-width: 2; stroke-linecap: square"/>
     </g>
     <g id="line2d_10">
      <g>
       <use xlink:href="#m7ac8a71f3f" x="41.56" y="16.115946" style="stroke: #000000; stroke-width: 0.8"/>
      </g>
     </g>
     <g id="text_5">
      <!-- 9.0e-1 -->
      <g transform="translate(0.01575 21.143571)scale(0.144 -0.144)">
       <defs>
        <path id="LinLibertine-39" d="M 2150 1869 
Q 2203 2125 2203 2369 
Q 2203 3125 1993 3403 
Q 1784 3681 1434 3681 
Q 1184 3681 1017 3418 
Q 850 3156 850 2656 
Q 850 2516 886 2372 
Q 922 2228 998 2073 
Q 1075 1919 1234 1820 
Q 1394 1722 1619 1722 
Q 1925 1722 2150 1869 
z
M 2091 1638 
Q 1788 1500 1484 1497 
Q 875 1497 597 1789 
Q 319 2081 319 2541 
Q 319 3034 626 3468 
Q 934 3903 1503 3903 
Q 1716 3903 1908 3839 
Q 2100 3775 2298 3619 
Q 2497 3463 2614 3136 
Q 2731 2809 2731 2350 
Q 2731 1494 2138 800 
Q 1606 178 738 -78 
Q 659 -34 659 91 
Q 1250 313 1595 725 
Q 1941 1138 2091 1638 
z
" transform="scale(0.015625)"/>
       </defs>
       <use xlink:href="#LinLibertine-39"/>
       <use xlink:href="#LinLibertine-2e" x="46.484375"/>
       <use xlink:href="#LinLibertine-30" x="68.457031"/>
       <use xlink:href="#LinLibertine-65" x="114.941406"/>
       <use xlink:href="#LinLibertine-2d" x="159.619141"/>
       <use xlink:href="#LinLibertine-31" x="193.408203"/>
      </g>
     </g>
    </g>
   </g>
   <g id="line2d_11">
    <path d="M 51.58567 20.332727 
L 51.125455 150.631868 
L 55.463928 190.299932 
L 58.912967 199.810355 
L 61.803336 203.199596 
L 64.188271 204.874824 
L 65.176674 205.740645 
L 65.605121 206.416579 
L 66.212874 206.941913 
L 66.213447 207.321686 
L 66.907347 207.659653 
L 67.592518 208.323499 
L 68.08579 208.710826 
L 68.608398 209.02512 
L 69.155619 209.180756 
" clip-path="url(#p9b7218cf46)" style="fill: none; stroke: #9b5c6f; stroke-width: 6; stroke-linecap: square"/>
    <defs>
     <path id="m4259c1c054" d="M 0 4 
C 1.060812 4 2.078319 3.578535 2.828427 2.828427 
C 3.578535 2.078319 4 1.060812 4 0 
C 4 -1.060812 3.578535 -2.078319 2.828427 -2.828427 
C 2.078319 -3.578535 1.060812 -4 0 -4 
C -1.060812 -4 -2.078319 -3.578535 -2.828427 -2.828427 
C -3.578535 -2.078319 -4 -1.060812 -4 0 
C -4 1.060812 -3.578535 2.078319 -2.828427 2.828427 
C -2.078319 3.578535 -1.060812 4 0 4 
z
" style="stroke: #9b5c6f"/>
    </defs>
    <g clip-path="url(#p9b7218cf46)">
     <use xlink:href="#m4259c1c054" x="51.58567" y="20.332727" style="fill: #9b5c6f; stroke: #9b5c6f"/>
     <use xlink:href="#m4259c1c054" x="51.125455" y="150.631868" style="fill: #9b5c6f; stroke: #9b5c6f"/>
     <use xlink:href="#m4259c1c054" x="55.463928" y="190.299932" style="fill: #9b5c6f; stroke: #9b5c6f"/>
     <use xlink:href="#m4259c1c054" x="58.912967" y="199.810355" style="fill: #9b5c6f; stroke: #9b5c6f"/>
     <use xlink:href="#m4259c1c054" x="61.803336" y="203.199596" style="fill: #9b5c6f; stroke: #9b5c6f"/>
     <use xlink:href="#m4259c1c054" x="64.188271" y="204.874824" style="fill: #9b5c6f; stroke: #9b5c6f"/>
     <use xlink:href="#m4259c1c054" x="65.176674" y="205.740645" style="fill: #9b5c6f; stroke: #9b5c6f"/>
     <use xlink:href="#m4259c1c054" x="65.605121" y="206.416579" style="fill: #9b5c6f; stroke: #9b5c6f"/>
     <use xlink:href="#m4259c1c054" x="66.212874" y="206.941913" style="fill: #9b5c6f; stroke: #9b5c6f"/>
     <use xlink:href="#m4259c1c054" x="66.213447" y="207.321686" style="fill: #9b5c6f; stroke: #9b5c6f"/>
     <use xlink:href="#m4259c1c054" x="66.907347" y="207.659653" style="fill: #9b5c6f; stroke: #9b5c6f"/>
     <use xlink:href="#m4259c1c054" x="67.592518" y="208.323499" style="fill: #9b5c6f; stroke: #9b5c6f"/>
     <use xlink:href="#m4259c1c054" x="68.08579" y="208.710826" style="fill: #9b5c6f; stroke: #9b5c6f"/>
     <use xlink:href="#m4259c1c054" x="68.608398" y="209.02512" style="fill: #9b5c6f; stroke: #9b5c6f"/>
     <use xlink:href="#m4259c1c054" x="69.155619" y="209.180756" style="fill: #9b5c6f; stroke: #9b5c6f"/>
    </g>
   </g>
   <g id="line2d_12">
    <path d="M 83.697478 158.674074 
L 83.880505 171.395436 
L 79.56799 209.198889 
L 77.892554 262.136818 
L 83.376071 313.602501 
L 95.37816 353.05751 
L 111.619924 379.401311 
L 128.913916 395.572858 
L 145.089854 405.508384 
L 159.32848 411.474938 
L 171.688895 415.496292 
L 182.169382 418.345591 
L 191.154027 420.342468 
L 217.197118 424.570531 
L 230.677304 425.988029 
L 238.313215 426.661948 
L 242.434545 426.987273 
" clip-path="url(#p9b7218cf46)" style="fill: none; stroke: #537b8d; stroke-width: 6; stroke-linecap: square"/>
    <defs>
     <path id="ma8a5287951" d="M -0 4 
L 4 -4 
L -4 -4 
z
" style="stroke: #537b8d; stroke-linejoin: miter"/>
    </defs>
    <g clip-path="url(#p9b7218cf46)">
     <use xlink:href="#ma8a5287951" x="83.697478" y="158.674074" style="fill: #537b8d; stroke: #537b8d; stroke-linejoin: miter"/>
     <use xlink:href="#ma8a5287951" x="83.880505" y="171.395436" style="fill: #537b8d; stroke: #537b8d; stroke-linejoin: miter"/>
     <use xlink:href="#ma8a5287951" x="79.56799" y="209.198889" style="fill: #537b8d; stroke: #537b8d; stroke-linejoin: miter"/>
     <use xlink:href="#ma8a5287951" x="77.892554" y="262.136818" style="fill: #537b8d; stroke: #537b8d; stroke-linejoin: miter"/>
     <use xlink:href="#ma8a5287951" x="83.376071" y="313.602501" style="fill: #537b8d; stroke: #537b8d; stroke-linejoin: miter"/>
     <use xlink:href="#ma8a5287951" x="95.37816" y="353.05751" style="fill: #537b8d; stroke: #537b8d; stroke-linejoin: miter"/>
     <use xlink:href="#ma8a5287951" x="111.619924" y="379.401311" style="fill: #537b8d; stroke: #537b8d; stroke-linejoin: miter"/>
     <use xlink:href="#ma8a5287951" x="128.913916" y="395.572858" style="fill: #537b8d; stroke: #537b8d; stroke-linejoin: miter"/>
     <use xlink:href="#ma8a5287951" x="145.089854" y="405.508384" style="fill: #537b8d; stroke: #537b8d; stroke-linejoin: miter"/>
     <use xlink:href="#ma8a5287951" x="159.32848" y="411.474938" style="fill: #537b8d; stroke: #537b8d; stroke-linejoin: miter"/>
     <use xlink:href="#ma8a5287951" x="171.688895" y="415.496292" style="fill: #537b8d; stroke: #537b8d; stroke-linejoin: miter"/>
     <use xlink:href="#ma8a5287951" x="182.169382" y="418.345591" style="fill: #537b8d; stroke: #537b8d; stroke-linejoin: miter"/>
     <use xlink:href="#ma8a5287951" x="191.154027" y="420.342468" style="fill: #537b8d; stroke: #537b8d; stroke-linejoin: miter"/>
     <use xlink:href="#ma8a5287951" x="217.197118" y="424.570531" style="fill: #537b8d; stroke: #537b8d; stroke-linejoin: miter"/>
     <use xlink:href="#ma8a5287951" x="230.677304" y="425.988029" style="fill: #537b8d; stroke: #537b8d; stroke-linejoin: miter"/>
     <use xlink:href="#ma8a5287951" x="238.313215" y="426.661948" style="fill: #537b8d; stroke: #537b8d; stroke-linejoin: miter"/>
     <use xlink:href="#ma8a5287951" x="242.434545" y="426.987273" style="fill: #537b8d; stroke: #537b8d; stroke-linejoin: miter"/>
    </g>
   </g>
   <g id="line2d_13">
    <path d="M 51.58567 30.955268 
L 51.125455 163.738039 
L 55.463928 206.91673 
L 58.912967 213.150736 
L 61.803336 219.893455 
L 64.188271 218.229811 
L 65.176674 222.281387 
L 65.605121 222.815284 
L 66.212874 223.225277 
L 66.213447 220.436923 
L 66.907347 220.639401 
L 67.592518 224.844597 
L 68.08579 221.63668 
L 68.608398 225.562336 
L 69.155619 222.252173 
" clip-path="url(#p9b7218cf46)" style="fill: none; stroke: #a2803a; stroke-width: 6; stroke-linecap: square"/>
    <defs>
     <path id="mf093d7b815" d="M -4 4 
L 4 4 
L 4 -4 
L -4 -4 
z
" style="stroke: #a2803a; stroke-linejoin: miter"/>
    </defs>
    <g clip-path="url(#p9b7218cf46)">
     <use xlink:href="#mf093d7b815" x="51.58567" y="30.955268" style="fill: #a2803a; stroke: #a2803a; stroke-linejoin: miter"/>
     <use xlink:href="#mf093d7b815" x="51.125455" y="163.738039" style="fill: #a2803a; stroke: #a2803a; stroke-linejoin: miter"/>
     <use xlink:href="#mf093d7b815" x="55.463928" y="206.91673" style="fill: #a2803a; stroke: #a2803a; stroke-linejoin: miter"/>
     <use xlink:href="#mf093d7b815" x="58.912967" y="213.150736" style="fill: #a2803a; stroke: #a2803a; stroke-linejoin: miter"/>
     <use xlink:href="#mf093d7b815" x="61.803336" y="219.893455" style="fill: #a2803a; stroke: #a2803a; stroke-linejoin: miter"/>
     <use xlink:href="#mf093d7b815" x="64.188271" y="218.229811" style="fill: #a2803a; stroke: #a2803a; stroke-linejoin: miter"/>
     <use xlink:href="#mf093d7b815" x="65.176674" y="222.281387" style="fill: #a2803a; stroke: #a2803a; stroke-linejoin: miter"/>
     <use xlink:href="#mf093d7b815" x="65.605121" y="222.815284" style="fill: #a2803a; stroke: #a2803a; stroke-linejoin: miter"/>
     <use xlink:href="#mf093d7b815" x="66.212874" y="223.225277" style="fill: #a2803a; stroke: #a2803a; stroke-linejoin: miter"/>
     <use xlink:href="#mf093d7b815" x="66.213447" y="220.436923" style="fill: #a2803a; stroke: #a2803a; stroke-linejoin: miter"/>
     <use xlink:href="#mf093d7b815" x="66.907347" y="220.639401" style="fill: #a2803a; stroke: #a2803a; stroke-linejoin: miter"/>
     <use xlink:href="#mf093d7b815" x="67.592518" y="224.844597" style="fill: #a2803a; stroke: #a2803a; stroke-linejoin: miter"/>
     <use xlink:href="#mf093d7b815" x="68.08579" y="221.63668" style="fill: #a2803a; stroke: #a2803a; stroke-linejoin: miter"/>
     <use xlink:href="#mf093d7b815" x="68.608398" y="225.562336" style="fill: #a2803a; stroke: #a2803a; stroke-linejoin: miter"/>
     <use xlink:href="#mf093d7b815" x="69.155619" y="222.252173" style="fill: #a2803a; stroke: #a2803a; stroke-linejoin: miter"/>
    </g>
   </g>
   <g id="patch_3">
    <path d="M 41.56 447.32 
L 41.56 -0 
" style="fill: none; stroke: #000000; stroke-width: 0.8; stroke-linejoin: miter; stroke-linecap: square"/>
   </g>
   <g id="patch_4">
    <path d="M 252 447.32 
L 252 -0 
" style="fill: none; stroke: #000000; stroke-width: 0.8; stroke-linejoin: miter; stroke-linecap: square"/>
   </g>
   <g id="patch_5">
    <path d="M 41.56 447.32 
L 252 447.32 
" style="fill: none; stroke: #000000; stroke-width: 0.8; stroke-linejoin: miter; stroke-linecap: square"/>
   </g>
   <g id="patch_6">
    <path d="M 41.56 0 
L 252 0 
" style="fill: none; stroke: #000000; stroke-width: 0.8; stroke-linejoin: miter; stroke-linecap: square"/>
   </g>
  </g>
 </g>
 <defs>
  <clipPath id="p9b7218cf46">
   <rect x="41.56" y="0" width="210.44" height="447.32"/>
  </clipPath>
 </defs>
</svg>
