<?xml version="1.0" encoding="utf-8" standalone="no"?>
<!DOCTYPE svg PUBLIC "-//W3C//DTD SVG 1.1//EN"
  "http://www.w3.org/Graphics/SVG/1.1/DTD/svg11.dtd">
<svg xmlns:xlink="http://www.w3.org/1999/xlink" width="252pt" height="468pt" viewBox="0 0 252 468" xmlns="http://www.w3.org/2000/svg" version="1.1">
 <metadata>
  <rdf:RDF xmlns:dc="http://purl.org/dc/elements/1.1/" xmlns:cc="http://creativecommons.org/ns#" xmlns:rdf="http://www.w3.org/1999/02/22-rdf-syntax-ns#">
   <cc:Work>
    <dc:type rdf:resource="http://purl.org/dc/dcmitype/StillImage"/>
    <dc:date>2024-05-18T11:19:14.772398</dc:date>
    <dc:format>image/svg+xml</dc:format>
    <dc:creator>
     <cc:Agent>
      <dc:title>Matplotlib v3.5.3, https://matplotlib.org/</dc:title>
     </cc:Agent>
    </dc:creator>
   </cc:Work>
  </rdf:RDF>
 </metadata>
 <defs>
  <style type="text/css">*{stroke-linejoin: round; stroke-linecap: butt}</style>
 </defs>
 <g id="figure_1">
  <g id="patch_1">
   <path d="M 0 468 
L 252 468 
L 252 0 
L 0 0 
z
" style="fill: #ffffff"/>
  </g>
  <g id="axes_1">
   <g id="patch_2">
    <path d="M 41.56 447.32 
L 252 447.32 
L 252 0 
L 41.56 0 
z
" style="fill: #e6f2ff"/>
   </g>
   <g id="matplotlib.axis_1">
    <g id="xtick_1">
     <g id="line2d_1">
      <path d="M 45.426682 447.32 
L 45.426682 0 
" clip-path="url(#pc96e699225)" style="fill: none; stroke: #ffffff; stroke-width: 2; stroke-linecap: square"/>
     </g>
     <g id="line2d_2">
      <defs>
       <path id="m83ed3da44b" d="M 0 0 
L 0 3.5 
" style="stroke: #000000; stroke-width: 0.8"/>
      </defs>
      <g>
       <use xlink:href="#m83ed3da44b" x="45.426682" y="447.32" style="stroke: #000000; stroke-width: 0.8"/>
      </g>
     </g>
     <g id="text_1">
      <!-- 0 -->
      <g transform="translate(42.079807 464.37525)scale(0.144 -0.144)">
       <defs>
        <path id="LinLibertine-30" d="M 1484 3681 
Q 1363 3681 1255 3603 
Q 1147 3525 1040 3340 
Q 934 3156 870 2762 
Q 806 2369 806 1813 
Q 806 163 1466 159 
Q 1522 159 1586 178 
Q 1650 197 1737 251 
Q 1825 306 1904 431 
Q 1984 556 2034 744 
Q 2144 1141 2144 2059 
Q 2144 3256 1772 3572 
Q 1650 3681 1484 3681 
z
M 1459 -63 
Q 1078 -63 809 206 
Q 547 466 398 916 
Q 250 1366 250 1881 
Q 250 2791 617 3347 
Q 984 3903 1484 3903 
Q 1953 3903 2266 3488 
Q 2700 2913 2700 1941 
Q 2700 1409 2578 998 
Q 2456 588 2262 367 
Q 2069 147 1862 42 
Q 1656 -63 1459 -63 
z
" transform="scale(0.015625)"/>
       </defs>
       <use xlink:href="#LinLibertine-30"/>
      </g>
     </g>
    </g>
    <g id="xtick_2">
     <g id="line2d_3">
      <path d="M 125.269379 447.32 
L 125.269379 0 
" clip-path="url(#pc96e699225)" style="fill: none; stroke: #ffffff; stroke-width: 2; stroke-linecap: square"/>
     </g>
     <g id="line2d_4">
      <g>
       <use xlink:href="#m83ed3da44b" x="125.269379" y="447.32" style="stroke: #000000; stroke-width: 0.8"/>
      </g>
     </g>
     <g id="text_2">
      <!-- 4.0e-1 -->
      <g transform="translate(107.997254 464.37525)scale(0.144 -0.144)">
       <defs>
        <path id="LinLibertine-34" d="M 1734 3244 
Q 1247 2578 513 1403 
L 1734 1403 
L 1734 3244 
z
M 2753 1403 
Q 2850 1403 2847 1300 
Q 2847 1244 2786 1172 
Q 2725 1100 2663 1100 
L 2222 1100 
L 2222 513 
Q 2222 409 2237 348 
Q 2253 288 2320 259 
Q 2388 231 2425 225 
Q 2463 219 2603 203 
Q 2647 197 2669 197 
Q 2700 166 2700 89 
Q 2700 13 2669 -13 
Q 2259 0 1972 0 
Q 1625 0 1216 -13 
Q 1191 13 1191 89 
Q 1191 166 1216 197 
Q 1559 222 1644 291 
Q 1734 363 1734 513 
L 1734 1100 
L 428 1100 
Q 231 1100 178 1369 
Q 1169 2925 1913 3834 
Q 1969 3906 2016 3903 
L 2222 3903 
L 2234 3891 
Q 2222 3834 2222 3272 
L 2222 1403 
L 2753 1403 
z
" transform="scale(0.015625)"/>
        <path id="LinLibertine-2e" d="M 464 35 
Q 366 134 366 275 
Q 366 416 464 516 
Q 563 616 703 616 
Q 844 616 944 516 
Q 1044 416 1044 275 
Q 1044 134 944 35 
Q 844 -63 703 -63 
Q 563 -63 464 35 
z
" transform="scale(0.015625)"/>
        <path id="LinLibertine-65" d="M 794 1806 
L 1953 1825 
Q 2050 1825 2047 1913 
Q 2047 2278 1890 2431 
Q 1734 2584 1516 2584 
Q 1431 2584 1350 2562 
Q 1269 2541 1150 2470 
Q 1031 2400 934 2228 
Q 838 2056 794 1806 
z
M 2472 594 
Q 2581 588 2606 494 
Q 2178 -63 1516 -63 
Q 881 -63 538 347 
Q 238 694 238 1294 
Q 238 1972 644 2384 
Q 1050 2797 1516 2797 
Q 2597 2797 2597 1684 
Q 2597 1575 2478 1575 
L 775 1588 
Q 775 1050 978 709 
Q 1259 250 1678 250 
Q 1947 250 2117 326 
Q 2288 403 2472 594 
z
" transform="scale(0.015625)"/>
        <path id="LinLibertine-2d" d="M 1734 1428 
L 353 1428 
Q 256 1428 256 1550 
Q 256 1641 307 1727 
Q 359 1813 416 1813 
L 1819 1813 
Q 1909 1813 1906 1684 
Q 1906 1622 1848 1525 
Q 1791 1428 1734 1428 
z
" transform="scale(0.015625)"/>
        <path id="LinLibertine-31" d="M 1844 781 
Q 1844 397 1942 305 
Q 2041 213 2400 197 
Q 2431 166 2431 89 
Q 2431 13 2400 -13 
Q 1759 0 1619 0 
Q 1356 0 728 -13 
Q 703 13 703 89 
Q 703 166 728 197 
Q 1100 209 1225 309 
Q 1350 409 1350 781 
L 1350 2869 
Q 1350 3241 1222 3238 
Q 1050 3238 666 3078 
Q 588 3128 569 3250 
Q 1466 3666 1825 3891 
Q 1863 3891 1863 3859 
Q 1844 3713 1844 3003 
L 1844 781 
z
" transform="scale(0.015625)"/>
       </defs>
       <use xlink:href="#LinLibertine-34"/>
       <use xlink:href="#LinLibertine-2e" x="46.484375"/>
       <use xlink:href="#LinLibertine-30" x="68.457031"/>
       <use xlink:href="#LinLibertine-65" x="114.941406"/>
       <use xlink:href="#LinLibertine-2d" x="159.619141"/>
       <use xlink:href="#LinLibertine-31" x="193.408203"/>
      </g>
     </g>
    </g>
    <g id="xtick_3">
     <g id="line2d_5">
      <path d="M 205.112077 447.32 
L 205.112077 0 
" clip-path="url(#pc96e699225)" style="fill: none; stroke: #ffffff; stroke-width: 2; stroke-linecap: square"/>
     </g>
     <g id="line2d_6">
      <g>
       <use xlink:href="#m83ed3da44b" x="205.112077" y="447.32" style="stroke: #000000; stroke-width: 0.8"/>
      </g>
     </g>
     <g id="text_3">
      <!-- 8.0e-1 -->
      <g transform="translate(187.839952 464.37525)scale(0.144 -0.144)">
       <defs>
        <path id="LinLibertine-38" d="M 1497 3681 
Q 1222 3681 1065 3526 
Q 909 3372 909 3144 
Q 909 2966 995 2808 
Q 1081 2650 1356 2472 
L 1556 2350 
Q 2069 2728 2069 3109 
Q 2069 3353 1930 3517 
Q 1791 3681 1497 3681 
z
M 2516 3103 
Q 2516 2828 2269 2595 
Q 2022 2363 1728 2216 
L 2181 1941 
Q 2681 1641 2681 1038 
Q 2681 628 2348 282 
Q 2016 -63 1434 -63 
Q 916 -63 605 195 
Q 294 453 294 934 
Q 294 1375 666 1703 
Q 888 1897 1181 2053 
L 1019 2156 
Q 456 2509 453 3022 
Q 453 3400 751 3651 
Q 1050 3903 1528 3903 
Q 1988 3903 2252 3679 
Q 2516 3456 2516 3103 
z
M 1447 159 
Q 1741 159 1978 323 
Q 2216 488 2216 909 
Q 2216 1422 1656 1759 
L 1356 1941 
Q 997 1703 859 1425 
Q 722 1147 722 934 
Q 722 544 950 351 
Q 1178 159 1447 159 
z
" transform="scale(0.015625)"/>
       </defs>
       <use xlink:href="#LinLibertine-38"/>
       <use xlink:href="#LinLibertine-2e" x="46.484375"/>
       <use xlink:href="#LinLibertine-30" x="68.457031"/>
       <use xlink:href="#LinLibertine-65" x="114.941406"/>
       <use xlink:href="#LinLibertine-2d" x="159.619141"/>
       <use xlink:href="#LinLibertine-31" x="193.408203"/>
      </g>
     </g>
    </g>
   </g>
   <g id="matplotlib.axis_2">
    <g id="ytick_1">
     <g id="line2d_7">
      <path d="M 41.56 379.787544 
L 252 379.787544 
" clip-path="url(#pc96e699225)" style="fill: none; stroke: #ffffff; stroke-width: 2; stroke-linecap: square"/>
     </g>
     <g id="line2d_8">
      <defs>
       <path id="m277e1068ca" d="M 0 0 
L -3.5 0 
" style="stroke: #000000; stroke-width: 0.8"/>
      </defs>
      <g>
       <use xlink:href="#m277e1068ca" x="41.56" y="379.787544" style="stroke: #000000; stroke-width: 0.8"/>
      </g>
     </g>
     <g id="text_4">
      <!-- 1.6e-1 -->
      <g transform="translate(0.01575 384.815169)scale(0.144 -0.144)">
       <defs>
        <path id="LinLibertine-36" d="M 866 1966 
Q 813 1709 813 1466 
Q 813 709 1020 431 
Q 1228 153 1581 153 
Q 1831 153 1997 415 
Q 2163 678 2163 1178 
Q 2163 1319 2128 1462 
Q 2094 1606 2017 1759 
Q 1941 1913 1780 2013 
Q 1619 2113 1394 2113 
Q 1091 2113 866 1966 
z
M 925 2197 
Q 1228 2334 1528 2338 
Q 2138 2338 2416 2045 
Q 2694 1753 2694 1294 
Q 2694 800 2387 364 
Q 2081 -72 1509 -72 
Q 1297 -72 1106 -8 
Q 916 56 717 214 
Q 519 372 400 698 
Q 281 1025 281 1484 
Q 281 2341 878 3034 
Q 1409 3656 2278 3909 
Q 2356 3859 2356 3744 
Q 1766 3522 1420 3109 
Q 1075 2697 925 2197 
z
" transform="scale(0.015625)"/>
       </defs>
       <use xlink:href="#LinLibertine-31"/>
       <use xlink:href="#LinLibertine-2e" x="46.484375"/>
       <use xlink:href="#LinLibertine-36" x="68.457031"/>
       <use xlink:href="#LinLibertine-65" x="114.941406"/>
       <use xlink:href="#LinLibertine-2d" x="159.619141"/>
       <use xlink:href="#LinLibertine-31" x="193.408203"/>
      </g>
     </g>
    </g>
    <g id="ytick_2">
     <g id="line2d_9">
      <path d="M 41.56 229.019794 
L 252 229.019794 
" clip-path="url(#pc96e699225)" style="fill: none; stroke: #ffffff; stroke-width: 2; stroke-linecap: square"/>
     </g>
     <g id="line2d_10">
      <g>
       <use xlink:href="#m277e1068ca" x="41.56" y="229.019794" style="stroke: #000000; stroke-width: 0.8"/>
      </g>
     </g>
     <g id="text_5">
      <!-- 2.4e-1 -->
      <g transform="translate(0.01575 234.047419)scale(0.144 -0.144)">
       <defs>
        <path id="LinLibertine-32" d="M 391 2994 
Q 391 3313 717 3608 
Q 1044 3903 1544 3903 
Q 1978 3903 2301 3658 
Q 2625 3413 2625 2931 
Q 2625 2700 2528 2495 
Q 2431 2291 2320 2159 
Q 2209 2028 1984 1813 
L 1338 1191 
Q 863 716 863 416 
L 2003 416 
Q 2175 416 2272 550 
Q 2369 684 2450 1031 
Q 2572 1056 2638 997 
Q 2625 550 2484 -13 
Q 2191 0 1984 0 
L 863 0 
L 331 -13 
Q 331 294 476 578 
Q 622 863 1063 1313 
L 1538 1778 
Q 2063 2309 2059 2906 
Q 2059 3322 1890 3501 
Q 1722 3681 1503 3681 
Q 1184 3681 1028 3559 
Q 872 3438 872 3291 
Q 872 3259 897 3201 
Q 922 3144 922 3138 
Q 947 3047 947 3003 
Q 947 2906 842 2826 
Q 738 2747 647 2747 
Q 544 2747 467 2819 
Q 391 2891 391 2994 
z
" transform="scale(0.015625)"/>
       </defs>
       <use xlink:href="#LinLibertine-32"/>
       <use xlink:href="#LinLibertine-2e" x="46.484375"/>
       <use xlink:href="#LinLibertine-34" x="68.457031"/>
       <use xlink:href="#LinLibertine-65" x="114.941406"/>
       <use xlink:href="#LinLibertine-2d" x="159.619141"/>
       <use xlink:href="#LinLibertine-31" x="193.408203"/>
      </g>
     </g>
    </g>
    <g id="ytick_3">
     <g id="line2d_11">
      <path d="M 41.56 78.252043 
L 252 78.252043 
" clip-path="url(#pc96e699225)" style="fill: none; stroke: #ffffff; stroke-width: 2; stroke-linecap: square"/>
     </g>
     <g id="line2d_12">
      <g>
       <use xlink:href="#m277e1068ca" x="41.56" y="78.252043" style="stroke: #000000; stroke-width: 0.8"/>
      </g>
     </g>
     <g id="text_6">
      <!-- 3.2e-1 -->
      <g transform="translate(0.01575 83.279668)scale(0.144 -0.144)">
       <defs>
        <path id="LinLibertine-33" d="M 1375 3681 
Q 1259 3681 1139 3648 
Q 1019 3616 894 3497 
Q 769 3378 769 3194 
Q 769 2863 519 2859 
Q 416 2859 358 2931 
Q 300 3003 300 3078 
Q 300 3175 361 3300 
Q 422 3425 550 3569 
Q 678 3713 931 3808 
Q 1184 3903 1509 3903 
Q 1963 3903 2209 3653 
Q 2409 3450 2409 3147 
Q 2409 2878 2261 2676 
Q 2113 2475 1734 2297 
L 1741 2284 
Q 2100 2228 2372 1984 
Q 2644 1741 2644 1275 
Q 2644 666 2220 301 
Q 1797 -63 1203 -63 
Q 884 -63 582 60 
Q 281 184 281 366 
Q 281 444 367 516 
Q 453 588 550 588 
Q 703 588 825 422 
Q 831 416 854 381 
Q 878 347 887 333 
Q 897 319 919 291 
Q 941 263 959 250 
Q 978 238 1014 214 
Q 1050 191 1087 181 
Q 1125 172 1176 165 
Q 1228 159 1288 159 
Q 1391 159 1508 204 
Q 1625 250 1762 348 
Q 1900 447 1990 665 
Q 2081 884 2081 1184 
Q 2081 2009 1241 2009 
Q 1044 2009 934 1997 
L 903 2203 
Q 1347 2266 1628 2548 
Q 1909 2831 1909 3103 
Q 1909 3300 1831 3433 
Q 1753 3566 1637 3623 
Q 1522 3681 1375 3681 
z
" transform="scale(0.015625)"/>
       </defs>
       <use xlink:href="#LinLibertine-33"/>
       <use xlink:href="#LinLibertine-2e" x="46.484375"/>
       <use xlink:href="#LinLibertine-32" x="68.457031"/>
       <use xlink:href="#LinLibertine-65" x="114.941406"/>
       <use xlink:href="#LinLibertine-2d" x="159.619141"/>
       <use xlink:href="#LinLibertine-31" x="193.408203"/>
      </g>
     </g>
    </g>
   </g>
   <g id="line2d_13">
    <path d="M 237.318625 20.332727 
L 101.370464 122.264919 
L 66.307543 152.998925 
L 58.548829 158.377564 
L 55.734374 159.713743 
L 54.43693 159.244479 
L 53.704374 159.54036 
L 53.29518 162.485985 
L 52.981797 161.283612 
L 52.692367 162.518023 
L 52.454835 162.453947 
L 51.933862 163.083403 
L 51.558601 162.987288 
L 51.251207 162.105297 
L 51.125455 164.112392 
" clip-path="url(#pc96e699225)" style="fill: none; stroke: #9b5c6f; stroke-width: 6; stroke-linecap: square"/>
    <defs>
     <path id="mf0548eb4c0" d="M 0 4 
C 1.060812 4 2.078319 3.578535 2.828427 2.828427 
C 3.578535 2.078319 4 1.060812 4 0 
C 4 -1.060812 3.578535 -2.078319 2.828427 -2.828427 
C 2.078319 -3.578535 1.060812 -4 0 -4 
C -1.060812 -4 -2.078319 -3.578535 -2.828427 -2.828427 
C -3.578535 -2.078319 -4 -1.060812 -4 0 
C -4 1.060812 -3.578535 2.078319 -2.828427 2.828427 
C -2.078319 3.578535 -1.060812 4 0 4 
z
" style="stroke: #9b5c6f"/>
    </defs>
    <g clip-path="url(#pc96e699225)">
     <use xlink:href="#mf0548eb4c0" x="237.318625" y="20.332727" style="fill: #9b5c6f; stroke: #9b5c6f"/>
     <use xlink:href="#mf0548eb4c0" x="101.370464" y="122.264919" style="fill: #9b5c6f; stroke: #9b5c6f"/>
     <use xlink:href="#mf0548eb4c0" x="66.307543" y="152.998925" style="fill: #9b5c6f; stroke: #9b5c6f"/>
     <use xlink:href="#mf0548eb4c0" x="58.548829" y="158.377564" style="fill: #9b5c6f; stroke: #9b5c6f"/>
     <use xlink:href="#mf0548eb4c0" x="55.734374" y="159.713743" style="fill: #9b5c6f; stroke: #9b5c6f"/>
     <use xlink:href="#mf0548eb4c0" x="54.43693" y="159.244479" style="fill: #9b5c6f; stroke: #9b5c6f"/>
     <use xlink:href="#mf0548eb4c0" x="53.704374" y="159.54036" style="fill: #9b5c6f; stroke: #9b5c6f"/>
     <use xlink:href="#mf0548eb4c0" x="53.29518" y="162.485985" style="fill: #9b5c6f; stroke: #9b5c6f"/>
     <use xlink:href="#mf0548eb4c0" x="52.981797" y="161.283612" style="fill: #9b5c6f; stroke: #9b5c6f"/>
     <use xlink:href="#mf0548eb4c0" x="52.692367" y="162.518023" style="fill: #9b5c6f; stroke: #9b5c6f"/>
     <use xlink:href="#mf0548eb4c0" x="52.454835" y="162.453947" style="fill: #9b5c6f; stroke: #9b5c6f"/>
     <use xlink:href="#mf0548eb4c0" x="51.933862" y="163.083403" style="fill: #9b5c6f; stroke: #9b5c6f"/>
     <use xlink:href="#mf0548eb4c0" x="51.558601" y="162.987288" style="fill: #9b5c6f; stroke: #9b5c6f"/>
     <use xlink:href="#mf0548eb4c0" x="51.251207" y="162.105297" style="fill: #9b5c6f; stroke: #9b5c6f"/>
     <use xlink:href="#mf0548eb4c0" x="51.125455" y="164.112392" style="fill: #9b5c6f; stroke: #9b5c6f"/>
    </g>
   </g>
   <g id="line2d_14">
    <path d="M 242.434545 105.160317 
L 234.342488 120.474552 
L 209.687063 165.122536 
L 174.664064 230.793199 
L 141.072245 296.294248 
L 116.622415 350.514101 
L 101.108979 380.944686 
L 92.016892 401.072181 
L 86.583596 413.79321 
L 83.292081 420.2913 
L 81.178246 420.907563 
L 79.731097 423.082388 
L 78.749032 422.658354 
L 76.882709 426.987273 
L 76.235983 426.459586 
L 76.09027 426.92885 
L 76.020408 423.743881 
" clip-path="url(#pc96e699225)" style="fill: none; stroke: #537b8d; stroke-width: 6; stroke-linecap: square"/>
    <defs>
     <path id="mf534d4e138" d="M -0 4 
L 4 -4 
L -4 -4 
z
" style="stroke: #537b8d; stroke-linejoin: miter"/>
    </defs>
    <g clip-path="url(#pc96e699225)">
     <use xlink:href="#mf534d4e138" x="242.434545" y="105.160317" style="fill: #537b8d; stroke: #537b8d; stroke-linejoin: miter"/>
     <use xlink:href="#mf534d4e138" x="234.342488" y="120.474552" style="fill: #537b8d; stroke: #537b8d; stroke-linejoin: miter"/>
     <use xlink:href="#mf534d4e138" x="209.687063" y="165.122536" style="fill: #537b8d; stroke: #537b8d; stroke-linejoin: miter"/>
     <use xlink:href="#mf534d4e138" x="174.664064" y="230.793199" style="fill: #537b8d; stroke: #537b8d; stroke-linejoin: miter"/>
     <use xlink:href="#mf534d4e138" x="141.072245" y="296.294248" style="fill: #537b8d; stroke: #537b8d; stroke-linejoin: miter"/>
     <use xlink:href="#mf534d4e138" x="116.622415" y="350.514101" style="fill: #537b8d; stroke: #537b8d; stroke-linejoin: miter"/>
     <use xlink:href="#mf534d4e138" x="101.108979" y="380.944686" style="fill: #537b8d; stroke: #537b8d; stroke-linejoin: miter"/>
     <use xlink:href="#mf534d4e138" x="92.016892" y="401.072181" style="fill: #537b8d; stroke: #537b8d; stroke-linejoin: miter"/>
     <use xlink:href="#mf534d4e138" x="86.583596" y="413.79321" style="fill: #537b8d; stroke: #537b8d; stroke-linejoin: miter"/>
     <use xlink:href="#mf534d4e138" x="83.292081" y="420.2913" style="fill: #537b8d; stroke: #537b8d; stroke-linejoin: miter"/>
     <use xlink:href="#mf534d4e138" x="81.178246" y="420.907563" style="fill: #537b8d; stroke: #537b8d; stroke-linejoin: miter"/>
     <use xlink:href="#mf534d4e138" x="79.731097" y="423.082388" style="fill: #537b8d; stroke: #537b8d; stroke-linejoin: miter"/>
     <use xlink:href="#mf534d4e138" x="78.749032" y="422.658354" style="fill: #537b8d; stroke: #537b8d; stroke-linejoin: miter"/>
     <use xlink:href="#mf534d4e138" x="76.882709" y="426.987273" style="fill: #537b8d; stroke: #537b8d; stroke-linejoin: miter"/>
     <use xlink:href="#mf534d4e138" x="76.235983" y="426.459586" style="fill: #537b8d; stroke: #537b8d; stroke-linejoin: miter"/>
     <use xlink:href="#mf534d4e138" x="76.09027" y="426.92885" style="fill: #537b8d; stroke: #537b8d; stroke-linejoin: miter"/>
     <use xlink:href="#mf534d4e138" x="76.020408" y="423.743881" style="fill: #537b8d; stroke: #537b8d; stroke-linejoin: miter"/>
    </g>
   </g>
   <g id="line2d_15">
    <path d="M 51.125455 164.112392 
L 209.687063 165.122536 
" clip-path="url(#pc96e699225)" style="fill: none; stroke-dasharray: 7.4,3.2; stroke-dashoffset: 0; stroke: #31a354; stroke-width: 2"/>
   </g>
   <g id="patch_3">
    <path d="M 41.56 447.32 
L 41.56 -0 
" style="fill: none; stroke: #000000; stroke-width: 0.8; stroke-linejoin: miter; stroke-linecap: square"/>
   </g>
   <g id="patch_4">
    <path d="M 252 447.32 
L 252 -0 
" style="fill: none; stroke: #000000; stroke-width: 0.8; stroke-linejoin: miter; stroke-linecap: square"/>
   </g>
   <g id="patch_5">
    <path d="M 41.56 447.32 
L 252 447.32 
" style="fill: none; stroke: #000000; stroke-width: 0.8; stroke-linejoin: miter; stroke-linecap: square"/>
   </g>
   <g id="patch_6">
    <path d="M 41.56 0 
L 252 0 
" style="fill: none; stroke: #000000; stroke-width: 0.8; stroke-linejoin: miter; stroke-linecap: square"/>
   </g>
   <g id="text_7">
    <!-- 27.82x -->
    <g style="fill: #31a354" transform="translate(108.207634 162.379317)rotate(-359.96134)scale(0.252 -0.252)">
     <defs>
      <path id="LinLibertine-37" d="M 1088 3425 
Q 966 3425 880 3395 
Q 794 3366 694 3237 
Q 594 3109 531 2869 
Q 434 2856 325 2888 
Q 447 3688 453 3909 
Q 453 3928 481 3928 
Q 506 3922 589 3881 
Q 672 3841 800 3841 
L 2119 3841 
Q 2375 3841 2613 3909 
L 2713 3834 
Q 2022 2144 1281 -63 
L 844 -84 
L 794 -38 
Q 1269 1019 2234 3425 
L 1088 3425 
z
" transform="scale(0.015625)"/>
      <path id="LinLibertine-78" d="M 1166 2291 
L 1556 1716 
Q 1619 1625 1678 1703 
L 2094 2284 
Q 2172 2394 2167 2448 
Q 2163 2503 2119 2515 
Q 2075 2528 1941 2547 
Q 1909 2572 1907 2648 
Q 1906 2725 1941 2759 
Q 2416 2747 2478 2747 
Q 2625 2747 2944 2759 
Q 2969 2728 2969 2650 
Q 2969 2572 2944 2547 
Q 2747 2528 2619 2464 
Q 2491 2400 2322 2194 
L 1784 1509 
Q 1753 1466 1784 1416 
L 2363 603 
Q 2466 463 2545 378 
Q 2625 294 2720 259 
Q 2816 225 2848 219 
Q 2881 213 3003 197 
Q 3034 166 3034 89 
Q 3034 13 3003 -13 
Q 2528 0 2463 0 
Q 2272 0 1797 -13 
Q 1766 13 1766 89 
Q 1766 166 1797 197 
Q 1816 197 1861 208 
Q 1906 219 1918 219 
Q 1931 219 1961 228 
Q 1991 238 1994 247 
Q 1997 256 2009 272 
Q 2022 288 2012 309 
Q 2003 331 1990 364 
Q 1978 397 1948 442 
Q 1919 488 1881 538 
L 1509 1050 
Q 1484 1081 1465 1087 
Q 1447 1094 1434 1084 
Q 1422 1075 1394 1038 
L 991 453 
Q 906 300 945 259 
Q 984 219 1131 197 
Q 1163 166 1164 89 
Q 1166 13 1131 -13 
Q 656 0 594 0 
Q 491 0 434 -3 
Q 378 -6 301 -9 
Q 225 -13 134 -13 
Q 103 13 103 89 
Q 103 166 134 197 
Q 275 203 342 220 
Q 409 238 518 314 
Q 628 391 756 556 
L 1294 1247 
Q 1325 1284 1288 1344 
L 728 2156 
Q 478 2516 153 2547 
Q 128 2572 128 2648 
Q 128 2725 153 2759 
Q 628 2747 703 2747 
Q 875 2747 1350 2759 
Q 1381 2728 1381 2650 
Q 1381 2572 1350 2547 
Q 1319 2541 1267 2534 
Q 1216 2528 1197 2528 
Q 1178 2528 1145 2518 
Q 1113 2509 1106 2506 
Q 1100 2503 1087 2487 
Q 1075 2472 1081 2458 
Q 1088 2444 1094 2419 
Q 1100 2394 1120 2364 
Q 1141 2334 1166 2291 
z
" transform="scale(0.015625)"/>
     </defs>
     <use xlink:href="#LinLibertine-32"/>
     <use xlink:href="#LinLibertine-37" x="46.484375"/>
     <use xlink:href="#LinLibertine-2e" x="92.96875"/>
     <use xlink:href="#LinLibertine-38" x="114.941406"/>
     <use xlink:href="#LinLibertine-32" x="161.425781"/>
     <use xlink:href="#LinLibertine-78" x="207.910156"/>
    </g>
   </g>
  </g>
 </g>
 <defs>
  <clipPath id="pc96e699225">
   <rect x="41.56" y="0" width="210.44" height="447.32"/>
  </clipPath>
 </defs>
</svg>
